<svg xmlns="http://www.w3.org/2000/svg" xmlns:xlink="http://www.w3.org/1999/xlink" width="24" height="24" viewBox="0 0 24 24" fill="none">
<g  mask="url(#mask-9_972)">
<path d="M11.9997 0C9.62674 0 7.30675 0.703995 5.33273 2.022C3.35974 3.341 1.82175 5.215 0.912735 7.40799C0.00474548 9.60101 -0.232254 12.013 0.230743 14.341C0.693741 16.669 1.83574 18.807 3.51474 20.485C5.19273 22.164 7.33073 23.306 9.65874 23.769C11.9867 24.232 14.3987 23.995 16.5917 23.087C18.7847 22.178 20.6587 20.64 21.9777 18.667C23.2957 16.694 23.9997 14.373 23.9997 12C23.9967 8.81799 22.7307 5.76801 20.4817 3.51901C18.2317 1.26901 15.1807 0.00300598 11.9997 0L11.9997 0L11.9997 0ZM11.9997 21C10.2197 21 8.47974 20.472 6.99974 19.483C5.51974 18.494 4.36574 17.089 3.68474 15.444C3.00374 13.8 2.82574 11.99 3.17274 10.244C3.51974 8.49799 4.37674 6.89499 5.63574 5.63599C6.89474 4.37701 8.49774 3.51999 10.2437 3.173C11.9897 2.82599 13.7997 3.004 15.4437 3.685C17.0887 4.366 18.4937 5.51999 19.4827 7C20.4717 8.48001 20.9997 10.22 20.9997 12C20.9967 14.386 20.0477 16.674 18.3607 18.361C16.6737 20.048 14.3857 20.997 11.9997 21L11.9997 21L11.9997 21ZM16.9997 12C16.9997 12.398 16.8417 12.779 16.5607 13.061C16.2787 13.342 15.8977 13.5 15.4997 13.5L13.4997 13.5L13.4997 15.5C13.4997 15.898 13.3417 16.279 13.0607 16.561C12.7787 16.842 12.3977 17 11.9997 17C11.6017 17 11.2207 16.842 10.9387 16.561C10.6577 16.279 10.4997 15.898 10.4997 15.5L10.4997 13.5L8.49974 13.5C8.10175 13.5 7.72073 13.342 7.43874 13.061C7.15775 12.779 6.99974 12.398 6.99974 12C6.99974 11.602 7.15775 11.221 7.43874 10.939C7.72073 10.658 8.10175 10.5 8.49974 10.5L10.4997 10.5L10.4997 8.5C10.4997 8.10199 10.6577 7.72101 10.9387 7.439C11.2207 7.15799 11.6017 7 11.9997 7C12.3977 7 12.7787 7.15799 13.0607 7.439C13.3417 7.72101 13.4997 8.10199 13.4997 8.5L13.4997 10.5L15.4997 10.5C15.8977 10.5 16.2787 10.658 16.5607 10.939C16.8417 11.221 16.9997 11.602 16.9997 12L16.9997 12L16.9997 12Z"   fill="#DAE2E6" >
</path>
</g>
<defs>
<mask id="mask-9_972" style="mask-type:alpha" maskUnits="userSpaceOnUse">
<rect x="0" y="0" width="24" height="24"   fill="#000000" >
</rect>
<rect x="0" y="0" width="24" height="24"   fill="#000000" >
</rect>
</mask>
</defs>
</svg>
