<svg xmlns="http://www.w3.org/2000/svg" xmlns:xlink="http://www.w3.org/1999/xlink" width="24" height="24" viewBox="0 0 24 24" fill="none">
<g  mask="url(#mask-sYX_Dj7VD_muDSAYDg_tu)">
<path d="M14.1212 12.0003L18.0003 8.11731C18.2523 7.8313 18.3853 7.45929 18.3733 7.07831C18.3613 6.69733 18.2043 6.33533 17.9353 6.06531C17.6653 5.79633 17.3033 5.63928 16.9223 5.62732C16.5413 5.6153 16.1693 5.74829 15.8833 6.0003L12.0002 9.87933L8.11023 5.98828C7.97126 5.84833 7.80524 5.73828 7.62323 5.66333C7.44123 5.58728 7.24622 5.54828 7.04926 5.54828C6.85224 5.54828 6.65723 5.58728 6.47522 5.66333C6.29327 5.73828 6.12726 5.84833 5.98822 5.98828C5.84924 6.12732 5.73822 6.29333 5.66327 6.47528C5.58722 6.65729 5.54926 6.8523 5.54926 7.04932C5.54926 7.24628 5.58722 7.44129 5.66327 7.62329C5.73822 7.8053 5.84924 7.97028 5.98822 8.11029L9.87928 12.0003L6.00024 15.8823C5.84827 16.0183 5.72522 16.1833 5.63922 16.3683C5.55322 16.5533 5.50623 16.7544 5.50024 16.9583C5.49524 17.1623 5.53125 17.3653 5.60626 17.5553C5.68127 17.7443 5.79523 17.9173 5.93927 18.0613C6.08325 18.2053 6.25623 18.3183 6.44525 18.3943C6.63526 18.4693 6.83826 18.5053 7.04224 18.5003C7.24622 18.4943 7.44623 18.4463 7.63123 18.3613C7.81623 18.2754 7.98224 18.1523 8.11823 18.0003L12.0002 14.1213L15.8783 18.0003C16.1593 18.2813 16.5413 18.4394 16.9393 18.4394C17.3373 18.4394 17.7193 18.2813 18.0003 18.0003C18.2813 17.7183 18.4403 17.3373 18.4403 16.9394C18.4403 16.5413 18.2813 16.1593 18.0003 15.8783L14.1212 12.0003L14.1212 12.0003Z"   fill="#374957" >
</path>
</g>
<defs>
<mask id="mask-sYX_Dj7VD_muDSAYDg_tu" style="mask-type:alpha" maskUnits="userSpaceOnUse">
<rect x="0" y="0" width="24" height="24"   fill="#000000" >
</rect>
<rect x="0" y="0" width="24" height="24"   fill="#000000" >
</rect>
</mask>
</defs>
</svg>
