<svg xmlns="http://www.w3.org/2000/svg" xmlns:xlink="http://www.w3.org/1999/xlink" width="24" height="24" viewBox="0 0 24 24" fill="none">
<g  mask="url(#mask-3lpJJLNlOAjEYUpmvJCU6)">
<path d="M14.5001 24C14.2281 24 13.962 23.926 13.7291 23.786L8.72906 20.786C8.50708 20.653 8.32306 20.464 8.19507 20.239C8.06708 20.014 8.00006 19.759 8.00006 19.5L8.00006 14.335L2.03406 7.03497C1.36206 6.26398 0.995056 5.27502 1.00006 4.25299C1.00104 3.125 1.45007 2.04401 2.24707 1.24701C3.04407 0.450012 4.12506 0.000976562 5.25305 0L18.7471 0C19.5671 0 20.3691 0.237 21.0571 0.682983C21.7451 1.12903 22.29 1.763 22.626 2.51099C22.962 3.25897 23.0751 4.08801 22.9501 4.89801C22.826 5.70898 22.47 6.466 21.9261 7.07898L16.0001 14.382L16.0001 22.5C16.0001 22.898 15.842 23.279 15.561 23.561C15.2791 23.842 14.8981 24 14.5001 24L14.5001 24L14.5001 24ZM11.0001 18.65L13.0001 19.85L13.0001 13.85C13.0001 13.506 13.118 13.172 13.3351 12.904L19.6401 5.13702C19.8671 4.89801 19.996 4.58197 20.0001 4.25299C20.0001 3.92102 19.8671 3.60199 19.6331 3.36798C19.3981 3.133 19.079 3.00098 18.7471 3L5.25305 3C5.01208 3 4.77509 3.07001 4.57306 3.20203C4.37006 3.33301 4.20905 3.52002 4.11005 3.73999C4.01105 3.961 3.97809 4.20502 4.01508 4.44299C4.05109 4.68201 4.15607 4.90503 4.31604 5.086L10.6621 12.851C10.881 13.119 11.0001 13.454 11.0001 13.8L11.0001 18.65L11.0001 18.65Z"   fill="#374957" >
</path>
</g>
<defs>
<mask id="mask-3lpJJLNlOAjEYUpmvJCU6" style="mask-type:alpha" maskUnits="userSpaceOnUse">
<rect x="0" y="0" width="24" height="24"   fill="#000000" >
</rect>
<rect x="0" y="0" width="24" height="24"   fill="#000000" >
</rect>
</mask>
</defs>
</svg>
