<svg xmlns="http://www.w3.org/2000/svg" xmlns:xlink="http://www.w3.org/1999/xlink" width="16" height="16" viewBox="0 0 16 16" fill="none">
<g  mask="url(#mask-3ykJ2s7KPLVgSsPnwG2eU)">
<path d="M11.6652 1.27759C10.9148 1.28894 10.1805 1.49825 9.53739 1.88493C8.89366 2.27091 8.3632 2.82027 8.00002 3.47758C7.63683 2.82027 7.10638 2.27091 6.46263 1.88493C5.81958 1.49825 5.08518 1.28894 4.33483 1.27759C3.13866 1.32959 2.01176 1.85295 1.20011 2.7336C0.388433 3.61425 -0.0420565 4.78027 0.00325389 5.97758C0.00325389 9.00892 3.19263 12.3196 5.86753 14.5643C6.46462 15.0663 7.21967 15.3416 8.00002 15.3416C8.78037 15.3416 9.53539 15.0663 10.1325 14.5643C12.8074 12.3196 15.9968 9.00892 15.9968 5.97758C16.0421 4.78027 15.6116 3.61425 14.7999 2.7336C13.9883 1.85295 12.8614 1.32959 11.6652 1.27759L11.6652 1.27759ZM9.27617 13.5443C8.91898 13.8449 8.46716 14.0096 8.00002 14.0096C7.53287 14.0096 7.08106 13.8449 6.72387 13.5443C3.29993 10.6703 1.33604 7.91292 1.33604 5.97758C1.29074 5.13359 1.57997 4.30627 2.14171 3.67557C2.70349 3.04492 3.49183 2.66227 4.33483 2.61092C5.17783 2.66227 5.96616 3.04492 6.52795 3.67557C7.08972 4.30627 7.37894 5.13359 7.33362 5.97758C7.33362 6.15425 7.40359 6.32361 7.52888 6.44893C7.65349 6.57361 7.82342 6.64425 8.00002 6.64425C8.17661 6.64425 8.34654 6.57361 8.47116 6.44893C8.59644 6.32361 8.66641 6.15425 8.66641 5.97758C8.6211 5.13359 8.91032 4.30627 9.47209 3.67557C10.0339 3.04492 10.8222 2.66227 11.6652 2.61092C12.5082 2.66227 13.2965 3.04492 13.8583 3.67557C14.4201 4.30627 14.7093 5.13359 14.664 5.97758C14.664 7.91292 12.7001 10.6703 9.27617 13.5416L9.27617 13.5443L9.27617 13.5443Z"   fill="#374957" >
</path>
</g>
<defs>
<mask id="mask-3ykJ2s7KPLVgSsPnwG2eU" style="mask-type:alpha" maskUnits="userSpaceOnUse">
<rect x="0.003173828125" y="0" width="15.993499755859375" height="16"   fill="#000000" >
</rect>
<rect x="0.003173828125" y="0" width="15.993499755859375" height="16"   fill="#000000" >
</rect>
</mask>
</defs>
</svg>
