<svg xmlns="http://www.w3.org/2000/svg" xmlns:xlink="http://www.w3.org/1999/xlink" width="24" height="24" viewBox="0 0 24 24" fill="none">
<g  mask="url(#mask-xBMii0QnbHAn1c-vz7Kiv)">
<path d="M4.99985 14C5.55185 14 5.99985 13.552 5.99985 13C5.99985 12.448 5.55185 12 4.99985 12C4.44785 12 3.99985 12.448 3.99985 13C3.99985 13.552 4.44785 14 4.99985 14L4.99985 14Z"   fill="#374957" >
</path>
</g>
<g  mask="url(#mask-xBMii0QnbHAn1c-vz7Kiv)">
<path d="M1 10.0001C1.552 10.0001 2 9.55212 2 9.00012C2 8.44812 1.552 8.00012 1 8.00012C0.447998 8.00012 0 8.44812 0 9.00012C0 9.55212 0.447998 10.0001 1 10.0001L1 10.0001Z"   fill="#374957" >
</path>
</g>
<g  mask="url(#mask-xBMii0QnbHAn1c-vz7Kiv)">
<path d="M4.99985 5.99982C5.55185 5.99982 5.99985 5.55182 5.99985 4.99982C5.99985 4.44781 5.55185 3.99982 4.99985 3.99982C4.44785 3.99982 3.99985 4.44781 3.99985 4.99982C3.99985 5.55182 4.44785 5.99982 4.99985 5.99982L4.99985 5.99982Z"   fill="#374957" >
</path>
</g>
<g  mask="url(#mask-xBMii0QnbHAn1c-vz7Kiv)">
<path d="M1 2C1.552 2 2 1.552 2 1C2 0.447998 1.552 0 1 0C0.447998 0 0 0.447998 0 1C0 1.552 0.447998 2 1 2L1 2Z"   fill="#374957" >
</path>
</g>
<g  mask="url(#mask-xBMii0QnbHAn1c-vz7Kiv)">
<path d="M22.9998 14C23.5518 14 23.9998 13.552 23.9998 13C23.9998 12.448 23.5518 12 22.9998 12C22.4478 12 21.9998 12.448 21.9998 13C21.9998 13.552 22.4478 14 22.9998 14L22.9998 14Z"   fill="#374957" >
</path>
</g>
<g  mask="url(#mask-xBMii0QnbHAn1c-vz7Kiv)">
<path d="M19 10.0001C19.552 10.0001 20 9.55212 20 9.00012C20 8.44812 19.552 8.00012 19 8.00012C18.448 8.00012 18 8.44812 18 9.00012C18 9.55212 18.448 10.0001 19 10.0001L19 10.0001Z"   fill="#374957" >
</path>
</g>
<g  mask="url(#mask-xBMii0QnbHAn1c-vz7Kiv)">
<path d="M22.9998 5.99982C23.5518 5.99982 23.9998 5.55182 23.9998 4.99982C23.9998 4.44781 23.5518 3.99982 22.9998 3.99982C22.4478 3.99982 21.9998 4.44781 21.9998 4.99982C21.9998 5.55182 22.4478 5.99982 22.9998 5.99982L22.9998 5.99982Z"   fill="#374957" >
</path>
</g>
<g  mask="url(#mask-xBMii0QnbHAn1c-vz7Kiv)">
<path d="M19 2C19.552 2 20 1.552 20 1C20 0.447998 19.552 0 19 0C18.448 0 18 0.447998 18 1C18 1.552 18.448 2 19 2L19 2Z"   fill="#374957" >
</path>
</g>
<g  mask="url(#mask-xBMii0QnbHAn1c-vz7Kiv)">
<path d="M13.9998 23.9999C14.5518 23.9999 14.9998 23.5519 14.9998 22.9999C14.9998 22.4479 14.5518 21.9999 13.9998 21.9999C13.4478 21.9999 12.9998 22.4479 12.9998 22.9999C12.9998 23.5519 13.4478 23.9999 13.9998 23.9999L13.9998 23.9999Z"   fill="#374957" >
</path>
</g>
<g  mask="url(#mask-xBMii0QnbHAn1c-vz7Kiv)">
<path d="M10 20C10.552 20 11 19.552 11 19C11 18.448 10.552 18 10 18C9.448 18 9 18.448 9 19C9 19.552 9.448 20 10 20L10 20Z"   fill="#374957" >
</path>
</g>
<g  mask="url(#mask-xBMii0QnbHAn1c-vz7Kiv)">
<path d="M13.9998 16.0001C14.5518 16.0001 14.9998 15.5521 14.9998 15.0001C14.9998 14.4481 14.5518 14.0001 13.9998 14.0001C13.4478 14.0001 12.9998 14.4481 12.9998 15.0001C12.9998 15.5521 13.4478 16.0001 13.9998 16.0001L13.9998 16.0001Z"   fill="#374957" >
</path>
</g>
<g  mask="url(#mask-xBMii0QnbHAn1c-vz7Kiv)">
<path d="M10 11.9998C10.552 11.9998 11 11.5518 11 10.9998C11 10.4478 10.552 9.99982 10 9.99982C9.448 9.99982 9 10.4478 9 10.9998C9 11.5518 9.448 11.9998 10 11.9998L10 11.9998Z"   fill="#374957" >
</path>
</g>
<g  mask="url(#mask-xBMii0QnbHAn1c-vz7Kiv)">
<path d="M15.0002 3C14.4702 3 13.9612 2.789 13.5862 2.414C13.2112 2.039 13.0002 1.53003 13.0002 1C13.0002 0.734985 12.8951 0.47998 12.7072 0.29303C12.5201 0.10498 12.2652 0 12.0002 0C11.7351 0 11.4811 0.10498 11.2932 0.29303C11.1052 0.47998 11.0002 0.734985 11.0002 1L11.0002 1C11.0002 1.53003 10.7892 2.039 10.4142 2.414C10.0392 2.789 9.53116 3 9.00015 3C8.73514 3 8.48114 3.10498 8.29315 3.29303C8.10516 3.47998 8.00015 3.73499 8.00015 4C8.00015 4.26501 8.10516 4.52002 8.29315 4.70697C8.48114 4.89502 8.73514 5 9.00015 5L9.00015 5C9.53116 5 10.0392 5.211 10.4142 5.586C10.7892 5.961 11.0002 6.46997 11.0002 7C11.0002 7.26501 11.1052 7.52002 11.2932 7.70697C11.4811 7.89502 11.7351 8 12.0002 8C12.2652 8 12.5201 7.89502 12.7072 7.70697C12.8951 7.52002 13.0002 7.26501 13.0002 7C13.0002 6.46997 13.2112 5.961 13.5862 5.586C13.9612 5.211 14.4702 5 15.0002 5C15.2652 5 15.5201 4.89502 15.7072 4.70697C15.8951 4.52002 16.0002 4.26501 16.0002 4C16.0002 3.73499 15.8951 3.47998 15.7072 3.29303C15.5201 3.10498 15.2652 3 15.0002 3L15.0002 3L15.0002 3Z"   fill="#374957" >
</path>
</g>
<g  mask="url(#mask-xBMii0QnbHAn1c-vz7Kiv)">
<path d="M7 18.9999C6.47 18.9999 5.961 18.7889 5.586 18.4139C5.211 18.0389 5 17.5299 5 16.9999C5 16.7349 4.89499 16.4799 4.707 16.2929C4.51999 16.1049 4.26501 15.9999 4 15.9999C3.73499 15.9999 3.48001 16.1049 3.293 16.2929C3.10501 16.4799 3 16.7349 3 16.9999L3 16.9999C3 17.5299 2.789 18.0389 2.414 18.4139C2.039 18.7889 1.53 18.9999 1 18.9999C0.734985 18.9999 0.480011 19.1049 0.292999 19.2929C0.105011 19.4799 0 19.7349 0 19.9999C0 20.2649 0.105011 20.5189 0.292999 20.7068C0.480011 20.8939 0.734985 20.9999 1 20.9999L1 20.9999C1.53 20.9999 2.039 21.2109 2.414 21.5859C2.789 21.9609 3 22.4689 3 22.9999C3 23.2649 3.10501 23.5189 3.293 23.7068C3.48001 23.8939 3.73499 23.9999 4 23.9999C4.26501 23.9999 4.51999 23.8939 4.707 23.7068C4.89499 23.5189 5 23.2649 5 22.9999C5 22.4689 5.211 21.9609 5.586 21.5859C5.961 21.2109 6.47 20.9999 7 20.9999L7 20.9999C7.26501 20.9999 7.51999 20.8939 7.707 20.7068C7.89499 20.5189 8 20.2649 8 19.9999C8 19.7349 7.89499 19.4799 7.707 19.2929C7.51999 19.1049 7.26501 18.9999 7 18.9999L7 18.9999Z"   fill="#374957" >
</path>
</g>
<g  mask="url(#mask-xBMii0QnbHAn1c-vz7Kiv)">
<path d="M22.9998 18.9999C22.4688 18.9999 21.9608 18.7889 21.5858 18.4139C21.2108 18.0389 20.9998 17.5299 20.9998 16.9999C20.9998 16.7349 20.8939 16.4799 20.7068 16.2929C20.5189 16.1049 20.2649 15.9999 19.9998 15.9999C19.7348 15.9999 19.4799 16.1049 19.2928 16.2929C19.1049 16.4799 18.9998 16.7349 18.9998 16.9999C18.9998 17.5299 18.7888 18.0389 18.4138 18.4139C18.0388 18.7889 17.5298 18.9999 16.9998 18.9999C16.7348 18.9999 16.4799 19.1049 16.2928 19.2929C16.1049 19.4799 15.9998 19.7349 15.9998 19.9999C15.9998 20.2649 16.1049 20.5189 16.2928 20.7068C16.4799 20.8939 16.7348 20.9999 16.9998 20.9999C17.5298 20.9999 18.0388 21.2109 18.4138 21.5859C18.7888 21.9609 18.9998 22.4689 18.9998 22.9999C18.9998 23.2649 19.1049 23.5189 19.2928 23.7068C19.4799 23.8939 19.7348 23.9999 19.9998 23.9999C20.2649 23.9999 20.5189 23.8939 20.7068 23.7068C20.8939 23.5189 20.9998 23.2649 20.9998 22.9999C20.9998 22.4689 21.2108 21.9609 21.5858 21.5859C21.9608 21.2109 22.4688 20.9999 22.9998 20.9999L22.9998 20.9999C23.2649 20.9999 23.5189 20.8939 23.7068 20.7068C23.8939 20.5189 23.9998 20.2649 23.9998 19.9999C23.9998 19.7349 23.8939 19.4799 23.7068 19.2929C23.5189 19.1049 23.2649 18.9999 22.9998 18.9999L22.9998 18.9999Z"   fill="#374957" >
</path>
</g>
<defs>
<mask id="mask-xBMii0QnbHAn1c-vz7Kiv" style="mask-type:alpha" maskUnits="userSpaceOnUse">
<rect x="0" y="0" width="24" height="24"   fill="#000000" >
</rect>
<rect x="0" y="0" width="24" height="24"   fill="#000000" >
</rect>
</mask>
</defs>
</svg>
