<svg xmlns="http://www.w3.org/2000/svg" xmlns:xlink="http://www.w3.org/1999/xlink" width="24" height="24.003662109375" viewBox="0 0 24 24.003662109375" fill="none">
<g  mask="url(#mask-gvs-z3Gu8bk-2iTWw8A6A)">
<path d="M5.86804 15.5863C4.81408 14.6123 4.00903 13.3983 3.52307 12.0473C3.03705 10.6963 2.88306 9.24829 3.07507 7.82529C3.26508 6.38229 3.80206 5.00729 4.64007 3.81729C5.47809 2.6283 6.59106 1.6593 7.88604 0.994293C9.18005 0.329285 10.6171 -0.0117188 12.0721 0.000305176C13.5271 0.0112915 14.9571 0.376282 16.2411 1.06229C17.5241 1.74829 18.6221 2.73529 19.4401 3.93829C20.2591 5.1413 20.7731 6.5253 20.9391 7.97128C21.1061 9.41629 20.9191 10.8813 20.3951 12.2393C19.8711 13.5963 19.0261 14.8073 17.9321 15.7663C17.2281 16.3723 16.6811 17.1393 16.3381 18.0033L13.0001 18.0033L13.0001 10.8193C13.5831 10.6133 14.0881 10.2323 14.4461 9.7283C14.8041 9.2243 14.9981 8.62131 15.0001 8.0033C15.0001 7.73828 14.8951 7.48331 14.7071 7.2963C14.5201 7.10831 14.2651 7.0033 14.0001 7.0033C13.7351 7.0033 13.4811 7.10831 13.2931 7.2963C13.1061 7.48331 13.0001 7.73828 13.0001 8.0033C13.0001 8.26831 12.8951 8.52328 12.707 8.7103C12.5201 8.89828 12.2651 9.0033 12.0001 9.0033C11.735 9.0033 11.4811 8.89828 11.2931 8.7103C11.1061 8.52328 11.0001 8.26831 11.0001 8.0033C11.0001 7.73828 10.8951 7.48331 10.707 7.2963C10.5201 7.10831 10.2651 7.0033 10.0001 7.0033C9.73504 7.0033 9.48108 7.10831 9.29309 7.2963C9.10608 7.48331 9.00006 7.73828 9.00006 8.0033C9.00305 8.62131 9.19604 9.2243 9.55407 9.7283C9.91205 10.2323 10.4171 10.6133 11.0001 10.8193L11.0001 18.0033L7.56305 18.0033C7.18109 17.0843 6.60205 16.2593 5.86804 15.5863L5.86804 15.5863L5.86804 15.5863ZM8.00006 20.0033L8.00006 20.3133C8.00103 21.2913 8.39007 22.2293 9.08203 22.9213C9.77404 23.6133 10.712 24.0023 11.6901 24.0033L12.3101 24.0033C13.2891 24.0023 14.2271 23.6133 14.9181 22.9213C15.6101 22.2293 15.9991 21.2913 16.0001 20.3133L16.0001 20.0033L8.00006 20.0033L8.00006 20.0033Z"   fill="#374957" >
</path>
</g>
<defs>
<mask id="mask-gvs-z3Gu8bk-2iTWw8A6A" style="mask-type:alpha" maskUnits="userSpaceOnUse">
<rect x="0" y="0.003662109375" width="24" height="24"   fill="#000000" >
</rect>
<rect x="0" y="0.003662109375" width="24" height="24"   fill="#000000" >
</rect>
</mask>
</defs>
</svg>
