<svg xmlns="http://www.w3.org/2000/svg" xmlns:xlink="http://www.w3.org/1999/xlink" width="24" height="24" viewBox="0 0 24 24" fill="none">
<g  mask="url(#mask-49YFHXJWpiOKe9KOaQmrN)">
<path d="M8 7.00024L22.5 7.00024C22.898 7.00024 23.28 6.84222 23.561 6.56121C23.842 6.28027 24 5.89825 24 5.50024C24 5.10223 23.842 4.72125 23.561 4.44025C23.28 4.15826 22.898 4.00024 22.5 4.00024L8 4.00024C7.60199 4.00024 7.22101 4.15826 6.94 4.44025C6.65802 4.72125 6.5 5.10223 6.5 5.50024C6.5 5.89825 6.65802 6.28027 6.94 6.56121C7.22101 6.84222 7.60199 7.00024 8 7.00024L8 7.00024L8 7.00024Z"   fill="#374957" >
</path>
</g>
<g  mask="url(#mask-49YFHXJWpiOKe9KOaQmrN)">
<path d="M22.5 10.9998L8 10.9998C7.60199 10.9998 7.22101 11.1578 6.94 11.4388C6.65802 11.7197 6.5 12.1017 6.5 12.4998C6.5 12.8978 6.65802 13.2787 6.94 13.5598C7.22101 13.8417 7.60199 13.9998 8 13.9998L22.5 13.9998C22.898 13.9998 23.28 13.8417 23.561 13.5598C23.842 13.2787 24 12.8978 24 12.4998C24 12.1017 23.842 11.7197 23.561 11.4388C23.28 11.1578 22.898 10.9998 22.5 10.9998L22.5 10.9998Z"   fill="#374957" >
</path>
</g>
<g  mask="url(#mask-49YFHXJWpiOKe9KOaQmrN)">
<path d="M22.5 18L8 18C7.60199 18 7.22101 18.16 6.94 18.44C6.65802 18.72 6.5 19.1 6.5 19.5C6.5 19.9 6.65802 20.28 6.94 20.56C7.22101 20.84 7.60199 21 8 21L22.5 21C22.898 21 23.28 20.84 23.561 20.56C23.842 20.28 24 19.9 24 19.5C24 19.1 23.842 18.72 23.561 18.44C23.28 18.16 22.898 18 22.5 18L22.5 18Z"   fill="#374957" >
</path>
</g>
<g  mask="url(#mask-49YFHXJWpiOKe9KOaQmrN)">
<path d="M2.5 8C3.88098 8 5 6.88098 5 5.5C5 4.11902 3.88098 3 2.5 3C1.11902 3 0 4.11902 0 5.5C0 6.88098 1.11902 8 2.5 8L2.5 8Z"   fill="#374957" >
</path>
</g>
<g  mask="url(#mask-49YFHXJWpiOKe9KOaQmrN)">
<path d="M2.5 14.4998C3.88098 14.4998 5 13.3798 5 11.9998C5 10.6188 3.88098 9.49976 2.5 9.49976C1.11902 9.49976 0 10.6188 0 11.9998C0 13.3798 1.11902 14.4998 2.5 14.4998L2.5 14.4998Z"   fill="#374957" >
</path>
</g>
<g  mask="url(#mask-49YFHXJWpiOKe9KOaQmrN)">
<path d="M2.5 21.5C3.88098 21.5 5 20.38 5 19C5 17.62 3.88098 16.5 2.5 16.5C1.11902 16.5 0 17.62 0 19C0 20.38 1.11902 21.5 2.5 21.5L2.5 21.5Z"   fill="#374957" >
</path>
</g>
<defs>
<mask id="mask-49YFHXJWpiOKe9KOaQmrN" style="mask-type:alpha" maskUnits="userSpaceOnUse">
<rect x="0" y="0" width="24" height="24"   fill="#000000" >
</rect>
<rect x="0" y="0" width="24" height="24"   fill="#000000" >
</rect>
</mask>
</defs>
</svg>
