<svg xmlns="http://www.w3.org/2000/svg" xmlns:xlink="http://www.w3.org/1999/xlink" width="12" height="12" viewBox="0 0 12 12" fill="none">
<path d="M10.5 4.5L7.5 4.5L7.5 1.5C7.5 1.09998 7.34198 0.719971 7.06097 0.439941C6.77899 0.160034 6.39801 0 6 0C5.60199 0 5.22101 0.160034 4.93903 0.439941C4.65802 0.719971 4.5 1.09998 4.5 1.5L4.5 4.5L1.5 4.5C1.10199 4.5 0.721008 4.66003 0.439026 4.93994C0.15802 5.21997 0 5.59998 0 6C0 6.40002 0.15802 6.78003 0.439026 7.06006C0.721008 7.33997 1.10199 7.5 1.5 7.5L4.5 7.5L4.5 10.5C4.5 10.9 4.65802 11.28 4.93903 11.5601C5.22101 11.84 5.60199 12 6 12C6.39801 12 6.77899 11.84 7.06097 11.5601C7.34198 11.28 7.5 10.9 7.5 10.5L7.5 7.5L10.5 7.5C10.898 7.5 11.279 7.33997 11.561 7.06006C11.842 6.78003 12 6.40002 12 6C12 5.59998 11.842 5.21997 11.561 4.93994C11.279 4.66003 10.898 4.5 10.5 4.5L10.5 4.5Z"   fill="#FFFFFF" >
</path>
</svg>
