<svg xmlns="http://www.w3.org/2000/svg" xmlns:xlink="http://www.w3.org/1999/xlink" width="24" height="24" viewBox="0 0 24 24" fill="none">
<g  mask="url(#mask-10_61)">
<path d="M11.9998 0C9.62677 0 7.30676 0.703979 5.33276 2.02197C3.35974 3.341 1.82178 5.21503 0.912781 7.40802C0.00476074 9.60101 -0.232239 12.013 0.230774 14.341C0.693726 16.669 1.83575 18.807 3.51477 20.485C5.19275 22.164 7.33075 23.306 9.65875 23.769C11.9868 24.232 14.3987 23.995 16.5917 23.087C18.7847 22.178 20.6588 20.64 21.9778 18.667C23.2958 16.693 23.9998 14.373 23.9998 12C23.9968 8.81799 22.7308 5.76801 20.4818 3.51801C18.2318 1.26898 15.1818 0.00299072 11.9998 0L11.9998 0L11.9998 0ZM11.9998 21C10.2197 21 8.47974 20.472 6.99976 19.483C5.51978 18.494 4.36578 17.089 3.68475 15.444C3.00378 13.8 2.82574 11.99 3.17273 10.244C3.51978 8.49799 4.37677 6.89502 5.63574 5.63599C6.89478 4.37701 8.49774 3.52002 10.2438 3.17297C11.9897 2.82599 13.7997 3.00403 15.4437 3.685C17.0887 4.36603 18.4938 5.52002 19.4827 7C20.4717 8.47998 20.9998 10.22 20.9998 12C20.9968 14.386 20.0477 16.674 18.3608 18.361C16.6738 20.048 14.3857 20.997 11.9998 21L11.9998 21L11.9998 21Z"   fill="#374957" >
</path>
</g>
<g  mask="url(#mask-10_61)">
<path d="M12.0051 19.0002C12.8341 19.0002 13.5051 18.3292 13.5051 17.5002C13.5051 16.6722 12.8341 16.0002 12.0051 16.0002C11.1771 16.0002 10.5051 16.6722 10.5051 17.5002C10.5051 18.3292 11.1771 19.0002 12.0051 19.0002L12.0051 19.0002Z"   fill="#374957" >
</path>
</g>
<g  mask="url(#mask-10_61)">
<path d="M12.7573 4.98682C12.1463 4.87683 11.5173 4.90283 10.9173 5.06183C10.3163 5.2218 9.7583 5.5108 9.28131 5.90979C8.80432 6.3078 8.42133 6.80682 8.15729 7.36883C7.89429 7.93182 7.7583 8.54584 7.75732 9.16784C7.75732 9.56482 7.91528 9.94684 8.19733 10.2278C8.47833 10.5098 8.85931 10.6678 9.25732 10.6678C9.65533 10.6678 10.0373 10.5098 10.3183 10.2278C10.5993 9.94684 10.7573 9.56482 10.7573 9.16784C10.7583 8.94781 10.8173 8.73181 10.9283 8.54181C11.0403 8.3518 11.1993 8.19482 11.3913 8.08581C11.5823 7.97784 11.7993 7.92181 12.0193 7.9248C12.2393 7.92682 12.4553 7.98779 12.6443 8.10083C12.8333 8.21283 12.9893 8.37384 13.0963 8.56579C13.2033 8.75781 13.2573 8.97583 13.2533 9.1958C13.2493 9.41583 13.1873 9.6308 13.0733 9.81878C12.9593 10.0068 12.7973 10.1618 12.6043 10.2678C11.9853 10.5268 11.4603 10.9668 11.0963 11.5308C10.7323 12.0938 10.5473 12.7548 10.5663 13.4258C10.5663 13.8228 10.7243 14.2048 11.0063 14.4858C11.2873 14.7678 11.6683 14.9258 12.0663 14.9258C12.4643 14.9258 12.8463 14.7678 13.1273 14.4858C13.4083 14.2048 13.5663 13.8228 13.5663 13.4258C13.5653 13.3528 13.5713 13.2798 13.5823 13.2078C13.7223 13.0798 13.8813 12.9738 14.0533 12.8948C14.8213 12.4708 15.4403 11.8198 15.8233 11.0308C16.2073 10.2428 16.3363 9.35382 16.1953 8.48883C16.0533 7.6228 15.6473 6.82184 15.0323 6.19684C14.4183 5.5708 13.6243 5.15082 12.7613 4.99481L12.7573 4.98682L12.7573 4.98682Z"   fill="#374957" >
</path>
</g>
<defs>
<mask id="mask-10_61" style="mask-type:alpha" maskUnits="userSpaceOnUse">
<rect x="0" y="0" width="24" height="24"   fill="#000000" >
</rect>
<rect x="0" y="0" width="24" height="24"   fill="#000000" >
</rect>
</mask>
</defs>
</svg>
