<svg xmlns="http://www.w3.org/2000/svg" xmlns:xlink="http://www.w3.org/1999/xlink" width="24" height="24" viewBox="0 0 24 24" fill="none">
<g  mask="url(#mask-HVj0iWCMgm5DmMOmL3HuP)">
<path d="M1.32703 12.4004L4.88708 15.0004L3.5271 19.1903C3.31702 19.8403 3.30713 20.5404 3.5271 21.1903C3.73706 21.8403 4.1571 22.4104 4.71704 22.8004C5.26709 23.2103 5.93701 23.4304 6.61706 23.4204C7.30713 23.4204 7.96704 23.1903 8.51709 22.7804L11.9971 20.2203L15.4771 22.7804C16.0271 23.1804 16.697 23.4004 17.3771 23.4104C18.0571 23.4104 18.7271 23.2003 19.2771 22.8004C19.827 22.4004 20.2471 21.8303 20.457 21.1804C20.6671 20.5404 20.6671 19.8403 20.457 19.1903L19.1071 15.0004L22.6671 12.4004C23.217 12.0004 23.6271 11.4304 23.837 10.7904C24.0471 10.1404 24.0471 9.44031 23.837 8.80042C23.6271 8.15039 23.217 7.59033 22.6671 7.19031C22.1171 6.79041 21.447 6.57031 20.7671 6.57031L16.3971 6.57031L15.067 2.43042C14.8571 1.7804 14.447 1.21033 13.8971 0.810425C13.347 0.410401 12.6771 0.190308 11.9971 0.190308C11.317 0.190308 10.6471 0.410401 10.097 0.810425C9.54712 1.21033 9.13708 1.7804 8.92712 2.43042L7.59705 6.57031L3.22705 6.57031C2.54712 6.57031 1.88708 6.79041 1.33704 7.19031C0.78711 7.59033 0.377075 8.15039 0.167114 8.80042C-0.0429687 9.44031 -0.0429687 10.1404 0.157105 10.7904C0.367066 11.4304 0.7771 12.0004 1.32703 12.4004L1.32703 12.4004L1.32703 12.4004Z"   fill="#374957" >
</path>
</g>
<defs>
<mask id="mask-HVj0iWCMgm5DmMOmL3HuP" style="mask-type:alpha" maskUnits="userSpaceOnUse">
<rect x="0" y="0" width="24" height="24"   fill="#000000" >
</rect>
<rect x="0" y="0" width="24" height="24"   fill="#000000" >
</rect>
</mask>
</defs>
</svg>
