<svg xmlns="http://www.w3.org/2000/svg" xmlns:xlink="http://www.w3.org/1999/xlink" width="24" height="24" viewBox="0 0 24 24" fill="none">
<g  mask="url(#mask-26_105)">
<path d="M23.837 8.79041C23.6271 8.14038 23.217 7.58032 22.6671 7.17041C22.1171 6.77039 21.447 6.56043 20.7671 6.57031L16.3971 6.57031L15.067 2.43042C14.8571 1.7804 14.447 1.21033 13.8971 0.810425C13.347 0.410401 12.6771 0.190308 11.9971 0.190308C11.317 0.190308 10.6471 0.410401 10.097 0.810425C9.54712 1.21033 9.13708 1.7804 8.92712 2.43042L7.59705 6.57031L3.22705 6.57031C2.54712 6.57031 1.88708 6.79041 1.33704 7.19031C0.78711 7.59033 0.377075 8.15039 0.167114 8.80042C-0.0429687 9.44031 -0.0429687 10.1404 0.157105 10.7904C0.367066 11.4304 0.7771 12.0004 1.32703 12.4004L4.88708 15.0004L3.5271 19.1903C3.31702 19.8403 3.30713 20.5404 3.5271 21.1903C3.73706 21.8403 4.1571 22.4104 4.71704 22.8004C5.26709 23.2103 5.93701 23.4304 6.61706 23.4204C7.30713 23.4204 7.96704 23.1903 8.51709 22.7804L11.9971 20.2203L15.4771 22.7804C16.0271 23.1804 16.697 23.4004 17.3771 23.4104C18.0571 23.4104 18.7271 23.2003 19.2771 22.8004C19.827 22.4004 20.2471 21.8303 20.457 21.1804C20.6671 20.5404 20.6671 19.8403 20.457 19.1903L19.1071 15.0004L22.6671 12.4004C23.2271 12.0004 23.6371 11.4403 23.847 10.7904C24.0571 10.1404 24.0471 9.44031 23.837 8.79041L23.837 8.79041ZM21.4871 10.7904L17.347 13.8104C17.1771 13.9403 17.0471 14.1103 16.9871 14.3104C16.9171 14.5104 16.9171 14.7303 16.9871 14.9304L18.5571 19.8004C18.6371 20.0504 18.6371 20.3104 18.5571 20.5604C18.4771 20.8104 18.317 21.0204 18.1071 21.1704C17.8971 21.3203 17.6471 21.4104 17.3871 21.4004C17.1271 21.4004 16.8771 21.3203 16.6671 21.1704L12.587 18.1704C12.4171 18.0404 12.207 17.9703 11.9971 17.9703C11.7871 17.9703 11.577 18.0404 11.4071 18.1704L7.32703 21.1704C7.11706 21.3203 6.86706 21.4104 6.60705 21.4104C6.34705 21.4104 6.08704 21.3303 5.87707 21.1804C5.66711 21.0304 5.50708 20.8104 5.42712 20.5604C5.34705 20.3203 5.34705 20.0504 5.42712 19.8004L7.00708 14.9304C7.07703 14.7303 7.07703 14.5104 7.00708 14.3104C6.94702 14.1103 6.81702 13.9403 6.64709 13.8104L2.50708 10.7904C2.29712 10.6304 2.13708 10.4204 2.05713 10.1704C1.97705 9.93042 1.97705 9.6604 2.06702 9.4104C2.14709 9.17041 2.29712 8.95032 2.50708 8.80042C2.71704 8.65039 2.96704 8.57031 3.22705 8.57031L8.32703 8.57031C8.53711 8.57031 8.74707 8.50037 8.91711 8.38037C9.08704 8.25037 9.21704 8.08032 9.2771 7.87036L10.827 3.04041C10.9071 2.80042 11.067 2.58032 11.2771 2.43042C11.4871 2.27039 11.7371 2.19031 11.9971 2.19031C12.2571 2.19031 12.5071 2.27039 12.717 2.43042C12.9271 2.58032 13.087 2.80042 13.1671 3.04041L14.717 7.87036C14.7771 8.08032 14.9071 8.25037 15.077 8.38037C15.2471 8.50037 15.457 8.57031 15.6671 8.57031L20.7671 8.57031C21.0271 8.57031 21.2771 8.65039 21.4871 8.80042C21.697 8.95032 21.8571 9.17041 21.937 9.4104C22.0171 9.6604 22.0171 9.93042 21.937 10.1704C21.8571 10.4204 21.697 10.6304 21.4871 10.7904L21.4871 10.7904L21.4871 10.7904Z"   fill="#374957" >
</path>
</g>
<defs>
<mask id="mask-26_105" style="mask-type:alpha" maskUnits="userSpaceOnUse">
<rect x="0" y="0" width="24" height="24"   fill="#000000" >
</rect>
<rect x="0" y="0" width="24" height="24"   fill="#000000" >
</rect>
</mask>
</defs>
</svg>
