<svg xmlns="http://www.w3.org/2000/svg" xmlns:xlink="http://www.w3.org/1999/xlink" width="15" height="15" viewBox="0 0 15 15" fill="none">
<g  mask="url(#mask-42_209)">
<path d="M7.5 0C5.76 0 4.0925 0.693744 2.86188 1.92498C1.63187 3.15628 0.939369 4.82498 0.9375 6.5625C0.9375 8.33125 2.31251 10.7937 5.02562 13.8813C5.33501 14.2312 5.71562 14.5125 6.1425 14.7063C6.56937 14.9 7.03251 15 7.50063 15C7.96875 15 8.43188 14.9 8.85875 14.7063C9.28563 14.5125 9.66625 14.2312 9.97563 13.8813C12.6875 10.7937 14.0625 8.33125 14.0625 6.5625C14.0606 4.82498 13.3681 3.15628 12.1381 1.92498C10.9075 0.693744 9.24 0 7.5 0L7.5 0L7.5 0ZM8.56625 12.6438C8.43 12.7937 8.265 12.9062 8.08125 12.9875C7.89813 13.0688 7.7 13.1062 7.5 13.1062C7.3 13.1062 7.10188 13.0688 6.91876 12.9875C6.735 12.9062 6.56999 12.7937 6.43376 12.6438C4.13187 10.025 2.80874 7.80625 2.80874 6.5625C2.80874 5.31876 3.3025 4.12499 4.18188 3.24997C5.06061 2.36877 6.25313 1.875 7.49625 1.875C8.73938 1.875 9.93188 2.36877 10.8106 3.24997C11.69 4.12499 12.1838 5.31876 12.1838 6.5625C12.1875 7.80625 10.8681 10.025 8.56625 12.6438L8.56625 12.6438Z"   fill="#374957" >
</path>
</g>
<g  mask="url(#mask-42_209)">
<path d="M7.50039 3.78467C6.96101 3.78467 6.43415 3.94092 5.98539 4.24091C5.53727 4.54089 5.18727 4.96585 4.98101 5.46588C4.77477 5.96591 4.72039 6.50966 4.82602 7.04089C4.93102 7.57213 5.19101 8.05339 5.57228 8.43463C5.95351 8.81588 6.43914 9.0784 6.96851 9.1846C7.49726 9.29088 8.0454 9.23465 8.54415 9.02835C9.04227 8.82213 9.4679 8.47217 9.76789 8.02211C10.0673 7.57213 10.2273 7.04715 10.2273 6.50966C10.2266 5.78464 9.93915 5.0909 9.4279 4.57836C8.91664 4.07214 8.22353 3.78467 7.50039 3.78467L7.50039 3.78467L7.50039 3.78467ZM7.50039 7.35965C7.33165 7.35965 7.16727 7.3096 7.02728 7.21591C6.88727 7.12215 6.77789 6.99084 6.71352 6.83459C6.64914 6.67834 6.63226 6.50966 6.66476 6.3409C6.69789 6.17839 6.77915 6.0284 6.8979 5.90335C7.01726 5.78464 7.16914 5.70339 7.33415 5.67211C7.49976 5.6409 7.67103 5.65967 7.82664 5.72216C7.98226 5.78464 8.1154 5.89709 8.20851 6.03466C8.30226 6.17839 8.35227 6.3409 8.35227 6.50966C8.35227 6.73465 8.26226 6.95339 8.10289 7.10964C7.9429 7.27214 7.72601 7.35965 7.50039 7.35965L7.50039 7.35965L7.50039 7.35965Z"   fill="#374957" >
</path>
</g>
<defs>
<mask id="mask-42_209" style="mask-type:alpha" maskUnits="userSpaceOnUse">
<rect x="0" y="0" width="15" height="15"   fill="#000000" >
</rect>
<rect x="0" y="0" width="15" height="15"   fill="#000000" >
</rect>
</mask>
</defs>
</svg>
