<svg xmlns="http://www.w3.org/2000/svg" xmlns:xlink="http://www.w3.org/1999/xlink" width="24" height="24.04248046875" viewBox="0 0 24 24.04248046875" fill="none">
<g  mask="url(#mask-V1h7iDLPlYgSjJmMgxlK9)">
<path d="M12 0.0424805C9.35403 0.0524903 6.81701 1.10242 4.94604 2.97241C3.07504 4.84241 2.02203 7.38245 2.01904 10.0225C2.01904 12.5924 4.00903 16.6124 7.93402 21.9824C8.40103 22.6225 9.01303 23.1425 9.72003 23.5025C10.426 23.8624 11.207 24.0425 12 24.0425C12.792 24.0425 13.574 23.8624 14.28 23.5025C14.987 23.1425 15.599 22.6225 16.066 21.9824C19.991 16.6124 21.981 12.5924 21.981 10.0225C21.978 7.38245 20.925 4.84241 19.054 2.97241C17.183 1.10242 14.646 0.0524903 12 0.0424805L12 0.0424805L12 0.0424805ZM12 14.0025C11.209 14.0025 10.435 13.7725 9.77804 13.3324C9.12002 12.8925 8.60702 12.2625 8.30401 11.5325C8.00204 10.8025 7.92202 10.0024 8.07702 9.22241C8.23102 8.44238 8.61203 7.73242 9.17202 7.17248C9.73102 6.61243 10.444 6.23242 11.22 6.0824C11.996 5.92248 12.8 6.00244 13.531 6.30249C14.262 6.61243 14.886 7.12244 15.326 7.78247C15.765 8.44238 16 9.2124 16 10.0024C16 11.0625 15.579 12.0824 14.828 12.8324C14.078 13.5824 13.061 14.0025 12 14.0025L12 14.0025Z"   fill="#374957" >
</path>
</g>
<defs>
<mask id="mask-V1h7iDLPlYgSjJmMgxlK9" style="mask-type:alpha" maskUnits="userSpaceOnUse">
<rect x="0" y="0" width="24" height="24"   fill="#000000" >
</rect>
<rect x="0" y="0" width="24" height="24"   fill="#000000" >
</rect>
</mask>
</defs>
</svg>
