<svg xmlns="http://www.w3.org/2000/svg" xmlns:xlink="http://www.w3.org/1999/xlink" width="24" height="24" viewBox="0 0 24 24" fill="none">
<path d="M2 0L13 0C14.1 0 15 0.89502 15 2L15 9C15 10.105 14.1 11 13 11L2 11C0.900024 11 0 10.105 0 9L0 2C0 0.89502 0.900024 0 2 0L2 0Z"   fill="#374957" >
</path>
<path d="M19 0L22 0C23.1 0 24 0.89502 24 2L24 9C24 10.105 23.1 11 22 11L19 11C17.9 11 17 10.105 17 9L17 2C17 0.89502 17.9 0 19 0L19 0Z"   fill="#374957" >
</path>
<path d="M2 13L5 13C6.09998 13 7 13.895 7 15L7 22C7 23.105 6.09998 24 5 24L2 24C0.900024 24 0 23.105 0 22L0 15C0 13.895 0.900024 13 2 13L2 13Z"   fill="#374957" >
</path>
<path d="M11 13L22 13C23.1 13 24 13.895 24 15L24 22C24 23.105 23.1 24 22 24L11 24C9.90002 24 9 23.105 9 22L9 15C9 13.895 9.90002 13 11 13L11 13Z"   fill="#374957" >
</path>
</svg>
