<svg xmlns="http://www.w3.org/2000/svg" xmlns:xlink="http://www.w3.org/1999/xlink" width="24" height="24.0048828125" viewBox="0 0 24 24.0048828125" fill="none">
<g  mask="url(#mask-9_272)">
<path d="M14.9998 24.0037C13.3198 24.0037 11.6578 23.6437 10.1228 22.9636C8.58678 22.2837 7.21178 21.2837 6.08577 20.0337C4.95078 18.7837 4.09478 17.3137 3.57477 15.7036C3.05377 14.1036 2.88077 12.4037 3.06577 10.7236C3.36478 8.11365 4.50278 5.67371 6.30977 3.77368C8.11678 1.86365 10.4948 0.593628 13.0848 0.153687C14.7588 -0.106323 16.4678 -0.036377 18.1158 0.363647C18.5478 0.473633 18.9408 0.693604 19.2568 1.01367C19.5728 1.32361 19.7988 1.71362 19.9118 2.14368C20.0248 2.58362 20.0208 3.03369 19.8998 3.46362C19.7788 3.89368 19.5458 4.27368 19.2238 4.58362C14.6638 8.75366 15.0598 15.2336 20.0308 18.9937C20.3828 19.2737 20.6538 19.6337 20.8158 20.0537C20.9788 20.4736 21.0268 20.9237 20.9548 21.3636C20.8838 21.8037 20.6948 22.2136 20.4098 22.5637C20.1238 22.9037 19.7518 23.1637 19.3308 23.3137C17.9328 23.7737 16.4708 24.0037 14.9998 24.0037L14.9998 24.0037L14.9998 24.0037Z"   fill="#374957" >
</path>
</g>
<defs>
<mask id="mask-9_272" style="mask-type:alpha" maskUnits="userSpaceOnUse">
<rect x="0" y="0.001220703125" width="24" height="24"   fill="#000000" >
</rect>
<rect x="0" y="0.001220703125" width="24" height="24"   fill="#000000" >
</rect>
</mask>
</defs>
</svg>
