<svg xmlns="http://www.w3.org/2000/svg" xmlns:xlink="http://www.w3.org/1999/xlink" width="24" height="24" viewBox="0 0 24 24" fill="none">
<g  mask="url(#mask-9_368)">
<path d="M23 11L18.92 11C18.842 10.45 18.698 9.91003 18.491 9.39001L22.018 7.34998C22.136 7.29004 22.24 7.19995 22.324 7.08997C22.408 6.98999 22.47 6.87 22.506 6.73999C22.543 6.60999 22.553 6.47998 22.536 6.34998C22.52 6.20996 22.477 6.07996 22.41 5.96997C22.343 5.84998 22.254 5.75 22.147 5.67004C22.04 5.58997 21.918 5.53003 21.788 5.5C21.658 5.46997 21.523 5.45996 21.391 5.47998C21.259 5.5 21.132 5.55005 21.018 5.62L17.488 7.67004C17.151 7.23999 16.765 6.84998 16.339 6.52002L18.385 2.97998C18.508 2.76001 18.537 2.48999 18.466 2.23999C18.395 1.98999 18.23 1.77002 18.005 1.64001C17.78 1.51001 17.513 1.47998 17.26 1.54004C17.008 1.59998 16.791 1.76001 16.654 1.97998L14.607 5.51001C14.091 5.30005 13.551 5.16003 13 5.07996L13 1C13 0.72998 12.895 0.47998 12.707 0.290039C12.52 0.109985 12.265 0 12 0C11.735 0 11.48 0.109985 11.293 0.290039C11.105 0.47998 11 0.72998 11 1L11 5.07996C10.449 5.16003 9.909 5.30005 9.39301 5.51001L7.349 1.97998C7.21201 1.76001 6.995 1.59998 6.74301 1.54004C6.48999 1.46997 6.22299 1.51001 5.99799 1.64001C5.77301 1.77002 5.608 1.97998 5.53699 2.22998C5.466 2.48999 5.495 2.75 5.61801 2.97998L7.664 6.52002C7.23801 6.84998 6.85199 7.23999 6.51501 7.67004L2.98499 5.62C2.871 5.55005 2.74399 5.5 2.612 5.47998C2.48001 5.45996 2.345 5.46997 2.215 5.5C2.08499 5.53003 1.96301 5.58997 1.85599 5.67004C1.75 5.75 1.66 5.84998 1.59299 5.96997C1.526 6.07996 1.483 6.20996 1.46701 6.34998C1.45001 6.47998 1.45999 6.60999 1.49701 6.73999C1.53299 6.87 1.595 6.98999 1.67899 7.08997C1.763 7.19995 1.867 7.29004 1.98499 7.34998L5.509 9.39001C5.302 9.91003 5.15799 10.45 5.07999 11L1 11C0.734985 11 0.480011 11.11 0.292999 11.29C0.105011 11.48 0 11.73 0 12C0 12.27 0.105011 12.52 0.292999 12.71C0.480011 12.89 0.734985 13 1 13L5.07999 13C5.15799 13.55 5.302 14.09 5.509 14.61L1.98199 16.65C1.86401 16.71 1.76001 16.8 1.67599 16.91C1.59201 17.01 1.53 17.13 1.49399 17.26C1.457 17.39 1.44699 17.52 1.46399 17.65C1.48001 17.79 1.52301 17.92 1.59 18.03C1.65701 18.15 1.746 18.25 1.853 18.33C1.95999 18.41 2.082 18.47 2.21201 18.5C2.34201 18.53 2.47699 18.54 2.60901 18.52C2.741 18.5 2.86801 18.45 2.98199 18.38L6.51199 16.33C6.849 16.76 7.23499 17.15 7.66101 17.48L5.61801 21.02C5.495 21.24 5.466 21.51 5.53699 21.76C5.608 22.01 5.77301 22.23 5.99799 22.36C6.22299 22.49 6.48999 22.52 6.74301 22.46C6.995 22.4 7.21201 22.24 7.349 22.02L9.39301 18.49C9.909 18.7 10.449 18.84 11 18.92L11 23C11 23.27 11.105 23.52 11.293 23.71C11.48 23.89 11.735 24 12 24C12.265 24 12.52 23.89 12.707 23.71C12.895 23.52 13 23.27 13 23L13 18.92C13.551 18.84 14.09 18.7 14.607 18.49L16.651 22.02C16.788 22.24 17.005 22.4 17.257 22.46C17.51 22.53 17.776 22.49 18.002 22.36C18.227 22.23 18.392 22.02 18.463 21.77C18.534 21.51 18.505 21.25 18.382 21.02L16.336 17.49C16.762 17.15 17.147 16.76 17.485 16.34L21.015 18.38C21.129 18.45 21.256 18.5 21.388 18.52C21.52 18.54 21.655 18.54 21.785 18.5C21.915 18.47 22.037 18.41 22.144 18.33C22.25 18.25 22.34 18.15 22.407 18.03C22.474 17.92 22.517 17.79 22.534 17.66C22.55 17.52 22.54 17.39 22.503 17.26C22.466 17.13 22.405 17.01 22.321 16.91C22.237 16.8 22.133 16.72 22.015 16.65L18.488 14.61C18.696 14.09 18.841 13.55 18.92 13L23 13C23.265 13 23.52 12.89 23.707 12.71C23.895 12.52 24 12.27 24 12C24 11.73 23.895 11.48 23.707 11.29C23.52 11.11 23.265 11 23 11L23 11Z"   fill="#374957" >
</path>
</g>
<defs>
<mask id="mask-9_368" style="mask-type:alpha" maskUnits="userSpaceOnUse">
<rect x="0" y="0" width="24" height="24"   fill="#000000" >
</rect>
<rect x="0" y="0" width="24" height="24"   fill="#000000" >
</rect>
</mask>
</defs>
</svg>
