<svg xmlns="http://www.w3.org/2000/svg" xmlns:xlink="http://www.w3.org/1999/xlink" width="24" height="24.009292602539062" viewBox="0 0 24 24.009292602539062" fill="none">
<g  mask="url(#mask-9bGHOHW6Cjs7HvRyCgJu5)">
<path d="M8.15955 7.99743C7.57947 7.98742 7.02954 7.77746 6.57947 7.40747C5.65955 6.55749 5.1095 5.38745 5.02954 4.13745C4.77954 1.64746 6.13953 0.17749 7.6095 0.017456C7.96949 -0.022583 8.32947 0.00744629 8.66956 0.107422C9.00953 0.207397 9.32947 0.377441 9.59949 0.607422C10.0095 0.977417 10.3395 1.42749 10.5795 1.91748C10.8096 2.41748 10.9495 2.95739 10.9795 3.50744C11.1995 5.82739 9.95948 7.99743 8.15955 7.99743L8.15955 7.99743ZM2.84949 13.9974C2.31946 13.9874 1.80957 13.7774 1.42957 13.4074C0.579468 12.5174 0.0894775 11.3674 0.029541 10.1374C-0.19043 7.64746 1.03955 6.17749 2.3595 6.01745C2.67957 5.97741 3.00953 6.00744 3.31946 6.11743C3.62952 6.2174 3.90955 6.38745 4.14954 6.60742C4.90955 7.38745 5.34949 8.41748 5.38953 9.50744C5.58948 11.8273 4.3595 13.9974 2.84949 13.9974L2.84949 13.9974ZM15.8395 7.99743C14.0295 7.99743 12.7996 5.82739 13.0295 3.50744C13.0596 2.95739 13.1894 2.41748 13.4296 1.91748C13.6595 1.41748 13.9995 0.977417 14.3995 0.607422C14.6796 0.377441 14.9895 0.207397 15.3395 0.107422C15.6796 0.00744629 16.0295 -0.022583 16.3895 0.017456C17.8495 0.17749 19.2095 1.64746 18.9695 4.13745C18.8895 5.38745 18.3395 6.55749 17.4095 7.40747C16.9695 7.77746 16.4095 7.98742 15.8395 7.99743L15.8395 7.99743L15.8395 7.99743ZM21.0496 13.9974C19.1695 13.9974 18.2295 11.8273 18.4394 9.50744C18.4795 8.40747 18.9394 7.37744 19.7195 6.60742C19.9695 6.37744 20.2595 6.20739 20.5795 6.10742C20.8995 6.00744 21.2295 5.97741 21.5596 6.00744C22.9296 6.17749 24.1995 7.64746 23.9695 10.1374C23.9095 11.3674 23.3895 12.5274 22.5195 13.3974C22.1195 13.7774 21.5995 13.9874 21.0496 13.9974L21.0496 13.9974L21.0496 13.9974ZM15.9995 23.9974C15.1495 24.0174 14.2996 23.8075 13.5496 23.3874C13.0695 23.1374 12.5395 23.0074 11.9995 23.0074C11.4595 23.0074 10.9296 23.1374 10.4495 23.3874C7.42957 25.0773 3.91956 23.2274 3.99952 18.9974C3.99952 14.3574 8.50953 9.99743 11.9995 9.99743C15.4895 9.99743 19.9995 14.3574 19.9995 18.9974C19.9995 21.9373 18.3495 23.9974 15.9995 23.9974L15.9995 23.9974Z"   fill="#374957" >
</path>
</g>
<defs>
<mask id="mask-9bGHOHW6Cjs7HvRyCgJu5" style="mask-type:alpha" maskUnits="userSpaceOnUse">
<rect x="0" y="0" width="24" height="24"   fill="#000000" >
</rect>
<rect x="0" y="0" width="24" height="24"   fill="#000000" >
</rect>
</mask>
</defs>
</svg>
