<svg xmlns="http://www.w3.org/2000/svg" xmlns:xlink="http://www.w3.org/1999/xlink" width="21" height="21" viewBox="0 0 21 21" fill="none">
<g  mask="url(#mask-41_575)">
<path d="M19.6875 13.5625C19.3392 13.5625 19.0059 13.7008 18.7592 13.9475C18.5133 14.1934 18.375 14.5267 18.375 14.875L18.375 16.1875C18.375 16.7676 18.1449 17.3241 17.7345 17.7345C17.3241 18.1449 16.7676 18.375 16.1875 18.375L14.875 18.375C14.5267 18.375 14.1934 18.5132 13.9466 18.76C13.7008 19.0059 13.5625 19.3392 13.5625 19.6875C13.5625 20.0357 13.7008 20.3691 13.9466 20.6158C14.1934 20.8617 14.5267 21 14.875 21L16.1875 21C17.4633 20.9991 18.6865 20.4916 19.5886 19.5886C20.4908 18.6865 20.9982 17.4632 21 16.1875L21 14.875C21 14.5267 20.8617 14.1934 20.6158 13.9475C20.3691 13.7008 20.0358 13.5625 19.6875 13.5625L19.6875 13.5625Z"   fill="#374957" >
</path>
</g>
<g  mask="url(#mask-41_575)">
<path d="M6.125 0L4.8125 0C3.53674 0.00176238 2.31348 0.509221 1.41136 1.41135C0.509224 2.31347 0.00176239 3.53672 0 4.81248L0 6.12497C0 6.47323 0.138267 6.80658 0.384148 7.05331C0.630882 7.29919 0.964241 7.43746 1.3125 7.43746C1.66076 7.43746 1.99412 7.29919 2.24085 7.05331C2.48673 6.80658 2.625 6.47323 2.625 6.12497L2.625 4.81248C2.625 4.23234 2.85512 3.67585 3.26549 3.26547C3.67587 2.85511 4.23236 2.62499 4.8125 2.62499L6.125 2.62499C6.47326 2.62499 6.80662 2.48672 7.05335 2.24084C7.29923 1.99411 7.4375 1.66075 7.4375 1.31249C7.4375 0.964236 7.29923 0.630879 7.05335 0.384146C6.80662 0.138267 6.47326 0 6.125 0L6.125 0L6.125 0Z"   fill="#374957" >
</path>
</g>
<g  mask="url(#mask-41_575)">
<path d="M6.125 18.375L4.8125 18.375C4.23236 18.375 3.67587 18.1449 3.26549 17.7345C2.85512 17.3241 2.625 16.7676 2.625 16.1875L2.625 14.875C2.625 14.5267 2.48673 14.1934 2.24085 13.9475C1.99412 13.7008 1.66076 13.5625 1.3125 13.5625C0.964241 13.5625 0.630882 13.7008 0.384148 13.9475C0.138267 14.1934 0 14.5267 0 14.875L0 16.1875C0.00176239 17.4632 0.509224 18.6865 1.41136 19.5886C2.31348 20.4916 3.53674 20.9991 4.8125 21L6.125 21C6.47326 21 6.80662 20.8617 7.05335 20.6158C7.29923 20.3691 7.4375 20.0357 7.4375 19.6875C7.4375 19.3392 7.29923 19.0059 7.05335 18.76C6.80662 18.5132 6.47326 18.375 6.125 18.375L6.125 18.375L6.125 18.375Z"   fill="#374957" >
</path>
</g>
<g  mask="url(#mask-41_575)">
<path d="M16.1875 0L14.875 0C14.5267 0 14.1934 0.138267 13.9466 0.384146C13.7008 0.630879 13.5625 0.964236 13.5625 1.31249C13.5625 1.66075 13.7008 1.99411 13.9466 2.24084C14.1934 2.48672 14.5267 2.62499 14.875 2.62499L16.1875 2.62499C16.7676 2.62499 17.3241 2.85511 17.7345 3.26547C18.1449 3.67585 18.375 4.23234 18.375 4.81248L18.375 6.12497C18.375 6.47323 18.5133 6.80658 18.7592 7.05331C19.0059 7.29919 19.3392 7.43746 19.6875 7.43746C20.0358 7.43746 20.3691 7.29919 20.6158 7.05331C20.8617 6.80658 21 6.47323 21 6.12497L21 4.81248C20.9982 3.53672 20.4908 2.31347 19.5886 1.41135C18.6865 0.509221 17.4633 0.00176238 16.1875 0L16.1875 0L16.1875 0Z"   fill="#374957" >
</path>
</g>
<defs>
<mask id="mask-41_575" style="mask-type:alpha" maskUnits="userSpaceOnUse">
<rect x="0" y="0" width="21" height="21"   fill="#000000" >
</rect>
<rect x="0" y="0" width="21" height="21"   fill="#000000" >
</rect>
</mask>
</defs>
</svg>
