<svg xmlns="http://www.w3.org/2000/svg" xmlns:xlink="http://www.w3.org/1999/xlink" width="24" height="24" viewBox="0 0 24 24" fill="none">
<g  mask="url(#mask-RzXq558p9o2eZTtUUsUdx)">
<path d="M1 6L23 6C23.265 6 23.52 5.89499 23.707 5.707C23.895 5.51999 24 5.26501 24 5C24 4.73498 23.895 4.48001 23.707 4.293C23.52 4.10501 23.265 4 23 4L1 4C0.734985 4 0.480011 4.10501 0.292999 4.293C0.105011 4.48001 0 4.73498 0 5C0 5.26501 0.105011 5.51999 0.292999 5.707C0.480011 5.89499 0.734985 6 1 6L1 6L1 6Z"   fill="#374957" >
</path>
</g>
<g  mask="url(#mask-RzXq558p9o2eZTtUUsUdx)">
<path d="M23 9L1 9C0.734985 9 0.480011 9.10501 0.292999 9.293C0.105011 9.48001 0 9.73499 0 10C0 10.265 0.105011 10.52 0.292999 10.707C0.480011 10.895 0.734985 11 1 11L23 11C23.265 11 23.52 10.895 23.707 10.707C23.895 10.52 24 10.265 24 10C24 9.73499 23.895 9.48001 23.707 9.293C23.52 9.10501 23.265 9 23 9L23 9Z"   fill="#374957" >
</path>
</g>
<g  mask="url(#mask-RzXq558p9o2eZTtUUsUdx)">
<path d="M23 19L1 19C0.734985 19 0.480011 19.105 0.292999 19.293C0.105011 19.48 0 19.735 0 20C0 20.265 0.105011 20.52 0.292999 20.707C0.480011 20.895 0.734985 21 1 21L23 21C23.265 21 23.52 20.895 23.707 20.707C23.895 20.52 24 20.265 24 20C24 19.735 23.895 19.48 23.707 19.293C23.52 19.105 23.265 19 23 19L23 19Z"   fill="#374957" >
</path>
</g>
<g  mask="url(#mask-RzXq558p9o2eZTtUUsUdx)">
<path d="M23 14L1 14C0.734985 14 0.480011 14.105 0.292999 14.293C0.105011 14.48 0 14.735 0 15C0 15.265 0.105011 15.52 0.292999 15.707C0.480011 15.895 0.734985 16 1 16L23 16C23.265 16 23.52 15.895 23.707 15.707C23.895 15.52 24 15.265 24 15C24 14.735 23.895 14.48 23.707 14.293C23.52 14.105 23.265 14 23 14L23 14Z"   fill="#374957" >
</path>
</g>
<defs>
<mask id="mask-RzXq558p9o2eZTtUUsUdx" style="mask-type:alpha" maskUnits="userSpaceOnUse">
<rect x="0" y="0" width="24" height="24"   fill="#000000" >
</rect>
<rect x="0" y="0" width="24" height="24"   fill="#000000" >
</rect>
</mask>
</defs>
</svg>
