<svg xmlns="http://www.w3.org/2000/svg" xmlns:xlink="http://www.w3.org/1999/xlink" width="24.0003662109375" height="24.000152587890625" viewBox="0 0 24.0003662109375 24.000152587890625" fill="none">
<g  mask="url(#mask-16_2)">
<path d="M13.0004 22.0001L13.0004 11.0001C13.0004 10.4701 13.2114 9.96012 13.5864 9.59012C13.9614 9.21012 14.4703 9.00012 15.0004 9.00012L22.0004 9.00012C22.5304 9.00012 23.0394 9.21012 23.4144 9.59012C23.7894 9.96012 24.0004 10.4701 24.0004 11.0001L24.0004 22.0001C24.0004 22.5302 23.7894 23.0402 23.4144 23.4102C23.0394 23.7902 22.5304 24.0001 22.0004 24.0001L15.0004 24.0001C14.4703 24.0001 13.9614 23.7902 13.5864 23.4102C13.2114 23.0402 13.0004 22.5302 13.0004 22.0001L13.0004 22.0001ZM22.0004 22.0001L22.0004 11.0001L15.0004 11.0001L15.0004 22.0001L22.0004 22.0001L22.0004 22.0001Z"   fill="#374957" >
</path>
</g>
<g  mask="url(#mask-16_2)">
<path d="M24.0004 2L24.0004 5C24.0004 5.53003 23.7894 6.04004 23.4144 6.41003C23.0394 6.79004 22.5304 7 22.0004 7L15.0004 7C14.4703 7 13.9614 6.79004 13.5864 6.41003C13.2114 6.04004 13.0004 5.53003 13.0004 5L13.0004 2C13.0004 1.46997 13.2114 0.95996 13.5864 0.58997C13.9614 0.20996 14.4703 0 15.0004 0L22.0004 0C22.5304 0 23.0394 0.20996 23.4144 0.58997C23.7894 0.95996 24.0004 1.46997 24.0004 2L24.0004 2L24.0004 2ZM15.0004 2L15.0004 5L22.0004 5L22.0004 2L15.0004 2L15.0004 2Z"   fill="#374957" >
</path>
</g>
<g  mask="url(#mask-16_2)">
<path d="M11 19.0001L11 22.0001C11 22.5302 10.789 23.0402 10.414 23.4102C10.039 23.7902 9.53003 24.0001 9 24.0001L2 24.0001C1.46899 24.0001 0.961 23.7902 0.585 23.4102C0.21 23.0402 0 22.5302 0 22.0001L0 19.0001C0 18.4701 0.21 17.9601 0.585 17.5901C0.961 17.2101 1.46899 17.0001 2 17.0001L9 17.0001C9.53003 17.0001 10.039 17.2101 10.414 17.5901C10.789 17.9601 11 18.4701 11 19.0001L11 19.0001ZM2 19.0001L2 22.0001L9 22.0001L9 19.0001L2 19.0001L2 19.0001Z"   fill="#374957" >
</path>
</g>
<g  mask="url(#mask-16_2)">
<path d="M11 2.00012L11 13.0001C11 13.5302 10.789 14.0402 10.414 14.4102C10.039 14.7902 9.53003 15.0001 9 15.0001L2 15.0001C1.46899 15.0001 0.961 14.7902 0.585 14.4102C0.21 14.0402 0 13.5302 0 13.0001L0 2.00012C0 1.47012 0.21 0.960122 0.585 0.590122C0.961 0.210122 1.46899 0.00012207 2 0.00012207L9 0.00012207C9.53003 0.00012207 10.039 0.210122 10.414 0.590122C10.789 0.960122 11 1.47012 11 2.00012L11 2.00012ZM2 2.00012L2 13.0001L9 13.0001L9 2.00012L2 2.00012L2 2.00012Z"   fill="#374957" >
</path>
</g>
<defs>
<mask id="mask-16_2" style="mask-type:alpha" maskUnits="userSpaceOnUse">
<rect transform="matrix(1.8369702788777518e-16, -1, -1, -1.8369702788777518e-16, 24.0003662109375, 24.0001220703125)" x="0" y="0" width="24" height="24"   fill="#000000" >
</rect>
<rect transform="matrix(1.8369702788777518e-16, -1, -1, -1.8369702788777518e-16, 24.0003662109375, 24.0001220703125)" x="0" y="0" width="24" height="24"   fill="#000000" >
</rect>
</mask>
</defs>
</svg>
