<svg xmlns="http://www.w3.org/2000/svg" xmlns:xlink="http://www.w3.org/1999/xlink" width="24" height="24" viewBox="0 0 24 24" fill="none">
<g  mask="url(#mask-17_2)">
<path d="M19 0L5 0C2.23999 0.00299072 0 2.23999 0 5L0 19C0 21.76 2.23999 23.997 5 24L19 24C21.76 23.997 24 21.76 24 19L24 5C24 2.23999 21.76 0.00299072 19 0L19 0ZM20 8.07901L10.75 17.333C9.96997 18.114 8.69995 18.115 7.92004 17.334C7.92004 17.333 7.92004 17.333 7.92004 17.333L4 13.417C3.60999 13.026 3.60999 12.391 4 12C4.39001 11.609 5.03003 11.609 5.42004 12L9.32996 15.916L18.59 6.66199C18.98 6.272 19.61 6.27301 20 6.664C20.39 7.056 20.39 7.689 20 8.07901L20 8.07901Z"   fill="#3DD598" >
</path>
</g>
<defs>
<mask id="mask-17_2" style="mask-type:alpha" maskUnits="userSpaceOnUse">
<rect x="0" y="0" width="24" height="24"   fill="#000000" >
</rect>
<rect x="0" y="0" width="24" height="24"   fill="#000000" >
</rect>
</mask>
</defs>
</svg>
