<svg xmlns="http://www.w3.org/2000/svg" xmlns:xlink="http://www.w3.org/1999/xlink" width="24.008102416992188" height="24" viewBox="0 0 24.008102416992188 24" fill="none">
<g  mask="url(#mask-LHIW7GI2a_0mix_8n42b3)">
<path d="M12.004 17.1699C11.347 17.1709 10.696 17.0429 10.0891 16.7919C9.48102 16.5419 8.92902 16.1739 8.46405 15.7099L0.294006 7.53995C0.106018 7.35193 0 7.09595 0 6.82993C0 6.56393 0.106018 6.30795 0.294006 6.11993C0.482056 5.93195 0.738037 5.82593 1.00403 5.82593C1.27002 5.82593 1.526 5.93195 1.71405 6.11993L9.88403 14.2899C10.447 14.8519 11.209 15.1669 12.004 15.1669C12.799 15.1669 13.562 14.8519 14.124 14.2899L22.294 6.11993C22.4821 5.93195 22.738 5.82593 23.004 5.82593C23.27 5.82593 23.526 5.93195 23.7141 6.11993C23.902 6.30795 24.0081 6.56393 24.0081 6.82993C24.0081 7.09595 23.902 7.35193 23.7141 7.53995L15.544 15.7099C15.079 16.1739 14.527 16.5419 13.919 16.7919C13.312 17.0429 12.661 17.1709 12.004 17.1699L12.004 17.1699L12.004 17.1699Z"   fill="#374957" >
</path>
</g>
<defs>
<mask id="mask-LHIW7GI2a_0mix_8n42b3" style="mask-type:alpha" maskUnits="userSpaceOnUse">
<rect x="0.00396728515625" y="0" width="24" height="24"   fill="#000000" >
</rect>
<rect x="0.00396728515625" y="0" width="24" height="24"   fill="#000000" >
</rect>
</mask>
</defs>
</svg>
