<svg xmlns="http://www.w3.org/2000/svg" xmlns:xlink="http://www.w3.org/1999/xlink" width="24.00006103515625" height="24.000640869140625" viewBox="0 0 24.00006103515625 24.000640869140625" fill="none">
<g  mask="url(#mask-11_2)">
<path d="M5.1 24.0005L18.9 24.0005C20.24 24.0105 21.53 23.4905 22.48 22.5606C23.44 21.6205 23.99 20.3405 24 19.0005L24 16.0005C24 15.7405 23.89 15.4805 23.71 15.2905C23.52 15.1105 23.27 15.0005 23 15.0005C22.73 15.0005 22.48 15.1105 22.29 15.2905C22.11 15.4805 22 15.7405 22 16.0005L22 19.0005C21.99 19.8106 21.65 20.5804 21.07 21.1405C20.49 21.7004 19.71 22.0105 18.9 22.0005L5.1 22.0005C4.29 22.0105 3.51 21.7004 2.9301 21.1405C2.35 20.5804 2.01 19.8106 2 19.0005L2 5.00051C2.01 4.19041 2.35 3.42051 2.9301 2.86051C3.51 2.30051 4.29 1.99051 5.1 2.00051L18.9 2.00051C19.71 1.99051 20.49 2.30051 21.07 2.86051C21.65 3.42051 21.99 4.19041 22 5.00051L22 8.00051C22 8.27051 22.11 8.52051 22.29 8.71041C22.48 8.90051 22.73 9.00051 23 9.00051C23.27 9.00051 23.52 8.90051 23.71 8.71041C23.89 8.52051 24 8.27051 24 8.00051L24 5.00051C23.99 3.66051 23.44 2.38051 22.48 1.45041C21.53 0.510511 20.24 -0.00948715 18.9 0.000513077L5.1 0.000513077C3.76 -0.00948715 2.47 0.510511 1.52 1.45041C0.560102 2.38051 0.0100021 3.66051 1.90735e-06 5.00051L1.90735e-06 19.0005C0.0100021 20.3405 0.560102 21.6205 1.52 22.5606C2.47 23.4905 3.76 24.0105 5.1 24.0005L5.1 24.0005L5.1 24.0005Z"   fill="#374957" >
</path>
</g>
<g  mask="url(#mask-11_2)">
<path d="M21 11.9986C21 11.7386 20.89 11.4786 20.71 11.2886C20.52 11.1086 20.27 10.9986 20 10.9986L6.8101 11.0286L11.14 6.70859C11.23 6.61859 11.3101 6.50859 11.36 6.37859C11.41 6.25859 11.4399 6.12859 11.4399 5.99859C11.4399 5.85859 11.42 5.72859 11.37 5.60859C11.32 5.48859 11.24 5.37859 11.15 5.27859C11.0501 5.18859 10.9399 5.10859 10.8199 5.05869C10.7 5.00859 10.5601 4.98859 10.4301 4.98859C10.3 4.98859 10.17 5.01859 10.05 5.06859C9.92 5.11859 9.8101 5.19859 9.72 5.28859L5.14 9.8786C4.5699 10.4385 4.26 11.2086 4.26 11.9986C4.26 12.7986 4.5699 13.5587 5.14 14.1186L9.72 18.7086C9.91 18.8886 10.16 18.9886 10.42 18.9886C10.6801 18.9886 10.9399 18.8786 11.12 18.6985C11.3101 18.5086 11.41 18.2586 11.41 17.9986C11.42 17.7286 11.32 17.4786 11.13 17.2886L6.87 13.0286L20 12.9986C20.27 12.9986 20.52 12.8986 20.71 12.7086C20.89 12.5186 21 12.2686 21 11.9986L21 11.9986L21 11.9986Z"   fill="#374957" >
</path>
</g>
<defs>
<mask id="mask-11_2" style="mask-type:alpha" maskUnits="userSpaceOnUse">
<rect x="24" y="24" width="24" height="24" transform="rotate(-179.99999994727 24 24)"   fill="#000000" >
</rect>
<rect x="24" y="24" width="24" height="24" transform="rotate(-179.99999994727 24 24)"   fill="#000000" >
</rect>
</mask>
</defs>
</svg>
