<svg xmlns="http://www.w3.org/2000/svg" xmlns:xlink="http://www.w3.org/1999/xlink" width="16" height="16" viewBox="0 0 16 16" fill="none">
<g  mask="url(#mask-42_203)">
<path d="M10.503 6.34999L7.44303 3.29266C7.25635 3.10533 7.00301 3 6.73633 3C6.47632 3 6.21631 3.10533 6.0297 3.29333C5.84302 3.48067 5.73633 3.73533 5.73633 4C5.73633 4.26534 5.84302 4.52 6.0297 4.70733L9.08968 7.764C9.12305 7.79466 9.14299 7.83199 9.163 7.87201C9.17635 7.91266 9.18969 7.95599 9.18969 8C9.18969 8.04401 9.17635 8.08734 9.163 8.12799C9.14299 8.168 9.12305 8.20534 9.08968 8.236L6.0297 11.2927C5.84302 11.48 5.73633 11.7347 5.73633 12C5.73633 12.2647 5.84302 12.5193 6.0297 12.7067C6.21631 12.8947 6.47632 13 6.73633 13C7.00301 13 7.25635 12.8947 7.44303 12.7073L10.503 9.65001C10.943 9.21199 11.183 8.61867 11.183 8C11.183 7.38133 10.943 6.78801 10.503 6.34999L10.503 6.34999L10.503 6.34999Z"   fill="#374957" >
</path>
</g>
<defs>
<mask id="mask-42_203" style="mask-type:alpha" maskUnits="userSpaceOnUse">
<rect x="0" y="0" width="16" height="16"   fill="#000000" >
</rect>
<rect x="0" y="0" width="16" height="16"   fill="#000000" >
</rect>
</mask>
</defs>
</svg>
