<svg xmlns="http://www.w3.org/2000/svg" xmlns:xlink="http://www.w3.org/1999/xlink" width="12.3134765625" height="5" viewBox="0 0 12.3134765625 5" fill="none">
<path   fill="rgba(0, 0, 0, 1)"  d="M0.146331 4.14645L2.97476 1.31803L3.32831 1.67158L2.97476 1.31803C4.73212 -0.439333 7.58136 -0.439333 9.33872 1.31803L8.98517 1.67158L9.33872 1.31803L12.1671 4.14645L11.46 4.85356L8.63161 2.02513L8.63161 2.02513C7.26478 0.658298 5.0487 0.658298 3.68186 2.02513L3.68186 2.02513L0.853437 4.85356L0.146331 4.14645ZM12.1671 4.14645C12.3624 4.34171 12.3624 4.6583 12.1671 4.85356C11.9719 5.04882 11.6553 5.04882 11.46 4.85356C11.2648 4.6583 11.2648 4.34172 11.46 4.14645C11.6553 3.95119 11.9719 3.95119 12.1671 4.14645ZM0.853437 4.14645C1.0487 4.34172 1.0487 4.6583 0.853437 4.85356C0.658175 5.04882 0.341593 5.04882 0.146331 4.85356C-0.0489311 4.6583 -0.0489311 4.34171 0.146331 4.14645C0.341593 3.95119 0.658175 3.95119 0.853437 4.14645Z">
</path>
</svg>
