<svg xmlns="http://www.w3.org/2000/svg" xmlns:xlink="http://www.w3.org/1999/xlink" width="24" height="24" viewBox="0 0 24 24" fill="none">
<g  mask="url(#mask-22_2)">
<path d="M22.4988 18.0002C22.2988 18.0002 22.1087 17.9612 21.9288 17.8862C21.7387 17.8102 21.5787 17.6992 21.4387 17.5602L13.7688 9.88925C13.5388 9.65726 13.2588 9.47324 12.9587 9.34723C12.6488 9.22125 12.3287 9.15726 11.9988 9.15726C11.6688 9.15726 11.3487 9.22125 11.0388 9.34723C10.7387 9.47324 10.4587 9.65726 10.2287 9.88925L2.56873 17.5512C2.28882 17.8242 1.90881 17.9752 1.5188 17.9722C1.11877 17.9692 0.748779 17.8112 0.46875 17.5332C0.18872 17.2552 0.0288086 16.8782 0.0288086 16.4852C0.0187988 16.0923 0.178833 15.7133 0.44873 15.4302L8.10876 7.76825C9.13879 6.73825 10.5388 6.15924 11.9988 6.15924C13.4587 6.15924 14.8587 6.73825 15.8888 7.76825L23.5588 15.4403C23.7688 15.6502 23.9088 15.9172 23.9687 16.2082C24.0288 16.4992 23.9988 16.8002 23.8888 17.0742C23.7688 17.3482 23.5787 17.5822 23.3287 17.7472C23.0887 17.9122 22.7988 18.0002 22.4988 18.0002L22.4988 18.0002Z"   fill="#DAE2E6" >
</path>
</g>
<defs>
<mask id="mask-22_2" style="mask-type:alpha" maskUnits="userSpaceOnUse">
<rect x="0" y="0" width="24" height="24"   fill="#000000" >
</rect>
<rect x="0" y="0" width="24" height="24"   fill="#000000" >
</rect>
</mask>
</defs>
</svg>
