<svg xmlns="http://www.w3.org/2000/svg" xmlns:xlink="http://www.w3.org/1999/xlink" width="24.010009765625" height="24" viewBox="0 0 24.010009765625 24" fill="none">
<g  mask="url(#mask-ASLj4jeU0NZCt1yHjDqwF)">
<path d="M23.71 16.2901L15.54 8.12005C15.08 7.65405 14.52 7.28507 13.92 7.03305C13.3101 6.78107 12.66 6.65106 12 6.65106C11.34 6.65106 10.6899 6.78107 10.08 7.03305C9.47998 7.28507 8.92004 7.65405 8.45996 8.12005L0.290039 16.2901C0.0999756 16.4781 0 16.7341 0 17.0001C0 17.2661 0.0999756 17.5221 0.290039 17.7101C0.47998 17.8981 0.72998 18.0041 1 18.0041C1.27002 18.0041 1.52002 17.8981 1.70996 17.7101L9.88 9.54007C10.4399 8.97806 11.21 8.66305 12 8.66305C12.8 8.66305 13.5601 8.97806 14.12 9.54007L22.29 17.7101C22.38 17.8041 22.49 17.8781 22.62 17.9291C22.74 17.9801 22.87 18.0061 23 18.0061C23.13 18.0061 23.26 17.9801 23.38 17.9291C23.51 17.8781 23.62 17.8041 23.71 17.7101C23.8 17.6171 23.88 17.5061 23.9301 17.3851C23.98 17.2631 24.01 17.1321 24.01 17.0001C24.01 16.8681 23.98 16.7371 23.9301 16.6151C23.88 16.4941 23.8 16.3831 23.71 16.2901L23.71 16.2901L23.71 16.2901Z"   fill="#374957" >
</path>
</g>
<defs>
<mask id="mask-ASLj4jeU0NZCt1yHjDqwF" style="mask-type:alpha" maskUnits="userSpaceOnUse">
<rect x="0.0040283203125" y="0" width="24" height="24"   fill="#000000" >
</rect>
<rect x="0.0040283203125" y="0" width="24" height="24"   fill="#000000" >
</rect>
</mask>
</defs>
</svg>
