<svg xmlns="http://www.w3.org/2000/svg" xmlns:xlink="http://www.w3.org/1999/xlink" width="24" height="24" viewBox="0 0 24 24" fill="none">
<g  mask="url(#mask-10_2)">
<path d="M22.4 8.39L15.47 1.46C14.531 0.529949 13.256 0 11.93 0C10.604 0 9.32899 0.529949 8.39 1.46L1.46 8.39C0.523003 9.33007 0 10.6 0 11.93C0 13.2499 0.523003 14.5299 1.46 15.46L8.39 22.4C9.32899 23.3301 10.604 23.86 11.93 23.86C13.256 23.86 14.531 23.3301 15.47 22.4L22.4 15.46C23.337 14.5299 23.86 13.2499 23.86 11.93C23.86 10.6 23.337 9.33007 22.4 8.39Z" fill-rule="evenodd"  fill="#374957" >
</path>
<path     fill="#FFFFFF"  d="M15.89 9C16.153 9 16.404 9.10995 16.59 9.29C16.775 9.47994 16.89 9.72999 16.89 9.99C16.89 10.25 16.782 10.5101 16.6 10.69L12.34 14.97C12.165 15.1501 11.72 15.38 11.72 15.38C11.491 15.4699 11.248 15.52 11 15.52L10.97 15.52C10.717 15.52 10.461 15.46 10.23 15.36C9.99902 15.2601 9.792 15.11 9.62 14.92L7.32 12.52C7.22 12.4299 7.13499 12.32 7.08 12.19C7.02499 12.07 7 11.93 7 11.8C7 11.6601 7.027 11.53 7.08 11.4C7.133 11.28 7.20201 11.1601 7.3 11.07C7.39801 10.97 7.523 10.9001 7.65 10.85C7.77799 10.81 7.914 10.78 8.05 10.79C8.186 10.79 8.31699 10.8299 8.44 10.89C8.56201 10.9499 8.672 11.04 8.76 11.14L11 13.48L15.19 9.28C15.379 9.09995 15.628 9 15.89 9Z">
</path>
</g>
<defs>
<mask id="mask-10_2" style="mask-type:alpha" maskUnits="userSpaceOnUse">
<rect x="0" y="0" width="24" height="24"   fill="#000000" >
</rect>
<rect x="0" y="0" width="24" height="24"   fill="#000000" >
</rect>
</mask>
</defs>
</svg>
