<svg xmlns="http://www.w3.org/2000/svg" xmlns:xlink="http://www.w3.org/1999/xlink" width="24" height="24" viewBox="0 0 24 24" fill="none">
<g  mask="url(#mask-NT-wIPJ5LmzM6-km9gjiI)">
<path d="M11.9999 23.9315C11.3429 23.9315 10.6929 23.8015 10.0859 23.5515C9.47895 23.3015 8.92794 22.9315 8.46395 22.4714L1.53394 15.5315C0.596939 14.6014 0.0699463 13.3214 0.0699463 12.0015C0.0699463 10.6715 0.596939 9.40149 1.53394 8.46142L8.46395 1.53149C9.40294 0.60144 10.6739 0.0714111 11.9999 0.0714111C13.3259 0.0714111 14.5969 0.60144 15.5359 1.53149L22.4659 8.46142C23.4029 9.40149 23.9299 10.6715 23.9299 12.0015C23.9299 13.3214 23.4029 14.6014 22.4659 15.5315L15.5359 22.4714C15.0719 22.9315 14.5199 23.3015 13.9139 23.5515C13.3069 23.8015 12.6559 23.9315 11.9999 23.9315L11.9999 23.9315L11.9999 23.9315ZM11.9999 2.07141C11.6059 2.07141 11.2159 2.15149 10.8509 2.30151C10.4869 2.45141 10.1559 2.67151 9.87795 2.95141L2.94794 9.88147C2.38494 10.4414 2.06995 11.2014 2.06995 12.0015C2.06995 12.7915 2.38494 13.5615 2.94794 14.1214L9.87795 21.0515C10.1559 21.3314 10.4869 21.5515 10.8509 21.7014C11.2149 21.8514 11.6059 21.9315 11.9999 21.9315C12.3939 21.9315 12.7839 21.8514 13.1479 21.7014C13.5119 21.5515 13.8429 21.3314 14.1219 21.0515L21.0519 14.1214C21.6139 13.5615 21.9299 12.7915 21.9299 12.0015C21.9299 11.2014 21.6139 10.4414 21.0519 9.88147L14.1219 2.95141C13.8429 2.67151 13.5129 2.45141 13.1479 2.30151C12.7839 2.15149 12.3939 2.07141 11.9999 2.07141L11.9999 2.07141L11.9999 2.07141Z"   fill="#374957" >
</path>
</g>
<defs>
<mask id="mask-NT-wIPJ5LmzM6-km9gjiI" style="mask-type:alpha" maskUnits="userSpaceOnUse">
<rect x="0" y="0" width="24" height="24"   fill="#000000" >
</rect>
<rect x="0" y="0" width="24" height="24"   fill="#000000" >
</rect>
</mask>
</defs>
</svg>
