<svg xmlns="http://www.w3.org/2000/svg" xmlns:xlink="http://www.w3.org/1999/xlink" width="24.00164794921875" height="24.024139404296875" viewBox="0 0 24.00164794921875 24.024139404296875" fill="none">
<g  mask="url(#mask-4HKkpnVU4z_5xdxvboMkL)">
<path d="M24.0016 11.2711C23.8616 8.93109 23.0316 6.68512 21.6216 4.80908C20.2216 2.93311 18.2916 1.50909 16.0916 0.713135C13.8816 -0.0828857 11.4916 -0.215881 9.21155 0.331116C6.93164 0.877136 4.86157 2.07812 3.2616 3.78711C1.65161 5.49512 0.581543 7.63611 0.181641 9.94611C-0.228394 12.2551 0.0616455 14.6321 0.991577 16.7841C1.92163 18.9351 3.46155 20.7671 5.42163 22.0541C7.38159 23.3401 9.67163 24.0251 12.0216 24.0241L19.0016 24.0241C20.3315 24.0231 21.6016 23.4961 22.5316 22.5581C23.4716 21.6211 24.0016 20.3501 24.0016 19.0241L24.0016 11.2711L24.0016 11.2711ZM22.0016 19.0241C22.0016 19.8201 21.6816 20.5831 21.1216 21.1451C20.5616 21.7081 19.8016 22.0241 19.0016 22.0241L12.0216 22.0241C10.6116 22.0241 9.21155 21.7251 7.92163 21.1491C6.63159 20.5731 5.48157 19.7321 4.54163 18.6811C3.59155 17.6311 2.88159 16.3901 2.46155 15.0421C2.03162 13.6941 1.90161 12.2711 2.06165 10.8671C2.33154 8.65314 3.33154 6.59009 4.8916 5.00409C6.46155 3.41809 8.5116 2.39813 10.7216 2.10608C11.1516 2.05212 11.5916 2.02509 12.0216 2.02411C14.3516 2.01813 16.6116 2.83209 18.4016 4.3241C19.4515 5.19312 20.3016 6.26514 20.9216 7.47614C21.5416 8.6861 21.9116 10.0101 22.0016 11.3661L22.0016 19.0241L22.0016 19.0241Z"   fill="#374957" >
</path>
</g>
<g  mask="url(#mask-4HKkpnVU4z_5xdxvboMkL)">
<path d="M8.00122 9.02362L12.0012 9.02362C12.2712 9.02362 12.5212 8.9176 12.7112 8.73059C12.8912 8.5426 13.0012 8.28863 13.0012 8.02362C13.0012 7.75861 12.8912 7.5036 12.7112 7.31665C12.5212 7.1286 12.2712 7.02362 12.0012 7.02362L8.00122 7.02362C7.7312 7.02362 7.4812 7.1286 7.29126 7.31665C7.11121 7.5036 7.00122 7.75861 7.00122 8.02362C7.00122 8.28863 7.11121 8.5426 7.29126 8.73059C7.4812 8.9176 7.7312 9.02362 8.00122 9.02362L8.00122 9.02362Z"   fill="#374957" >
</path>
</g>
<g  mask="url(#mask-4HKkpnVU4z_5xdxvboMkL)">
<path d="M16.0012 11.024L8.00122 11.024C7.7312 11.024 7.4812 11.13 7.29126 11.317C7.11121 11.505 7.00122 11.759 7.00122 12.024C7.00122 12.289 7.11121 12.544 7.29126 12.731C7.4812 12.919 7.7312 13.024 8.00122 13.024L16.0012 13.024C16.2712 13.024 16.5212 12.919 16.7112 12.731C16.8912 12.544 17.0012 12.289 17.0012 12.024C17.0012 11.759 16.8912 11.505 16.7112 11.317C16.5212 11.13 16.2712 11.024 16.0012 11.024L16.0012 11.024Z"   fill="#374957" >
</path>
</g>
<g  mask="url(#mask-4HKkpnVU4z_5xdxvboMkL)">
<path d="M16.0012 15.0238L8.00122 15.0238C7.7312 15.0238 7.4812 15.1288 7.29126 15.3168C7.11121 15.5038 7.00122 15.7588 7.00122 16.0238C7.00122 16.2888 7.11121 16.5438 7.29126 16.7308C7.4812 16.9188 7.7312 17.0238 8.00122 17.0238L16.0012 17.0238C16.2712 17.0238 16.5212 16.9188 16.7112 16.7308C16.8912 16.5438 17.0012 16.2888 17.0012 16.0238C17.0012 15.7588 16.8912 15.5038 16.7112 15.3168C16.5212 15.1288 16.2712 15.0238 16.0012 15.0238L16.0012 15.0238Z"   fill="#374957" >
</path>
</g>
<defs>
<mask id="mask-4HKkpnVU4z_5xdxvboMkL" style="mask-type:alpha" maskUnits="userSpaceOnUse">
<rect x="0.0013427734375" y="0.0238037109375" width="24" height="24"   fill="#000000" >
</rect>
<rect x="0.0013427734375" y="0.0238037109375" width="24" height="24"   fill="#000000" >
</rect>
</mask>
</defs>
</svg>
