<svg xmlns="http://www.w3.org/2000/svg" xmlns:xlink="http://www.w3.org/1999/xlink" width="24.000244140625" height="24.010025024414062" viewBox="0 0 24.000244140625 24.010025024414062" fill="none">
<g  mask="url(#mask-i3k4QTqnJ_pYYtZ8Zbn_6)">
<path d="M8.15771 7.99817C7.57764 7.98816 7.02771 7.7782 6.58765 7.40821C5.65771 6.55823 5.10767 5.38819 5.02771 4.1482C4.78772 1.6482 6.14771 0.178223 7.60767 0.0181885C7.96765 -0.0218505 8.32764 0.00817871 8.66772 0.108155C9.00769 0.20813 9.32764 0.378174 9.59766 0.608155C10.0077 0.97815 10.3376 1.42823 10.5776 1.91822C10.8077 2.41822 10.9476 2.95813 10.9777 3.50818C11.1976 5.83814 10.1277 7.99817 8.15771 7.99817L8.15771 7.99817ZM7.83765 1.99817C7.25769 2.05823 6.91772 2.87818 7.0177 3.94812C7.04773 4.65821 7.33765 5.33814 7.84766 5.84815C7.93762 5.93811 8.06763 5.98816 8.19763 5.99817C8.54773 5.95813 9.11768 5.05823 8.97766 3.69812C8.6377 1.82813 7.85767 1.99817 7.83765 2.00818L7.83765 1.99817L7.83765 1.99817ZM3.15771 13.9982C2.57764 13.9882 2.02771 13.7782 1.58765 13.4082C0.657715 12.5583 0.107666 11.3882 0.02771 10.1482C-0.21228 7.6482 1.14771 6.17823 2.60767 6.01819C2.96765 5.97815 3.32764 6.00818 3.66772 6.10816C4.00769 6.20813 4.32764 6.37818 4.59766 6.60816C5.00769 6.97815 5.33765 7.42823 5.57764 7.91822C5.80774 8.41822 5.94763 8.95813 5.97766 9.50818C6.19763 11.8382 5.07764 13.9982 3.15771 13.9982L3.15771 13.9982ZM2.83765 7.99817C2.25769 8.05823 1.91772 8.87818 2.0177 9.94812C2.04773 10.6582 2.33765 11.3382 2.84766 11.8482C2.93762 11.9381 3.06763 11.9882 3.19763 11.9982C3.54773 11.9582 4.11768 11.0583 3.97766 9.69812C3.71765 7.86817 2.85767 7.99817 2.83765 8.00818L2.83765 7.99817L2.83765 7.99817ZM15.8376 7.99817C14.1277 8.00818 12.7977 5.82813 13.0277 3.50818C13.0577 2.95813 13.1876 2.41822 13.4277 1.91822C13.6577 1.41822 13.9977 0.97815 14.4077 0.608155C14.6777 0.378174 14.9977 0.20813 15.3376 0.108155C15.6777 0.00817871 16.0277 -0.0218505 16.3877 0.0181885C17.8577 0.178223 19.2177 1.6482 18.9677 4.1482C18.8877 5.38819 18.3376 6.55823 17.4177 7.40821C16.9677 7.7782 16.4177 7.98816 15.8376 7.99817L15.8376 7.99817L15.8376 7.99817ZM15.0177 3.69812C14.8877 5.05823 15.4476 5.95813 15.7977 5.99817C15.9277 5.98816 16.0577 5.93811 16.1577 5.85816C16.6577 5.34815 16.9476 4.66822 16.9777 3.95813C17.1876 1.32813 15.1976 1.50818 15.0177 3.69812L15.0177 3.69812ZM20.8376 13.9982C18.9677 13.9982 17.7977 11.8281 18.0277 9.50818C18.0577 8.95813 18.1876 8.41822 18.4277 7.91822C18.6577 7.41822 18.9977 6.97815 19.4077 6.60816C19.6777 6.37818 19.9977 6.20813 20.3376 6.10816C20.6777 6.00818 21.0277 5.97815 21.3877 6.00818C22.8577 6.17823 24.2177 7.6482 23.9677 10.1382C23.8877 11.3882 23.3376 12.5583 22.4177 13.3982C21.9677 13.7782 21.4177 13.9882 20.8376 13.9982L20.8376 13.9982L20.8376 13.9982ZM20.0177 9.69812C19.8877 11.0583 20.4476 11.9582 20.7977 11.9982C20.9277 11.9882 21.0577 11.9381 21.1577 11.8582C21.6577 11.3482 21.9476 10.6682 21.9777 9.95813C22.0776 8.88819 21.7377 8.06812 21.1577 8.00818C21.1377 7.99817 20.1177 7.90821 20.0177 9.69812L20.0177 9.69812ZM15.9977 23.9982C15.1477 24.0182 14.2977 23.8083 13.5477 23.3882C13.0676 23.1382 12.5377 23.0082 11.9977 23.0082C11.4576 23.0082 10.9277 23.1382 10.4476 23.3882C7.42773 25.0781 3.91772 23.2282 3.99768 18.9982C3.99768 14.3682 8.50769 9.99817 11.9977 9.99817C15.4877 9.99817 19.9977 14.3582 19.9977 18.9982C19.9977 21.9381 18.3577 23.9982 15.9977 23.9982L15.9977 23.9982ZM11.9977 20.9982C12.8477 20.9782 13.6976 21.1881 14.4476 21.6082C16.6777 22.8181 18.0377 21.1682 17.9977 18.9982C17.9977 15.6182 14.4777 11.9982 11.9977 11.9982C9.5177 11.9982 5.99768 15.6182 5.99768 18.9982C5.96765 21.1682 7.30774 22.8181 9.54773 21.6082C10.2977 21.1881 11.1477 20.9782 11.9977 20.9982L11.9977 20.9982Z"   fill="#374957" >
</path>
</g>
<defs>
<mask id="mask-i3k4QTqnJ_pYYtZ8Zbn_6" style="mask-type:alpha" maskUnits="userSpaceOnUse">
<rect x="0.000244140625" y="0" width="24" height="24"   fill="#000000" >
</rect>
<rect x="0.000244140625" y="0" width="24" height="24"   fill="#000000" >
</rect>
</mask>
</defs>
</svg>
