<svg xmlns="http://www.w3.org/2000/svg" xmlns:xlink="http://www.w3.org/1999/xlink" width="24" height="24" viewBox="0 0 24 24" fill="none">
<g  mask="url(#mask-l8kfvEdxAgG6b6bRRTQu_)">
<path d="M22.8501 1.14795C22.1701 0.467896 21.2501 0.0878906 20.2901 0.0878906C19.3301 0.0878906 18.4101 0.467896 17.7301 1.14795L1.47009 17.408C1.00012 17.8779 0.630127 18.428 0.380127 19.028C0.130127 19.6379 0.00012207 20.288 0.00012207 20.9479L0.00012207 22.9979C0.00012207 23.268 0.110107 23.518 0.290161 23.7079C0.480102 23.8879 0.730102 23.9979 1.00012 23.9979L3.05017 23.9979C3.71008 23.9979 4.36011 23.8679 4.97009 23.6179C5.57007 23.3679 6.12012 22.9979 6.59009 22.538L22.8501 6.26794C23.5301 5.58789 23.9101 4.66797 23.9101 3.70789C23.9101 2.74792 23.5301 1.82788 22.8501 1.14795L22.8501 1.14795L22.8501 1.14795ZM5.17016 21.1179C4.61011 21.678 3.8501 21.9979 3.05017 21.9979L2.00012 21.9979L2.00012 20.9479C2.00012 20.548 2.08008 20.158 2.2301 19.798C2.38012 19.428 2.6001 19.0979 2.88012 18.8279L15.2201 6.4779L17.5201 8.77795L5.17016 21.1179L5.17016 21.1179ZM21.44 4.85791L18.9302 7.35791L16.6301 5.06787L19.1401 2.55798C19.2901 2.40796 19.4701 2.28796 19.6701 2.20789C19.8601 2.12793 20.0801 2.08789 20.2901 2.08789C20.5001 2.08789 20.7101 2.12793 20.9101 2.20789C21.1101 2.28796 21.2901 2.40796 21.44 2.55798C21.5901 2.71789 21.7101 2.88794 21.7901 3.08789C21.8701 3.28796 21.9101 3.49792 21.9101 3.70789C21.9101 3.92798 21.8701 4.13794 21.7901 4.33789C21.7101 4.52795 21.5901 4.70789 21.4302 4.85791L21.44 4.85791L21.44 4.85791Z"   fill="#374957" >
</path>
</g>
<defs>
<mask id="mask-l8kfvEdxAgG6b6bRRTQu_" style="mask-type:alpha" maskUnits="userSpaceOnUse">
<rect x="0" y="0" width="24" height="24"   fill="#000000" >
</rect>
<rect x="0" y="0" width="24" height="24"   fill="#000000" >
</rect>
</mask>
</defs>
</svg>
