<svg xmlns="http://www.w3.org/2000/svg" xmlns:xlink="http://www.w3.org/1999/xlink" width="24.000030517578125" height="24.000030517578125" viewBox="0 0 24.000030517578125 24.000030517578125" fill="none">
<g  mask="url(#mask-fYJyFtj8SI9XumSQUzGAY)">
<path d="M18.6562 0.930115L6.4642 13.1221C5.99921 13.5851 5.62921 14.1361 5.3782 14.7431C5.12723 15.3501 4.9982 16.0001 5.00021 16.6571L5.00021 18.0001C5.00021 18.2661 5.1062 18.5201 5.29321 18.7071C5.4812 18.8951 5.7352 19.0001 6.00021 19.0001L7.3432 19.0001C8.00021 19.0021 8.65121 18.8741 9.2572 18.6221C9.86422 18.3711 10.4152 18.0021 10.8782 17.5361L23.0702 5.34411C23.6552 4.75811 23.9832 3.96514 23.9832 3.13715C23.9832 2.31012 23.6552 1.51611 23.0702 0.930115C22.4762 0.362122 21.6852 0.045105 20.8632 0.045105C20.0412 0.045105 19.2502 0.362122 18.6562 0.930115L18.6562 0.930115L18.6562 0.930115ZM21.6562 3.93011L9.4642 16.1221C8.9002 16.6831 8.13821 16.9981 7.3432 17.0001L7.00021 17.0001L7.00021 16.6571C7.00222 15.8621 7.3182 15.1001 7.8782 14.5361L20.0702 2.34412C20.2842 2.14014 20.5682 2.02612 20.8632 2.02612C21.1592 2.02612 21.4432 2.14014 21.6562 2.34412C21.8662 2.55511 21.9842 2.84014 21.9842 3.13715C21.9842 3.43512 21.8662 3.72009 21.6562 3.93011L21.6562 3.93011L21.6562 3.93011Z"   fill="#374957" >
</path>
</g>
<g  mask="url(#mask-fYJyFtj8SI9XumSQUzGAY)">
<path d="M23 8.979C22.735 8.979 22.48 9.08398 22.293 9.27197C22.105 9.45898 22 9.71399 22 9.979L22 15L18 15C17.204 15 16.441 15.316 15.879 15.879C15.316 16.441 15 17.204 15 18L15 22L5 22C4.20401 22 3.44101 21.684 2.879 21.121C2.31601 20.559 2 19.796 2 19L2 5C2 4.20398 2.31601 3.44098 2.879 2.87903C3.44101 2.31598 4.20401 2 5 2L14.042 2C14.307 2 14.562 1.89502 14.749 1.70697C14.937 1.52002 15.042 1.26501 15.042 1C15.042 0.734985 14.937 0.47998 14.749 0.29303C14.562 0.10498 14.307 0 14.042 0L5 0C3.67401 0.00201416 2.40399 0.528992 1.466 1.466C0.528992 2.40399 0.00201416 3.67401 0 5L0 19C0.00201416 20.326 0.528992 21.596 1.466 22.534C2.40399 23.471 3.67401 23.998 5 24L16.343 24C17 24.002 17.651 23.873 18.258 23.622C18.865 23.371 19.416 23.002 19.879 22.536L22.535 19.878C23.001 19.415 23.37 18.864 23.621 18.257C23.873 17.65 24.002 17 24 16.343L24 9.979C24 9.71399 23.895 9.45898 23.707 9.27197C23.52 9.08398 23.265 8.979 23 8.979L23 8.979ZM18.465 21.122C18.063 21.523 17.555 21.801 17 21.922L17 18C17 17.735 17.105 17.48 17.293 17.293C17.48 17.105 17.735 17 18 17L21.925 17C21.801 17.554 21.524 18.061 21.125 18.464L18.465 21.122L18.465 21.122Z"   fill="#374957" >
</path>
</g>
<defs>
<mask id="mask-fYJyFtj8SI9XumSQUzGAY" style="mask-type:alpha" maskUnits="userSpaceOnUse">
<rect x="0" y="0" width="24" height="24"   fill="#000000" >
</rect>
<rect x="0" y="0" width="24" height="24"   fill="#000000" >
</rect>
</mask>
</defs>
</svg>
