<svg xmlns="http://www.w3.org/2000/svg" xmlns:xlink="http://www.w3.org/1999/xlink" width="14" height="14" viewBox="0 0 14 14" fill="none">
<g  mask="url(#mask-MGmtnkmSI1aDG7hCWqT4q)">
<path d="M11.9619 0L9.63273 0C9.15032 0 8.7595 0.39085 8.7595 0.874979C8.7595 1.35327 9.15032 1.74412 9.63273 1.74412L11.0181 1.74412L7.79818 4.96405C5.55005 3.40073 2.45726 3.95492 0.891038 6.20069C-0.675187 8.4523 -0.122196 11.5439 2.12651 13.1072C4.37464 14.6763 7.46743 14.1222 9.03366 11.8764C10.2207 10.1673 10.2207 7.90398 9.03366 6.20069L12.253 2.98076L12.253 4.36906C12.253 4.84742 12.6444 5.2382 13.1268 5.2382C13.6093 5.2382 14.0001 4.84742 14.0001 4.36906L14.0001 2.03578C14.0001 0.910013 13.0878 0 11.9619 0L11.9619 0ZM4.97431 12.2264C3.20507 12.2264 1.77127 10.7972 1.77127 9.02395C1.77127 7.25644 3.20507 5.82152 4.97431 5.82152C6.74295 5.82152 8.17676 7.25644 8.17676 9.02395C8.17501 10.7914 6.74236 12.2264 4.97431 12.2264L4.97431 12.2264Z"   fill="#374957" >
</path>
</g>
<defs>
<mask id="mask-MGmtnkmSI1aDG7hCWqT4q" style="mask-type:alpha" maskUnits="userSpaceOnUse">
<rect x="0" y="0" width="13.999778747558594" height="13.999664306640625"   fill="#000000" >
</rect>
<rect x="0" y="0" width="13.999778747558594" height="13.999664306640625"   fill="#000000" >
</rect>
</mask>
</defs>
</svg>
