<svg xmlns="http://www.w3.org/2000/svg" xmlns:xlink="http://www.w3.org/1999/xlink" width="14.000244140625" height="14.00238037109375" viewBox="0 0 14.000244140625 14.00238037109375" fill="none">
<g  mask="url(#mask-vZcTNPMzjriFZ8kwlNwyv)">
<path d="M11.6666 4.66771C11.6672 3.78118 11.4152 2.91217 10.941 2.16562C10.4673 1.41914 9.79005 0.82423 8.98855 0.445114C8.18763 0.065998 7.29511 -0.073972 6.41663 0.0368792C5.53814 0.147659 4.70921 0.503422 4.02612 1.06914C3.34362 1.63493 2.83613 2.38141 2.56198 3.2213C2.28779 4.06696 2.2592 4.96516 2.4797 5.8225C2.69962 6.67982 3.1593 7.46141 3.80444 8.06791C4.45023 8.67453 5.25519 9.08274 6.12496 9.24604L6.12496 10.5001L5.24996 10.5001C5.01779 10.5001 4.79494 10.5934 4.63106 10.7566C4.46714 10.9199 4.37496 11.1415 4.37496 11.3749C4.37496 11.6082 4.46714 11.8298 4.63106 11.9931C4.79494 12.1564 5.01779 12.2497 5.24996 12.2497L6.12496 12.2497L6.12496 13.1246C6.12496 13.3579 6.21714 13.5795 6.38106 13.7428C6.54494 13.9061 6.76779 13.9994 6.99996 13.9994C7.23213 13.9994 7.45437 13.9061 7.61829 13.7428C7.78278 13.5795 7.87496 13.3579 7.87496 13.1246L7.87496 12.2497L8.74997 12.2497C8.98213 12.2497 9.20438 12.1564 9.36888 11.9931C9.5328 11.8298 9.62497 11.6082 9.62497 11.3749C9.62497 11.1415 9.5328 10.9199 9.36888 10.7566C9.20438 10.5934 8.98213 10.5001 8.74997 10.5001L7.87496 10.5001L7.87496 9.24604C8.94072 9.04197 9.90205 8.47623 10.5939 7.63632C11.2857 6.80236 11.6649 5.75252 11.6666 4.66771L11.6666 4.66771ZM4.08329 4.66771C4.08329 4.09031 4.25423 3.5246 4.57445 3.04631C4.89531 2.56809 5.35086 2.19481 5.88346 1.97318C6.41663 1.75155 7.00288 1.69324 7.56869 1.80986C8.13455 1.92071 8.6543 2.20065 9.06205 2.60304C9.47038 3.01135 9.74805 3.53043 9.86063 4.09615C9.97322 4.66187 9.91547 5.25094 9.69438 5.78171C9.47388 6.31822 9.09997 6.7732 8.62047 7.09397C8.14039 7.41469 7.57688 7.58389 6.99996 7.58389C6.22647 7.58389 5.48505 7.27472 4.93846 6.72654C4.39187 6.18407 4.08386 5.44338 4.08329 4.66771L4.08329 4.66771L4.08329 4.66771Z"   fill="#374957" >
</path>
</g>
<defs>
<mask id="mask-vZcTNPMzjriFZ8kwlNwyv" style="mask-type:alpha" maskUnits="userSpaceOnUse">
<rect x="0" y="0.002410888671875" width="14" height="13.997589111328125"   fill="#000000" >
</rect>
<rect x="0" y="0.002410888671875" width="14" height="13.997589111328125"   fill="#000000" >
</rect>
</mask>
</defs>
</svg>
