<svg xmlns="http://www.w3.org/2000/svg" xmlns:xlink="http://www.w3.org/1999/xlink" width="24.0001220703125" height="24" viewBox="0 0 24.0001220703125 24" fill="none">
<g  mask="url(#mask-BR3vgxW_ShU137dakqfQt)">
<path d="M23.9902 1C23.9902 0.72998 23.8852 0.47998 23.6972 0.290039C23.5091 0.109985 23.2552 0 22.9902 0L18.4212 0C18.2232 0 18.0302 0.0600586 17.8652 0.170044C17.7011 0.280029 17.5732 0.430054 17.4972 0.619995C17.4222 0.800049 17.4021 1 17.4402 1.19995C17.4792 1.39001 17.5741 1.56995 17.7141 1.70996L18.9432 2.93994L16.9052 4.96997C15.8672 4.32996 14.6682 3.98999 13.4472 4C12.2251 4.01001 11.0312 4.37 10.0052 5.03003C9.2091 4.52002 8.31213 4.18994 7.37512 4.06006C6.43915 3.93994 5.48511 4.01001 4.58209 4.29004C3.67914 4.56995 2.84814 5.04004 2.14612 5.68005C1.44513 6.31006 0.890137 7.08997 0.520141 7.95996C0.151123 8.82996 -0.0238648 9.77002 0.00714111 10.71C0.0391235 11.66 0.276123 12.59 0.703125 13.4301C1.12915 14.27 1.73511 15.01 2.47711 15.6C3.21911 16.1801 4.08014 16.6 5.00012 16.8199L5.00012 18L4.00012 18C3.60211 18 3.22113 18.16 2.93915 18.4399C2.65814 18.72 2.50012 19.1 2.50012 19.5C2.50012 19.9 2.65814 20.28 2.93915 20.5601C3.22113 20.84 3.60211 21 4.00012 21L5.00012 21L5.00012 22.5C5.00012 22.9 5.15814 23.28 5.43915 23.5601C5.72113 23.84 6.10211 24 6.50012 24C6.89813 24 7.27911 23.84 7.56109 23.5601C7.8421 23.28 8.00012 22.9 8.00012 22.5L8.00012 21L9.00012 21C9.39813 21 9.77911 20.84 10.0602 20.5601C10.3421 20.28 10.5002 19.9 10.5002 19.5C10.5002 19.1 10.3421 18.72 10.0602 18.4399C9.77911 18.16 9.39813 18 9.00012 18L8.00012 18L8.00012 16.8101C8.7091 16.64 9.38513 16.36 10.0001 15.97C11.2381 16.76 12.7091 17.11 14.1722 16.96C15.6361 16.8101 17.0042 16.17 18.0542 15.14C19.1032 14.11 19.7712 12.75 19.9472 11.29C20.1242 9.82996 19.7992 8.34998 19.0262 7.09998L21.0642 5.06006L22.2932 6.29004C22.4331 6.43005 22.6122 6.53003 22.8072 6.56006C23.0011 6.59998 23.2032 6.57996 23.3861 6.51001C23.5691 6.43005 23.7251 6.30005 23.8341 6.14001C23.9441 5.96997 24.0011 5.78003 24.0002 5.57996L23.9902 1L23.9902 1ZM3.00012 10.5C2.99713 9.92004 3.1391 9.34998 3.41211 8.83997C3.68414 8.32996 4.0791 7.90002 4.56109 7.57996C5.04315 7.26001 5.5971 7.06995 6.17309 7.01001C6.74914 6.95996 7.3291 7.05005 7.86011 7.28003C7.29614 8.26001 7.00012 9.37 7.00012 10.5C7.00012 11.63 7.29614 12.74 7.86011 13.72C7.3291 13.95 6.74914 14.04 6.17309 13.99C5.5971 13.9301 5.04315 13.74 4.56109 13.42C4.0791 13.1 3.68414 12.67 3.41211 12.16C3.1391 11.65 2.99713 11.08 3.00012 10.5L3.00012 10.5L3.00012 10.5ZM13.5002 14C12.8081 14 12.1311 13.79 11.5552 13.41C10.9801 13.03 10.5312 12.48 10.2662 11.84C10.0011 11.2 9.93213 10.5 10.0672 9.81995C10.2022 9.14001 10.5362 8.51001 11.0252 8.03003C11.5152 7.54004 12.1382 7.19995 12.8172 7.06995C13.4961 6.93005 14.2002 7 14.8391 7.27002C15.4792 7.53003 16.0252 7.97998 16.4101 8.56006C16.7951 9.13 17.0002 9.81006 17.0002 10.5C17.0002 11.4301 16.6311 12.3199 15.9751 12.97C15.3182 13.63 14.4281 14 13.5002 14L13.5002 14L13.5002 14Z"   fill="#374957" >
</path>
</g>
<defs>
<mask id="mask-BR3vgxW_ShU137dakqfQt" style="mask-type:alpha" maskUnits="userSpaceOnUse">
<rect x="0" y="0" width="24" height="24"   fill="#000000" >
</rect>
<rect x="0" y="0" width="24" height="24"   fill="#000000" >
</rect>
</mask>
</defs>
</svg>
