<svg xmlns="http://www.w3.org/2000/svg" xmlns:xlink="http://www.w3.org/1999/xlink" width="24" height="24" viewBox="0 0 24 24" fill="none">
<g  mask="url(#mask-19_11)">
<path d="M3.09351 10.6813C3.8136 5.76123 8.39356 2.36121 13.3136 3.08118C14.9935 3.33118 16.5636 4.05127 17.8535 5.15125L16.6934 6.31128C16.3035 6.70117 16.3035 7.33118 16.6934 7.72119C16.8835 7.91125 17.1335 8.01123 17.3935 8.01123L21.9635 8.01123C22.5235 8.01123 22.9635 7.57117 22.9635 7.02124L22.9635 2.45117C22.9635 1.90125 22.5135 1.45117 21.9635 1.45117C21.7034 1.45117 21.4534 1.56128 21.2635 1.74121L19.9635 3.04126C15.0235 -1.36877 7.4535 -0.928833 3.05359 4.01123C1.49353 5.76123 0.473511 7.93127 0.133545 10.2512C0.00354009 11.0712 0.563599 11.8512 1.38355 11.9812C1.4635 11.9912 1.53357 12.0012 1.61353 12.0012C2.36353 11.9912 2.99353 11.4313 3.09351 10.6813L3.09351 10.6813Z"   fill="#FFFFFF" >
</path>
<path d="M22.3881 11.9991C21.6381 12.0092 21.0081 12.5691 20.9081 13.3092C20.188 18.2391 15.608 21.6392 10.688 20.9092C9.00806 20.6692 7.43799 19.9491 6.14808 18.8491L7.30811 17.6891C7.698 17.2992 7.698 16.6692 7.30811 16.2792C7.11805 16.0891 6.86805 15.9891 6.59803 15.9891L2.02808 15.9891C1.47803 15.9891 1.03809 16.4292 1.03809 16.9791L1.03809 21.5492C1.03809 22.0991 1.47803 22.5491 2.02808 22.5491C2.2981 22.5491 2.5481 22.439 2.73804 22.2591L4.02808 20.9591C8.96802 25.3591 16.5481 24.9292 20.948 19.9891C22.5081 18.2391 23.5281 16.0691 23.858 13.7491C23.9981 12.9292 23.438 12.1492 22.6181 12.0192C22.5381 12.0092 22.468 11.9991 22.3881 11.9991L22.3881 11.9991Z"   fill="#FFFFFF" >
</path>
</g>
<defs>
<mask id="mask-19_11" style="mask-type:alpha" maskUnits="userSpaceOnUse">
<rect x="0" y="0" width="24" height="24"   fill="#000000" >
</rect>
<rect x="0" y="0" width="24" height="24"   fill="#000000" >
</rect>
</mask>
</defs>
</svg>
