<svg xmlns="http://www.w3.org/2000/svg" xmlns:xlink="http://www.w3.org/1999/xlink" width="24" height="24" viewBox="0 0 24 24" fill="none">
<g  mask="url(#mask-jK47hdEbE5CtI6NQkw2v3)">
<path d="M11.9997 0C9.62674 0 7.30675 0.703995 5.33273 2.022C3.35974 3.341 1.82175 5.215 0.912735 7.40799C0.00474548 9.60101 -0.232254 12.013 0.230743 14.341C0.693741 16.669 1.83574 18.807 3.51474 20.485C5.19273 22.164 7.33073 23.306 9.65874 23.769C11.9867 24.232 14.3987 23.995 16.5917 23.087C18.7847 22.178 20.6587 20.64 21.9777 18.667C23.2957 16.694 23.9997 14.373 23.9997 12C23.9967 8.81799 22.7307 5.76801 20.4817 3.51901C18.2317 1.26901 15.1807 0.00300598 11.9997 0L11.9997 0L11.9997 0ZM11.9997 22C10.0217 22 8.08875 21.414 6.44374 20.315C4.79974 19.216 3.51775 17.654 2.76074 15.827C2.00374 14 1.80574 11.989 2.19174 10.049C2.57774 8.10901 3.52974 6.327 4.92874 4.92899C6.32674 3.53 8.10873 2.578 10.0487 2.19199C11.9887 1.806 13.9997 2.004 15.8267 2.76099C17.6537 3.51801 19.2157 4.79999 20.3147 6.444C21.4127 8.08899 21.9997 10.022 21.9997 12C21.9967 14.651 20.9427 17.193 19.0677 19.068C17.1927 20.943 14.6507 21.997 11.9997 22L11.9997 22L11.9997 22ZM16.9997 12C16.9997 12.265 16.8947 12.52 16.7067 12.707C16.5197 12.895 16.2647 13 15.9997 13L12.9997 13L12.9997 16C12.9997 16.265 12.8947 16.52 12.7067 16.707C12.5197 16.895 12.2647 17 11.9997 17C11.7347 17 11.4797 16.895 11.2927 16.707C11.1047 16.52 10.9997 16.265 10.9997 16L10.9997 13L7.99974 13C7.73474 13 7.47974 12.895 7.29274 12.707C7.10474 12.52 6.99974 12.265 6.99974 12C6.99974 11.735 7.10474 11.48 7.29274 11.293C7.47974 11.105 7.73474 11 7.99974 11L10.9997 11L10.9997 8C10.9997 7.73499 11.1047 7.48001 11.2927 7.293C11.4797 7.10501 11.7347 7 11.9997 7C12.2647 7 12.5197 7.10501 12.7067 7.293C12.8947 7.48001 12.9997 7.73499 12.9997 8L12.9997 11L15.9997 11C16.2647 11 16.5197 11.105 16.7067 11.293C16.8947 11.48 16.9997 11.735 16.9997 12L16.9997 12Z"   fill="#374957" >
</path>
</g>
<defs>
<mask id="mask-jK47hdEbE5CtI6NQkw2v3" style="mask-type:alpha" maskUnits="userSpaceOnUse">
<rect x="0" y="0" width="24" height="24"   fill="#000000" >
</rect>
<rect x="0" y="0" width="24" height="24"   fill="#000000" >
</rect>
</mask>
</defs>
</svg>
