<svg xmlns="http://www.w3.org/2000/svg" xmlns:xlink="http://www.w3.org/1999/xlink" width="24.000022888183594" height="24.0035400390625" viewBox="0 0 24.000022888183594 24.0035400390625" fill="none">
<g  mask="url(#mask-w6L0vujfGf-uMM-V1Me6K)">
<path d="M22.535 8.4635C22.072 8.00354 21.521 7.63354 20.914 7.38354C20.307 7.13354 19.656 7.00354 19 7.00354L19 7.00354L2.79999 7.00354L7.09998 2.70349C7.28699 2.51355 7.39203 2.26355 7.39203 1.99353C7.39099 1.73352 7.28497 1.47351 7.09698 1.29358C6.909 1.10352 6.65399 0.99353 6.38898 0.99353C6.12299 0.99353 5.86902 1.10352 5.68201 1.29358L0.731995 6.24353C0.263 6.7135 0 7.34351 0 8.00354C0 8.67358 0.263 9.30359 0.731995 9.77356L5.68201 14.7235C5.77502 14.8235 5.88501 14.8935 6.00702 14.9435C6.12799 14.9935 6.258 15.0235 6.39001 15.0235C6.521 15.0235 6.651 14.9935 6.77301 14.9435C6.89398 14.8935 7.005 14.8235 7.09802 14.7335C7.19098 14.6335 7.26501 14.5235 7.315 14.4035C7.36603 14.2835 7.39203 14.1535 7.39203 14.0235C7.39203 13.8935 7.367 13.7635 7.31702 13.6335C7.26599 13.5135 7.19299 13.4035 7.09998 13.3136L2.78802 9.00354L19 9.00354C19.796 9.00354 20.559 9.32349 21.121 9.88354C21.684 10.4435 22 11.2035 22 12.0035L22 19.0035C22 19.8036 21.684 20.5636 21.121 21.1235C20.559 21.6836 19.796 22.0035 19 22.0035L5 22.0035C4.73499 22.0035 4.47998 22.1135 4.29303 22.2935C4.10498 22.4835 4 22.7335 4 23.0035C4 23.2735 4.10498 23.5235 4.29303 23.7135C4.47998 23.8935 4.73499 24.0035 5 24.0035L19 24.0035C20.326 24.0035 21.596 23.4735 22.534 22.5335C23.471 21.6035 23.998 20.3335 24 19.0035L24 12.0035C24.002 11.3435 23.874 10.6935 23.622 10.0835C23.371 9.48352 23.001 8.92358 22.535 8.4635L22.535 8.4635Z"   fill="#374957" >
</path>
</g>
<defs>
<mask id="mask-w6L0vujfGf-uMM-V1Me6K" style="mask-type:alpha" maskUnits="userSpaceOnUse">
<rect x="0" y="0" width="24" height="24"   fill="#000000" >
</rect>
<rect x="0" y="0" width="24" height="24"   fill="#000000" >
</rect>
</mask>
</defs>
</svg>
