<svg xmlns="http://www.w3.org/2000/svg" xmlns:xlink="http://www.w3.org/1999/xlink" width="24.000091552734375" height="24" viewBox="0 0 24.000091552734375 24" fill="none">
<g  mask="url(#mask-uyJOqMUzRgYHGr-rutS99)">
<path d="M7 0L4 0C2.939 0 1.922 0.42099 1.172 1.172C0.42099 1.922 0 2.939 0 4L0 7C0 8.061 0.42099 9.078 1.172 9.828C1.922 10.579 2.939 11 4 11L7 11C8.061 11 9.078 10.579 9.828 9.828C10.579 9.078 11 8.061 11 7L11 4C11 2.939 10.579 1.922 9.828 1.172C9.078 0.42099 8.061 0 7 0L7 0L7 0ZM9 7C9 7.53 8.789 8.039 8.414 8.414C8.039 8.789 7.53 9 7 9L4 9C3.47 9 2.961 8.789 2.586 8.414C2.211 8.039 2 7.53 2 7L2 4C2 3.47 2.211 2.961 2.586 2.586C2.961 2.211 3.47 2 4 2L7 2C7.53 2 8.039 2.211 8.414 2.586C8.789 2.961 9 3.47 9 4L9 7L9 7Z"   fill="#374957" >
</path>
</g>
<g  mask="url(#mask-uyJOqMUzRgYHGr-rutS99)">
<path d="M7 13L4 13C2.939 13 1.922 13.421 1.172 14.172C0.42099 14.922 0 15.939 0 17L0 20C0 21.061 0.42099 22.078 1.172 22.828C1.922 23.579 2.939 24 4 24L7 24C8.061 24 9.078 23.579 9.828 22.828C10.579 22.078 11 21.061 11 20L11 17C11 15.939 10.579 14.922 9.828 14.172C9.078 13.421 8.061 13 7 13L7 13L7 13ZM9 20C9 20.53 8.789 21.039 8.414 21.414C8.039 21.789 7.53 22 7 22L4 22C3.47 22 2.961 21.789 2.586 21.414C2.211 21.039 2 20.53 2 20L2 17C2 16.47 2.211 15.961 2.586 15.586C2.961 15.211 3.47 15 4 15L7 15C7.53 15 8.039 15.211 8.414 15.586C8.789 15.961 9 16.47 9 17L9 20L9 20Z"   fill="#374957" >
</path>
</g>
<g  mask="url(#mask-uyJOqMUzRgYHGr-rutS99)">
<path d="M20.0001 13L17.0001 13C15.9391 13 14.9221 13.421 14.1721 14.172C13.4221 14.922 13.0001 15.939 13.0001 17L13.0001 20C13.0001 21.061 13.4221 22.078 14.1721 22.828C14.9221 23.579 15.9391 24 17.0001 24L20.0001 24C21.0611 24 22.0781 23.579 22.8281 22.828C23.5791 22.078 24.0001 21.061 24.0001 20L24.0001 17C24.0001 15.939 23.5791 14.922 22.8281 14.172C22.0781 13.421 21.0611 13 20.0001 13L20.0001 13L20.0001 13ZM22.0001 20C22.0001 20.53 21.7891 21.039 21.4141 21.414C21.0391 21.789 20.5311 22 20.0001 22L17.0001 22C16.4701 22 15.9611 21.789 15.5861 21.414C15.2111 21.039 15.0001 20.53 15.0001 20L15.0001 17C15.0001 16.47 15.2111 15.961 15.5861 15.586C15.9611 15.211 16.4701 15 17.0001 15L20.0001 15C20.5311 15 21.0391 15.211 21.4141 15.586C21.7891 15.961 22.0001 16.47 22.0001 17L22.0001 20L22.0001 20Z"   fill="#374957" >
</path>
</g>
<g  mask="url(#mask-uyJOqMUzRgYHGr-rutS99)">
<path d="M14.0001 7L17.0001 7L17.0001 10C17.0001 10.265 17.1051 10.52 17.2931 10.707C17.4811 10.895 17.7351 11 18.0001 11C18.2651 11 18.5201 10.895 18.7071 10.707C18.8951 10.52 19.0001 10.265 19.0001 10L19.0001 7L22.0001 7C22.2651 7 22.5201 6.89499 22.7071 6.707C22.8951 6.51999 23.0001 6.26501 23.0001 6C23.0001 5.73499 22.8951 5.48001 22.7071 5.293C22.5201 5.10501 22.2651 5 22.0001 5L19.0001 5L19.0001 2C19.0001 1.73498 18.8951 1.48001 18.7071 1.293C18.5201 1.10501 18.2651 1 18.0001 1C17.7351 1 17.4811 1.10501 17.2931 1.293C17.1051 1.48001 17.0001 1.73498 17.0001 2L17.0001 5L14.0001 5C13.7351 5 13.4811 5.10501 13.2931 5.293C13.1051 5.48001 13.0001 5.73499 13.0001 6C13.0001 6.26501 13.1051 6.51999 13.2931 6.707C13.4811 6.89499 13.7351 7 14.0001 7L14.0001 7L14.0001 7Z"   fill="#374957" >
</path>
</g>
<defs>
<mask id="mask-uyJOqMUzRgYHGr-rutS99" style="mask-type:alpha" maskUnits="userSpaceOnUse">
<rect x="0" y="0" width="24" height="24"   fill="#000000" >
</rect>
<rect x="0" y="0" width="24" height="24"   fill="#000000" >
</rect>
</mask>
</defs>
</svg>
