<svg xmlns="http://www.w3.org/2000/svg" xmlns:xlink="http://www.w3.org/1999/xlink" width="24" height="24" viewBox="0 0 24 24" fill="none">
<g  mask="url(#mask-6v2cPZdi-v0dF5jmu8bZZ)">
<path d="M7 0L4 0C2.939 0 1.922 0.42099 1.172 1.172C0.42099 1.922 0 2.939 0 4L0 7C0 8.061 0.42099 9.078 1.172 9.828C1.922 10.579 2.939 11 4 11L7 11C8.061 11 9.078 10.579 9.828 9.828C10.579 9.078 11 8.061 11 7L11 4C11 2.939 10.579 1.922 9.828 1.172C9.078 0.42099 8.061 0 7 0L7 0L7 0ZM9 7C9 7.53 8.789 8.039 8.414 8.414C8.039 8.789 7.53 9 7 9L4 9C3.47 9 2.961 8.789 2.586 8.414C2.211 8.039 2 7.53 2 7L2 4C2 3.47 2.211 2.961 2.586 2.586C2.961 2.211 3.47 2 4 2L7 2C7.53 2 8.039 2.211 8.414 2.586C8.789 2.961 9 3.47 9 4L9 7L9 7Z"   fill="#374957" >
</path>
</g>
<g  mask="url(#mask-6v2cPZdi-v0dF5jmu8bZZ)">
<path d="M7 13L4 13C2.939 13 1.922 13.421 1.172 14.172C0.42099 14.922 0 15.939 0 17L0 20C0 21.061 0.42099 22.078 1.172 22.828C1.922 23.579 2.939 24 4 24L7 24C8.061 24 9.078 23.579 9.828 22.828C10.579 22.078 11 21.061 11 20L11 17C11 15.939 10.579 14.922 9.828 14.172C9.078 13.421 8.061 13 7 13L7 13L7 13ZM9 20C9 20.53 8.789 21.039 8.414 21.414C8.039 21.789 7.53 22 7 22L4 22C3.47 22 2.961 21.789 2.586 21.414C2.211 21.039 2 20.53 2 20L2 17C2 16.47 2.211 15.961 2.586 15.586C2.961 15.211 3.47 15 4 15L7 15C7.53 15 8.039 15.211 8.414 15.586C8.789 15.961 9 16.47 9 17L9 20L9 20Z"   fill="#374957" >
</path>
</g>
<g  mask="url(#mask-6v2cPZdi-v0dF5jmu8bZZ)">
<path d="M19.9998 13L16.9998 13C15.9388 13 14.9218 13.421 14.1708 14.172C13.4208 14.922 12.9998 15.939 12.9998 17L12.9998 20C12.9998 21.061 13.4208 22.078 14.1708 22.828C14.9218 23.579 15.9388 24 16.9998 24L19.9998 24C21.0608 24 22.0778 23.579 22.8278 22.828C23.5778 22.078 23.9998 21.061 23.9998 20L23.9998 17C23.9998 15.939 23.5778 14.922 22.8278 14.172C22.0778 13.421 21.0608 13 19.9998 13L19.9998 13L19.9998 13ZM21.9998 20C21.9998 20.53 21.7888 21.039 21.4138 21.414C21.0388 21.789 20.5298 22 19.9998 22L16.9998 22C16.4688 22 15.9608 21.789 15.5858 21.414C15.2108 21.039 14.9998 20.53 14.9998 20L14.9998 17C14.9998 16.47 15.2108 15.961 15.5858 15.586C15.9608 15.211 16.4688 15 16.9998 15L19.9998 15C20.5298 15 21.0388 15.211 21.4138 15.586C21.7888 15.961 21.9998 16.47 21.9998 17L21.9998 20L21.9998 20Z"   fill="#374957" >
</path>
</g>
<g  mask="url(#mask-6v2cPZdi-v0dF5jmu8bZZ)">
<path d="M13.9998 7L21.9998 7C22.2649 7 22.5189 6.89499 22.7068 6.707C22.8948 6.51999 22.9998 6.26501 22.9998 6C22.9998 5.73498 22.8948 5.48001 22.7068 5.293C22.5189 5.10501 22.2649 5 21.9998 5L13.9998 5C13.7348 5 13.4799 5.10501 13.2928 5.293C13.1049 5.48001 12.9998 5.73498 12.9998 6C12.9998 6.26501 13.1049 6.51999 13.2928 6.707C13.4799 6.89499 13.7348 7 13.9998 7L13.9998 7L13.9998 7Z"   fill="#374957" >
</path>
</g>
<defs>
<mask id="mask-6v2cPZdi-v0dF5jmu8bZZ" style="mask-type:alpha" maskUnits="userSpaceOnUse">
<rect x="0" y="0" width="24" height="24"   fill="#000000" >
</rect>
<rect x="0" y="0" width="24" height="24"   fill="#000000" >
</rect>
</mask>
</defs>
</svg>
