<svg xmlns="http://www.w3.org/2000/svg" xmlns:xlink="http://www.w3.org/1999/xlink" width="24" height="24" viewBox="0 0 24 24" fill="none">
<g  mask="url(#mask-Uj6xbnyPeOjyO4BseQMVG)">
<path d="M19 2L18 2L18 1C18 0.734985 17.895 0.480011 17.707 0.292999C17.52 0.105011 17.265 0 17 0C16.735 0 16.48 0.105011 16.293 0.292999C16.105 0.480011 16 0.734985 16 1L16 2L8 2L8 1C8 0.734985 7.89502 0.480011 7.70697 0.292999C7.52002 0.105011 7.26501 0 7 0C6.73499 0 6.47998 0.105011 6.29303 0.292999C6.10498 0.480011 6 0.734985 6 1L6 2L5 2C3.67401 2.00201 2.40399 2.52899 1.466 3.466C0.528992 4.40399 0.00201416 5.67401 0 7L0 19C0.00201416 20.326 0.528992 21.596 1.466 22.534C2.40399 23.471 3.67401 23.998 5 24L19 24C20.326 23.998 21.596 23.471 22.534 22.534C23.471 21.596 23.998 20.326 24 19L24 7C23.998 5.67401 23.471 4.40399 22.534 3.466C21.596 2.52899 20.326 2.00201 19 2L19 2L19 2ZM2 7C2 6.20401 2.31598 5.44101 2.87903 4.879C3.44098 4.31601 4.20398 4 5 4L19 4C19.796 4 20.559 4.31601 21.121 4.879C21.684 5.44101 22 6.20401 22 7L22 8L2 8L2 7L2 7ZM19 22L5 22C4.20398 22 3.44098 21.684 2.87903 21.121C2.31598 20.559 2 19.796 2 19L2 10L22 10L22 19C22 19.796 21.684 20.559 21.121 21.121C20.559 21.684 19.796 22 19 22L19 22Z"   fill="#374957" >
</path>
</g>
<g  mask="url(#mask-Uj6xbnyPeOjyO4BseQMVG)">
<path d="M12 16.5C12.828 16.5 13.5 15.828 13.5 15C13.5 14.172 12.828 13.5 12 13.5C11.172 13.5 10.5 14.172 10.5 15C10.5 15.828 11.172 16.5 12 16.5L12 16.5Z"   fill="#374957" >
</path>
</g>
<g  mask="url(#mask-Uj6xbnyPeOjyO4BseQMVG)">
<path d="M6.99982 16.5C7.82782 16.5 8.49982 15.828 8.49982 15C8.49982 14.172 7.82782 13.5 6.99982 13.5C6.17084 13.5 5.49982 14.172 5.49982 15C5.49982 15.828 6.17084 16.5 6.99982 16.5L6.99982 16.5Z"   fill="#374957" >
</path>
</g>
<g  mask="url(#mask-Uj6xbnyPeOjyO4BseQMVG)">
<path d="M17.0001 16.5C17.8291 16.5 18.5001 15.828 18.5001 15C18.5001 14.172 17.8291 13.5 17.0001 13.5C16.1721 13.5 15.5001 14.172 15.5001 15C15.5001 15.828 16.1721 16.5 17.0001 16.5L17.0001 16.5Z"   fill="#374957" >
</path>
</g>
<defs>
<mask id="mask-Uj6xbnyPeOjyO4BseQMVG" style="mask-type:alpha" maskUnits="userSpaceOnUse">
<rect x="0" y="0" width="24" height="24"   fill="#000000" >
</rect>
<rect x="0" y="0" width="24" height="24"   fill="#000000" >
</rect>
</mask>
</defs>
</svg>
