<svg xmlns="http://www.w3.org/2000/svg" xmlns:xlink="http://www.w3.org/1999/xlink" width="24" height="24" viewBox="0 0 24 24" fill="none">
<g  mask="url(#mask-58gsM44dTnn4yBKrJrgAn)">
<path d="M20.9999 4L17.8999 4C17.6679 2.87 17.0539 1.85999 16.1609 1.13C15.2689 0.400024 14.1519 0 12.9999 0L10.9999 0C9.8479 0 8.7309 0.400024 7.8389 1.13C6.94592 1.85999 6.33191 2.87 6.09992 4L2.99991 4C2.73489 4 2.47992 4.10999 2.29291 4.29004C2.10492 4.47998 1.99991 4.72998 1.99991 5C1.99991 5.27002 2.10492 5.52002 2.29291 5.70996C2.47992 5.89001 2.73489 6 2.99991 6L3.99991 6L3.99991 19C4.00092 20.33 4.5289 21.6 5.46591 22.53C6.40293 23.47 7.67392 24 8.99991 24L14.9999 24C16.3259 24 17.5959 23.47 18.5339 22.53C19.4709 21.6 19.9979 20.33 19.9999 19L19.9999 6L20.9999 6C21.2649 6 21.5199 5.89001 21.7069 5.70996C21.8949 5.52002 21.9999 5.27002 21.9999 5C21.9999 4.72998 21.8949 4.47998 21.7069 4.29004C21.5199 4.10999 21.2649 4 20.9999 4L20.9999 4L20.9999 4ZM10.9999 2L12.9999 2C13.6199 2 14.2249 2.18994 14.7319 2.55005C15.2379 2.91003 15.6209 3.42004 15.8289 4L8.1709 4C8.37891 3.42004 8.7619 2.91003 9.26792 2.55005C9.7749 2.18994 10.3799 2 10.9999 2L10.9999 2L10.9999 2ZM17.9999 19C17.9999 19.8 17.6839 20.5601 17.1209 21.12C16.5589 21.6801 15.7959 22 14.9999 22L8.99991 22C8.20392 22 7.44092 21.6801 6.87891 21.12C6.31592 20.5601 5.99991 19.8 5.99991 19L5.99991 6L17.9999 6L17.9999 19L17.9999 19Z"   fill="#374957" >
</path>
</g>
<g  mask="url(#mask-58gsM44dTnn4yBKrJrgAn)">
<path d="M10 17.9994C10.265 17.9994 10.52 17.8894 10.707 17.7094C10.895 17.5194 11 17.2594 11 16.9994L11 10.9994C11 10.7294 10.895 10.4794 10.707 10.2894C10.52 10.0994 10.265 9.99939 10 9.99939C9.73499 9.99939 9.48001 10.0994 9.293 10.2894C9.10501 10.4794 9 10.7294 9 10.9994L9 16.9994C9 17.2594 9.10501 17.5194 9.293 17.7094C9.48001 17.8894 9.73499 17.9994 10 17.9994L10 17.9994Z"   fill="#374957" >
</path>
</g>
<g  mask="url(#mask-58gsM44dTnn4yBKrJrgAn)">
<path d="M13.9998 17.9994C14.2649 17.9994 14.5189 17.8894 14.7068 17.7094C14.8948 17.5194 14.9998 17.2594 14.9998 16.9994L14.9998 10.9994C14.9998 10.7294 14.8948 10.4794 14.7068 10.2894C14.5189 10.0994 14.2649 9.99939 13.9998 9.99939C13.7348 9.99939 13.4799 10.0994 13.2928 10.2894C13.1049 10.4794 12.9998 10.7294 12.9998 10.9994L12.9998 16.9994C12.9998 17.2594 13.1049 17.5194 13.2928 17.7094C13.4799 17.8894 13.7348 17.9994 13.9998 17.9994L13.9998 17.9994Z"   fill="#374957" >
</path>
</g>
<defs>
<mask id="mask-58gsM44dTnn4yBKrJrgAn" style="mask-type:alpha" maskUnits="userSpaceOnUse">
<rect x="0" y="0" width="24" height="24"   fill="#000000" >
</rect>
<rect x="0" y="0" width="24" height="24"   fill="#000000" >
</rect>
</mask>
</defs>
</svg>
