<svg xmlns="http://www.w3.org/2000/svg" xmlns:xlink="http://www.w3.org/1999/xlink" width="24" height="24" viewBox="0 0 24 24" fill="none">
<g  mask="url(#mask-15_9)">
<path d="M21 4L17.9 4C17.422 1.67004 15.375 0 13 0L11 0C8.625 0 6.578 1.67004 6.10001 4L3 4C2.448 4 2 4.44995 2 5C2 5.55005 2.448 6 3 6L4 6L4 19C4.00299 21.76 6.23999 24 9 24L15 24C17.76 24 19.997 21.76 20 19L20 6L21 6C21.552 6 22 5.55005 22 5C22 4.44995 21.552 4 21 4L21 4ZM11 17C11 17.55 10.552 18 10 18C9.448 18 9 17.55 9 17L9 11C9 10.45 9.448 10 10 10C10.552 10 11 10.45 11 11L11 17L11 17L11 17ZM15 17C15 17.55 14.552 18 14 18C13.448 18 13 17.55 13 17L13 11C13 10.45 13.448 10 14 10C14.552 10 15 10.45 15 11L15 17L15 17ZM8.17099 4C8.59601 2.80005 9.729 2 11 2L13 2C14.271 2 15.404 2.80005 15.829 4L8.17099 4L8.17099 4Z"   fill="#FFFFFF" >
</path>
</g>
<defs>
<mask id="mask-15_9" style="mask-type:alpha" maskUnits="userSpaceOnUse">
<rect x="0" y="0" width="24" height="24"   fill="#000000" >
</rect>
<rect x="0" y="0" width="24" height="24"   fill="#000000" >
</rect>
</mask>
</defs>
</svg>
