<svg xmlns="http://www.w3.org/2000/svg" xmlns:xlink="http://www.w3.org/1999/xlink" width="24" height="24" viewBox="0 0 24 24" fill="none">
<g  mask="url(#mask-GQOOYXF9QGuOsAP5cvETK)">
<path d="M14.0002 24C13.7842 24 13.5732 23.93 13.4002 23.8L9.40014 20.8C9.27612 20.707 9.17511 20.586 9.10614 20.447C9.03613 20.308 9.00012 20.155 9.00012 20L9.00012 14.38L1.98413 6.487C1.48615 5.92499 1.1601 5.23102 1.04712 4.48798C0.934143 3.74597 1.03711 2.98602 1.34509 2.30103C1.65314 1.61603 2.15313 1.034 2.78314 0.625977C3.41412 0.218018 4.14911 0 4.90014 0L19.1001 0C19.8512 0.000976562 20.5862 0.218994 21.2162 0.627014C21.8471 1.03601 22.3462 1.617 22.6532 2.30298C22.9612 2.98798 23.0642 3.74701 22.9511 4.48999C22.8371 5.23199 22.5122 5.92603 22.0132 6.48798L15.0002 14.38L15.0002 23C15.0002 23.265 14.8952 23.52 14.7071 23.707C14.5202 23.895 14.2652 24 14.0002 24L14.0002 24L14.0002 24ZM11.0001 19.5L13.0002 21L13.0002 14C13.0002 13.755 13.0902 13.519 13.2531 13.336L20.5212 5.159C20.7632 4.88501 20.9222 4.547 20.9771 4.185C21.0312 3.82397 20.9812 3.45398 20.8312 3.12097C20.6812 2.78699 20.4381 2.50403 20.1311 2.30499C19.8241 2.10602 19.4662 2 19.1001 2L4.90014 2C4.53509 2.00098 4.17712 2.10699 3.87011 2.30499C3.56311 2.50403 3.32013 2.78699 3.1701 3.12C3.02014 3.45398 2.97009 3.823 3.02411 4.185C3.0791 4.54602 3.23712 4.88397 3.47912 5.15802L10.7481 13.336C10.9101 13.519 11.0001 13.755 11.0001 14L11.0001 19.5L11.0001 19.5Z"   fill="#374957" >
</path>
</g>
<defs>
<mask id="mask-GQOOYXF9QGuOsAP5cvETK" style="mask-type:alpha" maskUnits="userSpaceOnUse">
<rect x="0" y="0" width="24" height="24"   fill="#000000" >
</rect>
<rect x="0" y="0" width="24" height="24"   fill="#000000" >
</rect>
</mask>
</defs>
</svg>
