<svg xmlns="http://www.w3.org/2000/svg" xmlns:xlink="http://www.w3.org/1999/xlink" width="24" height="24" viewBox="0 0 24 24" fill="none">
<g  mask="url(#mask-AGUY8iQCvhFhm4QDvZVQu)">
<path d="M11.9998 0C9.62677 0 7.30676 0.703979 5.33276 2.02197C3.35974 3.341 1.82178 5.21503 0.912781 7.40802C0.00476074 9.60101 -0.232239 12.013 0.230774 14.341C0.693726 16.669 1.83575 18.807 3.51477 20.485C5.19275 22.164 7.33075 23.306 9.65875 23.769C11.9868 24.232 14.3987 23.995 16.5917 23.087C18.7847 22.178 20.6588 20.64 21.9778 18.667C23.2958 16.693 23.9998 14.373 23.9998 12C23.9968 8.81799 22.7308 5.76801 20.4818 3.51801C18.2318 1.26898 15.1818 0.00299072 11.9998 0L11.9998 0L11.9998 0ZM11.9998 22C10.0217 22 8.08875 21.414 6.44373 20.315C4.79974 19.216 3.51776 17.654 2.76074 15.827C2.00378 14 1.80579 11.989 2.19177 10.049C2.57776 8.10901 3.52979 6.32703 4.92877 4.92902C6.32678 3.53003 8.10876 2.578 10.0488 2.19202C11.9888 1.80603 13.9998 2.00403 15.8268 2.76099C17.6537 3.51801 19.2158 4.79999 20.3148 6.44397C21.4138 8.08899 21.9998 10.022 21.9998 12C21.9968 14.651 20.9427 17.193 19.0677 19.068C17.1927 20.943 14.6508 21.997 11.9998 22L11.9998 22L11.9998 22Z"   fill="#374957" >
</path>
</g>
<g  mask="url(#mask-AGUY8iQCvhFhm4QDvZVQu)">
<path d="M11.9998 10.0003L10.9998 10.0003C10.7348 10.0003 10.4798 10.1063 10.2928 10.2933C10.1048 10.4813 9.99982 10.7353 9.99982 11.0003C9.99982 11.2663 10.1048 11.5203 10.2928 11.7073C10.4798 11.8953 10.7348 12.0003 10.9998 12.0003L11.9998 12.0003L11.9998 18.0003C11.9998 18.2663 12.1048 18.5203 12.2928 18.7073C12.4798 18.8953 12.7348 19.0003 12.9998 19.0003C13.2648 19.0003 13.5188 18.8953 13.7068 18.7073C13.8938 18.5203 13.9998 18.2663 13.9998 18.0003L13.9998 12.0003C13.9998 11.4703 13.7888 10.9613 13.4138 10.5863C13.0388 10.2113 12.5298 10.0003 11.9998 10.0003L11.9998 10.0003Z"   fill="#374957" >
</path>
</g>
<g  mask="url(#mask-AGUY8iQCvhFhm4QDvZVQu)">
<path d="M12 7.99969C12.828 7.99969 13.5 7.32769 13.5 6.49969C13.5 5.67072 12.828 4.99969 12 4.99969C11.172 4.99969 10.5 5.67072 10.5 6.49969C10.5 7.32769 11.172 7.99969 12 7.99969L12 7.99969Z"   fill="#374957" >
</path>
</g>
<defs>
<mask id="mask-AGUY8iQCvhFhm4QDvZVQu" style="mask-type:alpha" maskUnits="userSpaceOnUse">
<rect x="0" y="0" width="24" height="24"   fill="#000000" >
</rect>
<rect x="0" y="0" width="24" height="24"   fill="#000000" >
</rect>
</mask>
</defs>
</svg>
