<svg xmlns="http://www.w3.org/2000/svg" xmlns:xlink="http://www.w3.org/1999/xlink" width="24" height="24" viewBox="0 0 24 24" fill="none">
<g  mask="url(#mask-lvOvbSi5vZT_R4SlxotIS)">
<path d="M7 6.00031L23 6.00031C23.265 6.00031 23.52 5.89533 23.707 5.70728C23.895 5.52033 24 5.2663 24 5.00031C24 4.73529 23.895 4.48132 23.707 4.29333C23.52 4.10632 23.265 4.00031 23 4.00031L7 4.00031C6.73498 4.00031 6.47998 4.10632 6.29303 4.29333C6.10498 4.48132 6 4.73529 6 5.00031C6 5.2663 6.10498 5.52033 6.29303 5.70728C6.47998 5.89533 6.73498 6.00031 7 6.00031L7 6.00031Z"   fill="#374957" >
</path>
</g>
<g  mask="url(#mask-lvOvbSi5vZT_R4SlxotIS)">
<path d="M23 10.9997L7 10.9997C6.73498 10.9997 6.47998 11.1047 6.29303 11.2927C6.10498 11.4797 6 11.7337 6 11.9997C6 12.2647 6.10498 12.5187 6.29303 12.7067C6.47998 12.8937 6.73498 12.9997 7 12.9997L23 12.9997C23.265 12.9997 23.52 12.8937 23.707 12.7067C23.895 12.5187 24 12.2647 24 11.9997C24 11.7337 23.895 11.4797 23.707 11.2927C23.52 11.1047 23.265 10.9997 23 10.9997L23 10.9997Z"   fill="#374957" >
</path>
</g>
<g  mask="url(#mask-lvOvbSi5vZT_R4SlxotIS)">
<path d="M23 18L7 18C6.73498 18 6.47998 18.11 6.29303 18.29C6.10498 18.48 6 18.73 6 19C6 19.27 6.10498 19.52 6.29303 19.71C6.47998 19.89 6.73498 20 7 20L23 20C23.265 20 23.52 19.89 23.707 19.71C23.895 19.52 24 19.27 24 19C24 18.73 23.895 18.48 23.707 18.29C23.52 18.11 23.265 18 23 18L23 18Z"   fill="#374957" >
</path>
</g>
<g  mask="url(#mask-lvOvbSi5vZT_R4SlxotIS)">
<path d="M2 7C3.10498 7 4 6.10498 4 5C4 3.89502 3.10498 3 2 3C0.89502 3 0 3.89502 0 5C0 6.10498 0.89502 7 2 7L2 7Z"   fill="#374957" >
</path>
</g>
<g  mask="url(#mask-lvOvbSi5vZT_R4SlxotIS)">
<path d="M2 14.0003C3.10498 14.0003 4 13.1053 4 12.0003C4 10.8963 3.10498 10.0003 2 10.0003C0.89502 10.0003 0 10.8963 0 12.0003C0 13.1053 0.89502 14.0003 2 14.0003L2 14.0003Z"   fill="#374957" >
</path>
</g>
<g  mask="url(#mask-lvOvbSi5vZT_R4SlxotIS)">
<path d="M2 20.9997C3.10498 20.9997 4 20.0997 4 18.9997C4 17.8997 3.10498 16.9997 2 16.9997C0.89502 16.9997 0 17.8997 0 18.9997C0 20.0997 0.89502 20.9997 2 20.9997L2 20.9997Z"   fill="#374957" >
</path>
</g>
<defs>
<mask id="mask-lvOvbSi5vZT_R4SlxotIS" style="mask-type:alpha" maskUnits="userSpaceOnUse">
<rect x="0" y="0" width="24" height="24"   fill="#000000" >
</rect>
<rect x="0" y="0" width="24" height="24"   fill="#000000" >
</rect>
</mask>
</defs>
</svg>
