<svg xmlns="http://www.w3.org/2000/svg" xmlns:xlink="http://www.w3.org/1999/xlink" width="24" height="24.001708984375" viewBox="0 0 24 24.001708984375" fill="none">
<g  mask="url(#mask-GcqwRdwgvROF4ZwmpkRC7)">
<path d="M11.9998 6.00171C11.2088 6.00171 10.4358 6.23169 9.77777 6.67175C9.11975 7.1117 8.60675 7.7417 8.30475 8.47168C8.00177 9.20166 7.92276 10.0017 8.07675 10.7817C8.23074 11.5618 8.61176 12.2717 9.17175 12.8317C9.73074 13.3917 10.4438 13.7717 11.2198 13.9217C11.9958 14.0817 12.7997 14.0017 13.5308 13.7017C14.2618 13.3917 14.8857 12.8817 15.3257 12.2217C15.7658 11.5618 15.9998 10.7917 15.9998 10.0017C15.9998 8.94165 15.5788 7.92175 14.8288 7.17175C14.0778 6.42175 13.0608 6.00171 11.9998 6.00171L11.9998 6.00171ZM11.9998 12.0017C11.6048 12.0017 11.2177 11.8817 10.8888 11.6617C10.5598 11.4416 10.3037 11.1317 10.1518 10.7717C10.0008 10.4017 9.96075 10.0017 10.0388 9.6117C10.1158 9.22168 10.3058 8.87171 10.5858 8.59168C10.8658 8.31177 11.2217 8.12171 11.6097 8.04175C11.9977 7.96167 12.3998 8.00171 12.7648 8.15173C13.1308 8.30176 13.4428 8.56177 13.6628 8.89172C13.8828 9.22168 13.9998 9.60169 13.9998 10.0017C13.9998 10.5317 13.7888 11.0417 13.4138 11.4117C13.0388 11.7917 12.5308 12.0017 11.9998 12.0017L11.9998 12.0017Z"   fill="#374957" >
</path>
</g>
<g  mask="url(#mask-GcqwRdwgvROF4ZwmpkRC7)">
<path d="M11.9999 24C11.1579 24 10.3269 23.8101 9.57691 23.42C8.82691 23.04 8.17991 22.48 7.68891 21.8C3.8779 16.54 1.94492 12.59 1.94492 10.05C1.94492 7.39001 3.00391 4.82996 4.88993 2.93994C6.77591 1.06006 9.33292 0 11.9999 0C14.6669 0 17.2239 1.06006 19.1099 2.93994C20.9959 4.82996 22.0549 7.39001 22.0549 10.05C22.0549 12.59 20.1219 16.54 16.3109 21.8C15.8199 22.48 15.1729 23.04 14.4229 23.42C13.6729 23.8101 12.8419 24 11.9999 24L11.9999 24L11.9999 24ZM11.9999 2.18005C9.9119 2.18005 7.91092 3.01001 6.43491 4.48999C4.95893 5.96997 4.1279 7.96997 4.12592 10.0601C4.12592 12.0699 6.01893 15.78 9.4549 20.52C9.74692 20.92 10.1289 21.25 10.5719 21.48C11.0139 21.7 11.5029 21.8199 11.9999 21.8199C12.4959 21.8199 12.9859 21.7 13.4279 21.48C13.8709 21.25 14.2529 20.92 14.5449 20.52C17.9809 15.78 19.8739 12.0699 19.8739 10.0601C19.8719 7.96997 19.0409 5.96997 17.5649 4.48999C16.0889 3.01001 14.0879 2.18005 11.9999 2.18005L11.9999 2.18005L11.9999 2.18005Z"   fill="#374957" >
</path>
</g>
<defs>
<mask id="mask-GcqwRdwgvROF4ZwmpkRC7" style="mask-type:alpha" maskUnits="userSpaceOnUse">
<rect x="0" y="0.001708984375" width="24" height="24"   fill="#000000" >
</rect>
<rect x="0" y="0.001708984375" width="24" height="24"   fill="#000000" >
</rect>
</mask>
</defs>
</svg>
