<svg xmlns="http://www.w3.org/2000/svg" xmlns:xlink="http://www.w3.org/1999/xlink" width="24" height="24" viewBox="0 0 24 24" fill="none">
<g  mask="url(#mask-qLE21buhoubQLJbZdX-qJ)">
<path d="M19 4L18.49 4L16.3101 1.168C16.03 0.806 15.67 0.511993 15.25 0.309998C14.84 0.108002 14.39 0.00201416 13.9301 0L10.0699 0C9.60999 0.00201416 9.16003 0.108002 8.75 0.309998C8.32996 0.511993 7.96997 0.806 7.68994 1.168L5.51001 4L5 4C3.67004 4.00201 2.40002 4.52899 1.46997 5.466C0.530029 6.40399 0 7.67401 0 9L0 19C0 20.326 0.530029 21.596 1.46997 22.534C2.40002 23.471 3.67004 23.998 5 24L19 24C20.33 23.998 21.6 23.471 22.53 22.534C23.47 21.596 24 20.326 24 19L24 9C24 7.67401 23.47 6.40399 22.53 5.466C21.6 4.52899 20.33 4.00201 19 4L19 4L19 4ZM9.28003 2.39001C9.37 2.26901 9.48999 2.17099 9.63 2.103C9.76001 2.03601 9.92004 2.00101 10.0699 2L13.9301 2C14.08 2.00101 14.24 2.03601 14.37 2.104C14.51 2.17099 14.63 2.26901 14.72 2.39001L15.97 4L8.03003 4L9.28003 2.39001L9.28003 2.39001ZM22 19C22 19.796 21.6801 20.559 21.12 21.121C20.5601 21.684 19.8 22 19 22L5 22C4.19995 22 3.43994 21.684 2.88 21.121C2.31995 20.559 2 19.796 2 19L2 9C2 8.20401 2.31995 7.44101 2.88 6.879C3.43994 6.31601 4.19995 6 5 6L19 6C19.8 6 20.5601 6.31601 21.12 6.879C21.6801 7.44101 22 8.20401 22 9L22 19L22 19Z"   fill="#374957" >
</path>
</g>
<g  mask="url(#mask-qLE21buhoubQLJbZdX-qJ)">
<path d="M12.0006 7.99988C10.8107 7.99988 9.65064 8.35187 8.67066 9.01087C7.68067 9.66989 6.91065 10.6069 6.46057 11.7039C6.00061 12.7999 5.88061 14.0069 6.12061 15.1699C6.35059 16.3339 6.92065 17.4029 7.76062 18.2429C8.60059 19.0819 9.67066 19.6529 10.8306 19.8849C11.9906 20.1159 13.2006 19.9969 14.3007 19.5429C15.3906 19.0889 16.3306 18.3199 16.9906 17.3329C17.6507 16.3469 18.0006 15.1869 18.0006 13.9999C18.0006 12.4089 17.3706 10.8839 16.2406 9.75888C15.1206 8.63388 13.5906 8.00089 12.0006 7.99988L12.0006 7.99988L12.0006 7.99988ZM12.0006 17.9999C11.2106 17.9999 10.4405 17.7649 9.78064 17.3259C9.12061 16.8859 8.6106 16.2619 8.30066 15.5309C8.00061 14.7999 7.92066 13.9949 8.08057 13.2199C8.23059 12.4439 8.6106 11.7309 9.17066 11.1709C9.73059 10.6119 10.4405 10.2309 11.2206 10.0769C12.0006 9.92188 12.8007 10.0019 13.5306 10.3039C14.2606 10.6069 14.8906 11.1199 15.3306 11.7779C15.7706 12.4349 16.0006 13.2089 16.0006 13.9999C16.0006 15.0609 15.5806 16.0779 14.8306 16.8279C14.0806 17.5779 13.0607 17.9999 12.0006 17.9999L12.0006 17.9999Z"   fill="#374957" >
</path>
</g>
<defs>
<mask id="mask-qLE21buhoubQLJbZdX-qJ" style="mask-type:alpha" maskUnits="userSpaceOnUse">
<rect x="0" y="0" width="24" height="24"   fill="#000000" >
</rect>
<rect x="0" y="0" width="24" height="24"   fill="#000000" >
</rect>
</mask>
</defs>
</svg>
