<svg xmlns="http://www.w3.org/2000/svg" xmlns:xlink="http://www.w3.org/1999/xlink" width="24" height="24" viewBox="0 0 24 24" fill="none">
<g  mask="url(#mask-N9kq91enD2AYHKAg3EwUN)">
<path d="M11.9998 0C9.62677 0 7.30676 0.703979 5.33276 2.02197C3.35974 3.341 1.82178 5.21503 0.912781 7.40802C0.00476074 9.60101 -0.232239 12.013 0.230774 14.341C0.693726 16.669 1.83575 18.807 3.51477 20.485C5.19275 22.164 7.33075 23.306 9.65875 23.769C11.9868 24.232 14.3987 23.995 16.5917 23.087C18.7847 22.178 20.6588 20.64 21.9778 18.667C23.2958 16.693 23.9998 14.373 23.9998 12C23.9968 8.81799 22.7308 5.76801 20.4818 3.51801C18.2318 1.26898 15.1818 0.00299072 11.9998 0L11.9998 0L11.9998 0ZM11.9998 22C10.0217 22 8.08875 21.414 6.44373 20.315C4.79974 19.216 3.51776 17.654 2.76074 15.827C2.00378 14 1.80579 11.989 2.19177 10.049C2.57776 8.10901 3.52979 6.32703 4.92877 4.92902C6.32678 3.53003 8.10876 2.578 10.0488 2.19202C11.9888 1.80603 13.9998 2.00403 15.8268 2.76099C17.6537 3.51801 19.2158 4.79999 20.3148 6.44397C21.4138 8.08899 21.9998 10.022 21.9998 12C21.9968 14.651 20.9427 17.193 19.0677 19.068C17.1927 20.943 14.6508 21.997 11.9998 22L11.9998 22L11.9998 22Z"   fill="#374957" >
</path>
</g>
<g  mask="url(#mask-N9kq91enD2AYHKAg3EwUN)">
<path d="M12.7171 5.06256C12.1401 4.95758 11.5481 4.98059 10.9811 5.12958C10.4141 5.27856 9.88714 5.5506 9.43713 5.92657C8.98712 6.30255 8.62512 6.77258 8.37714 7.30255C8.12811 7.83355 8.00012 8.41357 8.00012 8.99957C8.00012 9.26458 8.10614 9.51855 8.29315 9.70654C8.48114 9.89355 8.73511 9.99957 9.00012 9.99957C9.26513 9.99957 9.52014 9.89355 9.70709 9.70654C9.89514 9.51855 10.0001 9.26458 10.0001 8.99957C10.0001 8.70459 10.0651 8.41455 10.1901 8.14758C10.3151 7.88159 10.4971 7.64654 10.7231 7.45855C10.9501 7.27057 11.2152 7.13458 11.5001 7.06158C11.7841 6.98755 12.0821 6.9776 12.3711 7.03259C12.7661 7.10858 13.1292 7.30157 13.4141 7.58557C13.6991 7.86956 13.8931 8.23254 13.9711 8.62756C14.0501 9.04156 13.9951 9.47058 13.8161 9.85156C13.6361 10.2336 13.3411 10.5486 12.9711 10.7526C12.3591 11.1066 11.8541 11.6186 11.5071 12.2346C11.1601 12.8516 10.9851 13.5496 11.0001 14.2566L11.0001 14.9996C11.0001 15.2646 11.1051 15.5186 11.2932 15.7066C11.4811 15.8936 11.7351 15.9996 12.0001 15.9996C12.2651 15.9996 12.5201 15.8936 12.7071 15.7066C12.8951 15.5186 13.0001 15.2646 13.0001 14.9996L13.0001 14.2566C12.9881 13.9086 13.0671 13.5636 13.2301 13.2556C13.3931 12.9476 13.6351 12.6886 13.9301 12.5046C14.6552 12.1066 15.2381 11.4936 15.6001 10.7506C15.9621 10.0076 16.0851 9.17059 15.9522 8.35455C15.8191 7.53857 15.4371 6.78454 14.8581 6.19458C14.2781 5.60559 13.5311 5.20959 12.7171 5.06256L12.7171 5.06256L12.7171 5.06256Z"   fill="#374957" >
</path>
</g>
<g  mask="url(#mask-N9kq91enD2AYHKAg3EwUN)">
<path d="M13.0002 17.9997C13.0002 17.4467 12.5522 16.9997 12.0002 16.9997C11.4482 16.9997 11.0002 17.4467 11.0002 17.9997C11.0002 18.5517 11.4482 18.9997 12.0002 18.9997C12.5522 18.9997 13.0002 18.5517 13.0002 17.9997L13.0002 17.9997Z"   fill="#374957" >
</path>
</g>
<defs>
<mask id="mask-N9kq91enD2AYHKAg3EwUN" style="mask-type:alpha" maskUnits="userSpaceOnUse">
<rect x="0" y="0" width="24" height="24"   fill="#000000" >
</rect>
<rect x="0" y="0" width="24" height="24"   fill="#000000" >
</rect>
</mask>
</defs>
</svg>
