<svg xmlns="http://www.w3.org/2000/svg" xmlns:xlink="http://www.w3.org/1999/xlink" width="24" height="24.004623413085938" viewBox="0 0 24 24.004623413085938" fill="none">
<g  mask="url(#mask-Aa-w6__Rh9oYxn30nUw9J)">
<path d="M11.9994 2C13.3293 2 14.6394 2.27002 15.8594 2.79004C17.0793 3.30005 18.1893 4.05005 19.1194 5L15.9994 5C15.7294 5 15.4794 5.10999 15.2894 5.29004C15.1094 5.47998 14.9994 5.72998 14.9994 6C14.9994 6.27002 15.1094 6.52002 15.2894 6.70996C15.4794 6.89001 15.7294 7 15.9994 7L20.1394 7C20.6394 7 21.1094 6.80005 21.4594 6.45996C21.7994 6.10999 21.9994 5.64001 21.9994 5.14001L21.9994 1C21.9994 0.72998 21.8894 0.47998 21.7094 0.290039C21.5194 0.109985 21.2694 0 20.9994 0L20.9994 0C20.7294 0 20.4794 0.109985 20.2894 0.290039C20.1094 0.47998 19.9994 0.72998 19.9994 1L19.9994 3.07996C18.3494 1.58997 16.3094 0.589966 14.1194 0.189941C11.9393 -0.199951 9.67944 0.0100098 7.60938 0.829956C5.53943 1.64001 3.72937 3.01001 2.39942 4.79004C1.05945 6.56995 0.249389 8.68005 0.0494385 10.9C0.0394287 11.04 0.0494385 11.1801 0.0993652 11.3101C0.139404 11.4399 0.20935 11.5699 0.309448 11.67C0.399414 11.77 0.519409 11.86 0.639404 11.91C0.769409 11.97 0.909423 12 1.04944 12L1.04944 12C1.28943 12 1.52942 11.91 1.70935 11.75C1.89942 11.59 2.0094 11.37 2.03943 11.12C2.2594 8.63 3.40943 6.31995 5.24939 4.63C7.08936 2.93994 9.49939 2 11.9994 2L11.9994 2Z"   fill="#374957" >
</path>
</g>
<g  mask="url(#mask-Aa-w6__Rh9oYxn30nUw9J)">
<path d="M22.9501 12.0004C22.7101 12.0004 22.4701 12.0903 22.2901 12.2504C22.1001 12.4104 21.9901 12.6404 21.9601 12.8804C21.8001 14.7804 21.0901 16.6003 19.9201 18.1104C18.7601 19.6204 17.1802 20.7704 15.3801 21.4104C13.5801 22.0605 11.6401 22.1704 9.78015 21.7504C7.91015 21.3203 6.21008 20.3704 4.88012 19.0004L8.00012 19.0004C8.27014 19.0004 8.52014 18.8904 8.71008 18.7103C8.89013 18.5204 9.00012 18.2704 9.00012 18.0004C9.00012 17.7303 8.89013 17.4803 8.71008 17.2904C8.52014 17.1104 8.27014 17.0004 8.00012 17.0004L3.86011 17.0004C3.61011 17.0004 3.37012 17.0504 3.15014 17.1404C2.92017 17.2303 2.72009 17.3704 2.54016 17.5404C2.37012 17.7203 2.2301 17.9204 2.14014 18.1504C2.05017 18.3704 2.00012 18.6104 2.00012 18.8604L2.00012 23.0004C2.00012 23.2704 2.11011 23.5204 2.29016 23.7104C2.4801 23.8904 2.7301 24.0004 3.00012 24.0004C3.27014 24.0004 3.52014 23.8904 3.71008 23.7104C3.89013 23.5204 4.00012 23.2704 4.00012 23.0004L4.00012 20.9204C5.65014 22.4104 7.69006 23.4104 9.88012 23.8105C12.0602 24.2104 14.32 23.9904 16.3901 23.1704C18.4601 22.3604 20.2701 20.9904 21.6001 19.2103C22.94 17.4304 23.7501 15.3203 23.9501 13.1003C23.9601 12.9603 23.9501 12.8203 23.9001 12.6903C23.8601 12.5604 23.7901 12.4304 23.69 12.3303C23.6001 12.2303 23.4801 12.1404 23.3601 12.0903C23.2301 12.0304 23.0901 12.0004 22.9501 12.0004L22.9501 12.0004L22.9501 12.0004Z"   fill="#374957" >
</path>
</g>
<defs>
<mask id="mask-Aa-w6__Rh9oYxn30nUw9J" style="mask-type:alpha" maskUnits="userSpaceOnUse">
<rect x="0" y="0.000244140625" width="24" height="24"   fill="#000000" >
</rect>
<rect x="0" y="0.000244140625" width="24" height="24"   fill="#000000" >
</rect>
</mask>
</defs>
</svg>
