<svg xmlns="http://www.w3.org/2000/svg" xmlns:xlink="http://www.w3.org/1999/xlink" width="24.0322265625" height="24.0313720703125" viewBox="0 0 24.0322265625 24.0313720703125" fill="none">
<g  mask="url(#mask-9FK1dbfxLSDC0RAksB58Z)">
<path d="M23.7428 22.3229L17.7728 16.3528C19.3928 14.3728 20.1929 11.8329 20.0028 9.26282C19.8129 6.70288 18.6428 4.31287 16.7328 2.5929C14.8329 0.862793 12.3329 -0.0571289 9.76282 0.00280762C7.19287 0.072876 4.75281 1.1228 2.93286 2.93286C1.11279 4.75281 0.072876 7.20288 0.00280762 9.76282C-0.0571289 12.3329 0.862793 14.8329 2.5929 16.7328C4.31287 18.6428 6.70288 19.8129 9.26282 20.0028C11.8329 20.2029 14.3628 19.4028 16.3528 17.7728L22.3229 23.7428C22.5128 23.9229 22.7628 24.0228 23.0328 24.0228C23.2928 24.0228 23.5428 23.9128 23.7228 23.7328C23.9128 23.5428 24.0228 23.2928 24.0228 23.0328C24.0228 22.7628 23.9229 22.5128 23.7428 22.3229L23.7428 22.3229ZM10.0328 18.0328C8.45288 18.0328 6.90283 17.5629 5.5929 16.6829C4.27283 15.8029 3.2428 14.5529 2.64282 13.0929C2.03284 11.6328 1.8728 10.0228 2.18286 8.47278C2.4928 6.92285 3.25281 5.4928 4.3728 4.3728C5.4928 3.25281 6.92285 2.4928 8.47278 2.18286C10.0228 1.88281 11.6328 2.03284 13.0929 2.64282C14.5529 3.25281 15.8029 4.27283 16.6829 5.5929C17.5629 6.90283 18.0328 8.45288 18.0328 10.0328C18.0328 12.1528 17.1829 14.1929 15.6829 15.6829C14.1829 17.1829 12.1528 18.0328 10.0328 18.0328L10.0328 18.0328Z"   fill="#374957" >
</path>
</g>
<defs>
<mask id="mask-9FK1dbfxLSDC0RAksB58Z" style="mask-type:alpha" maskUnits="userSpaceOnUse">
<rect x="0.0322265625" y="0.0313720703125" width="24" height="24"   fill="#000000" >
</rect>
<rect x="0.0322265625" y="0.0313720703125" width="24" height="24"   fill="#000000" >
</rect>
</mask>
</defs>
</svg>
