<svg xmlns="http://www.w3.org/2000/svg" xmlns:xlink="http://www.w3.org/1999/xlink" width="24" height="24.0001220703125" viewBox="0 0 24 24.0001220703125" fill="none">
<g  mask="url(#mask-DyvaK4R3r4yqbUf70OHCR)">
<path d="M1 4.75L3.73999 4.75C3.94995 5.54004 4.42004 6.23999 5.06995 6.72998C5.71997 7.22998 6.52002 7.5 7.32996 7.5C8.15002 7.5 8.94995 7.22998 9.59998 6.72998C10.25 6.23999 10.72 5.54004 10.9301 4.75L23 4.75C23.27 4.75 23.52 4.64001 23.71 4.45996C23.89 4.27002 24 4.02002 24 3.75C24 3.48999 23.89 3.22998 23.71 3.04004C23.52 2.85999 23.27 2.75 23 2.75L10.9301 2.75C10.72 1.95996 10.25 1.26001 9.59998 0.77002C8.94995 0.27002 8.15002 0 7.32996 0C6.52002 0 5.71997 0.27002 5.06995 0.77002C4.42004 1.26001 3.94995 1.95996 3.73999 2.75L1 2.75C0.72998 2.75 0.47998 2.85999 0.290039 3.04004C0.109985 3.22998 0 3.48999 0 3.75C0 4.02002 0.109985 4.27002 0.290039 4.45996C0.47998 4.64001 0.72998 4.75 1 4.75L1 4.75L1 4.75ZM7.32996 2C7.68005 2 8.02002 2.09998 8.31006 2.30005C8.58997 2.48999 8.81995 2.76001 8.94995 3.07996C9.07996 3.40002 9.12 3.75 9.05005 4.08997C8.97998 4.43005 8.81995 4.73999 8.56995 4.98999C8.32996 5.22998 8.01001 5.40002 7.67004 5.46997C7.32996 5.53003 6.97998 5.5 6.66003 5.37C6.33997 5.22998 6.06995 5.01001 5.88 4.71997C5.68994 4.43005 5.57996 4.09998 5.57996 3.75C5.57996 3.29004 5.77002 2.83997 6.09998 2.51001C6.42004 2.18994 6.87 2 7.32996 2L7.32996 2L7.32996 2Z"   fill="#374957" >
</path>
</g>
<g  mask="url(#mask-DyvaK4R3r4yqbUf70OHCR)">
<path d="M23 10.9979L20.26 10.9979C20.05 10.2079 19.58 9.50793 18.9301 9.00793C18.28 8.51794 17.49 8.24792 16.67 8.24792C15.85 8.24792 15.05 8.51794 14.4 9.00793C13.75 9.50793 13.28 10.2079 13.0699 10.9979L1 10.9979C0.72998 10.9979 0.47998 11.0979 0.290039 11.288C0.109985 11.4779 0 11.7279 0 11.9979C0 12.2579 0.109985 12.5179 0.290039 12.7079C0.47998 12.8879 0.72998 12.9979 1 12.9979L13.0699 12.9979C13.28 13.788 13.75 14.4879 14.4 14.9779C15.05 15.4779 15.85 15.7479 16.67 15.7479C17.49 15.7479 18.28 15.4779 18.9301 14.9779C19.58 14.4879 20.05 13.788 20.26 12.9979L23 12.9979C23.27 12.9979 23.52 12.8879 23.71 12.7079C23.89 12.5179 24 12.2579 24 11.9979C24 11.7279 23.89 11.4779 23.71 11.288C23.52 11.0979 23.27 10.9979 23 10.9979L23 10.9979ZM16.67 13.7479C16.3199 13.7479 15.98 13.6479 15.6899 13.4479C15.41 13.2579 15.1801 12.9879 15.05 12.668C14.92 12.3479 14.88 11.9979 14.95 11.658C15.02 11.3179 15.1801 11.0079 15.4301 10.7579C15.67 10.5179 15.99 10.3479 16.33 10.278C16.67 10.2179 17.02 10.2479 17.34 10.3779C17.66 10.5079 17.9301 10.7379 18.12 11.028C18.3101 11.308 18.42 11.6479 18.42 11.9979C18.42 12.4579 18.23 12.908 17.9 13.2379C17.58 13.558 17.13 13.7479 16.67 13.7479L16.67 13.7479L16.67 13.7479Z"   fill="#374957" >
</path>
</g>
<g  mask="url(#mask-DyvaK4R3r4yqbUf70OHCR)">
<path d="M23 19.2501L10.9301 19.2501C10.72 18.4601 10.25 17.7601 9.59998 17.2701C8.94995 16.7701 8.15002 16.5001 7.32996 16.5001C6.52002 16.5001 5.71997 16.7701 5.06995 17.2701C4.42004 17.7601 3.94995 18.4601 3.73999 19.2501L1 19.2501C0.72998 19.2501 0.47998 19.3601 0.290039 19.5402C0.109985 19.7301 0 19.9901 0 20.2501C0 20.5201 0.109985 20.7701 0.290039 20.9601C0.47998 21.1401 0.72998 21.2501 1 21.2501L3.73999 21.2501C3.94995 22.0402 4.42004 22.7401 5.06995 23.2301C5.71997 23.7301 6.52002 24.0001 7.32996 24.0001C8.15002 24.0001 8.94995 23.7301 9.59998 23.2301C10.25 22.7401 10.72 22.0402 10.9301 21.2501L23 21.2501C23.27 21.2501 23.52 21.1401 23.71 20.9601C23.89 20.7701 24 20.5201 24 20.2501C24 19.9901 23.89 19.7301 23.71 19.5402C23.52 19.3601 23.27 19.2501 23 19.2501L23 19.2501ZM7.32996 22.0001C6.98999 22.0001 6.65002 21.9001 6.35999 21.7101C6.06995 21.5101 5.84998 21.2401 5.71997 20.9202C5.57996 20.6001 5.55005 20.2501 5.62 19.9102C5.68005 19.5701 5.84998 19.2601 6.09998 19.0101C6.33997 18.7701 6.65002 18.6001 6.98999 18.5302C7.32996 18.4701 7.68005 18.5001 8 18.6301C8.31995 18.7701 8.59998 18.9901 8.79004 19.2802C8.97998 19.5701 9.07996 19.9001 9.07996 20.2501C9.07996 20.7101 8.90002 21.1602 8.56995 21.4901C8.23999 21.8102 7.80005 22.0001 7.32996 22.0001L7.32996 22.0001L7.32996 22.0001Z"   fill="#374957" >
</path>
</g>
<defs>
<mask id="mask-DyvaK4R3r4yqbUf70OHCR" style="mask-type:alpha" maskUnits="userSpaceOnUse">
<rect x="0" y="0" width="24" height="24"   fill="#000000" >
</rect>
<rect x="0" y="0" width="24" height="24"   fill="#000000" >
</rect>
</mask>
</defs>
</svg>
