<svg xmlns="http://www.w3.org/2000/svg" xmlns:xlink="http://www.w3.org/1999/xlink" width="16" height="16" viewBox="0 0 16 16" fill="none">
<g  mask="url(#mask-8_252)">
<path d="M11.6652 1.27771C10.9148 1.28906 10.1805 1.49837 9.53739 1.88505C8.89366 2.27104 8.3632 2.8204 8.00002 3.4777C7.63683 2.8204 7.10638 2.27104 6.46263 1.88505C5.81958 1.49837 5.08518 1.28906 4.33483 1.27771C3.13866 1.32971 2.01176 1.85307 1.20011 2.73372C0.388433 3.61438 -0.0420565 4.7804 0.00325389 5.9777C0.00325389 9.00904 3.19263 12.3197 5.86753 14.5644C6.46462 15.0664 7.21967 15.3417 8.00002 15.3417C8.78037 15.3417 9.53539 15.0664 10.1325 14.5644C12.8074 12.3197 15.9968 9.00904 15.9968 5.9777C16.0421 4.7804 15.6116 3.61438 14.7999 2.73372C13.9883 1.85307 12.8614 1.32971 11.6652 1.27771L11.6652 1.27771Z"   fill="#374957" >
</path>
</g>
<defs>
<mask id="mask-8_252" style="mask-type:alpha" maskUnits="userSpaceOnUse">
<rect x="0.003173828125" y="0" width="15.993507385253906" height="16"   fill="#000000" >
</rect>
<rect x="0.003173828125" y="0" width="15.993507385253906" height="16"   fill="#000000" >
</rect>
</mask>
</defs>
</svg>
