<svg xmlns="http://www.w3.org/2000/svg" xmlns:xlink="http://www.w3.org/1999/xlink" width="24.0048828125" height="24" viewBox="0 0 24.0048828125 24" fill="none">
<g  mask="url(#mask-42_238)">
<path d="M19 0L5 0C3.67004 0 2.40002 0.527008 1.45996 1.46399C0.530029 2.40201 0 3.67401 0 5L0 5C0 5.79599 0.319946 6.55899 0.880005 7.121C1.43994 7.68399 2.19995 8 3 8L21 8C21.76 8.009 22.5 7.72601 23.05 7.20999C23.61 6.69299 23.95 5.98199 24 5.22299C24.03 4.548 23.92 3.87399 23.6801 3.242C23.45 2.60999 23.08 2.03201 22.62 1.54401C22.15 1.056 21.59 0.667999 20.97 0.402008C20.34 0.136993 19.6801 0 19 0L19 0L19 0Z"   fill="#374957" >
</path>
</g>
<g  mask="url(#mask-42_238)">
<path d="M22 10L2 10C1.72998 10 1.47998 10.105 1.29004 10.293C1.10998 10.48 1 10.735 1 11L1 19C1 20.326 1.53003 21.596 2.46997 22.534C3.40002 23.471 4.67004 23.998 6 24L18 24C19.33 23.998 20.6 23.471 21.53 22.534C22.47 21.596 23 20.326 23 19L23 11C23 10.735 22.89 10.48 22.71 10.293C22.52 10.105 22.27 10 22 10L22 10ZM15 15L9 15C8.72998 15 8.47998 14.895 8.29004 14.707C8.10999 14.52 8 14.265 8 14C8 13.735 8.10999 13.48 8.29004 13.293C8.47998 13.105 8.72998 13 9 13L15 13C15.27 13 15.52 13.105 15.71 13.293C15.89 13.48 16 13.735 16 14C16 14.265 15.89 14.52 15.71 14.707C15.52 14.895 15.27 15 15 15L15 15Z"   fill="#374957" >
</path>
</g>
<defs>
<mask id="mask-42_238" style="mask-type:alpha" maskUnits="userSpaceOnUse">
<rect x="0" y="0" width="24" height="24"   fill="#000000" >
</rect>
<rect x="0" y="0" width="24" height="24"   fill="#000000" >
</rect>
</mask>
</defs>
</svg>
