<svg xmlns="http://www.w3.org/2000/svg" xmlns:xlink="http://www.w3.org/1999/xlink" width="1080" height="1080" viewBox="0 0 1080 1080" fill="none">
<g opacity="0.53">
<path d="M161 511C173 500.79 214.72 501.79 239.13 501.79C263.54 501.79 311.69 502.87 324.94 519.67C338.19 536.47 301.4 554.36 244.45 554.36C187.5 554.36 125.37 541.34 161 511Z"   fill="#99ADF9" >
</path>
</g>
<path d="M833.77 560.31C833.77 560.31 921.61 562.19 953.29 567.54C984.97 572.89 1025.29 611.84 990.01 652.85C954.73 693.86 902.49 689.07 754.41 689.07C779.77 607.74 833.77 560.31 833.77 560.31Z"   fill="#99ADF9" >
</path>
<path d="M272.64 579.36C272.64 579.36 223.51 571.3 155.54 581.6C113.78 587.93 72.75 610.24 76.54 642.17C82.08 688.96 193.75 671.17 223.54 696.96C253.33 722.75 188.41 730.28 170.2 757.28C151.99 784.28 168.55 820.92 253.63 826.49C338.71 832.06 603.05 834.9 664.12 827.24C725.19 819.58 762.7 748.06 665.46 709.6C513.63 678.67 272.64 579.36 272.64 579.36Z"   fill="#99ADF9" >
</path>
<path d="M877.42 597.68C877.42 676.61 759.99 740.6 541.29 740.6C322.59 740.6 211.29 676.6 211.29 597.68C211.29 518.76 322.65 454.76 541.29 454.76C759.93 454.76 877.42 518.75 877.42 597.68Z"   fill="#F0F6FF" >
</path>
<path d="M877.42 597.68C877.42 676.61 759.99 740.6 541.29 740.6C322.59 740.6 211.29 676.6 211.29 597.68C211.29 518.76 322.65 454.76 541.29 454.76C759.93 454.76 877.42 518.75 877.42 597.68Z"   fill="#F0F6FF" >
</path>
<g mask="url(#mask-IY3vfxB9DRsBXnARlZmpE)" opacity="0.36">
<path d="M392.3 529.79C392.3 529.79 272.17 541.89 263.53 702.44C311.05 787.39 498.25 767.24 498.25 767.24C498.25 767.24 491.16 604.49 555.45 515.8C689.05 520.12 784.09 518.8 820.09 698.8C893.53 661.36 899.18 579.87 899.18 579.87C899.18 579.87 863.18 464.67 810.62 451.71C758.06 438.75 673.1 454.59 673.1 454.59L392.3 529.79Z"   fill="#FF97C9" >
</path>
</g>
<g mask="url(#mask-IY3vfxB9DRsBXnARlZmpE)" style="mix-blend-mode:multiply" opacity="0.64">
<path d="M773.29 539.61C773.29 578.24 692.57 609.56 542.29 609.56C392.01 609.56 315.42 578.24 315.42 539.61C315.42 500.98 391.97 469.67 542.29 469.67C692.61 469.67 773.29 501 773.29 539.61Z"   fill="#E1ECFF" >
</path>
</g>
<path d="M646.07 550C646.07 550 660.79 566.64 662.71 580.08C664.63 593.52 663.03 610.16 678.71 615.6C694.39 621.04 735.71 624.24 748.47 607.92C761.23 591.6 752.63 565.36 729.59 545.52C698.59 518 663.35 515.76 663.35 515.76L646.07 550Z"   fill="#FEC272" >
</path>
<path d="M646.07 550C646.07 550 660.79 566.64 662.71 580.08C664.63 593.52 663.03 610.16 678.71 615.6C694.39 621.04 735.71 624.24 748.47 607.92C761.23 591.6 752.63 565.36 729.59 545.52C698.59 518 663.35 515.76 663.35 515.76L646.07 550Z"   fill="#FEC272" >
</path>
<g mask="url(#mask-GXnwCmD0nt5aPWOta5V-M)" style="mix-blend-mode:multiply" opacity="0.45">
<path d="M641.47 582.14C641.47 582.14 707.47 577.04 705.97 507.24C655.47 509.74 629.54 545.03 629.54 545.03L641.47 582.14Z"   fill="#FEC272" >
</path>
</g>
<path d="M426.09 550C426.09 550 440.81 566.64 442.73 580.08C444.65 593.52 443.05 610.16 458.73 615.6C474.41 621.04 515.73 624.24 528.49 607.92C541.25 591.6 532.65 565.36 509.61 545.52C478.61 518 443.37 515.76 443.37 515.76L426.09 550Z"   fill="#FEC272" >
</path>
<path d="M426.09 550C426.09 550 440.81 566.64 442.73 580.08C444.65 593.52 443.05 610.16 458.73 615.6C474.41 621.04 515.73 624.24 528.49 607.92C541.25 591.6 532.65 565.36 509.61 545.52C478.61 518 443.37 515.76 443.37 515.76L426.09 550Z"   fill="#FEC272" >
</path>
<g mask="url(#mask-PawzQh8NV1ZD9JF57SoL-)" style="mix-blend-mode:multiply" opacity="0.45">
<path d="M441.32 531.9C441.32 531.9 475.51 588.59 537.21 555.9C512.3 511.9 469.12 504.57 469.12 504.57L441.32 531.9Z"   fill="#FEC272" >
</path>
</g>
<path d="M620 305.24C629 305.54 657.61 303.45 669.55 338.67C681.49 373.89 690.74 399.57 706.86 422.55C722.98 445.53 739.4 487.32 706.86 516.55C674.32 545.78 636.13 538.67 618.52 530C600.91 521.33 580 507 585.08 458.07C590.16 409.14 605.68 379.27 607.47 352.4C609.26 325.53 612 316.58 620 305.24Z"   fill="#FF8D76" >
</path>
<path d="M693.15 530.12C677.07 555.08 650.87 561.48 623 547.8C594.92 558.8 571.06 564.44 525.7 556.8C480.34 549.16 436.79 510.65 425.7 433.28C419.3 388.48 419.22 333.76 440.7 305.28C476.53 295.46 491.78 283 536 281.24C582.71 279.34 620.67 297.08 637.95 320.6C655.23 344.12 665.31 401.24 667.47 418.28C669.63 435.32 677.31 444.44 685.47 455.72C694.22 467.82 709.23 505.16 693.15 530.12Z"   fill="#FEC272" >
</path>
<path d="M440.81 305.24C431.21 305.56 400.49 303.32 387.69 341.08C374.89 378.84 365 406.36 347.69 431C330.38 455.64 312.81 500.44 347.69 531.8C382.57 563.16 423.53 555.48 442.41 546.2C461.29 536.92 483.69 521.56 478.25 469.08C472.81 416.6 456.17 384.6 454.25 355.8C452.33 327 449.45 317.4 440.81 305.24Z"   fill="#FF8D76" >
</path>
<path d="M551.65 428.28C551.65 435.438 545.848 441.24 538.69 441.24C531.532 441.24 525.73 435.438 525.73 428.28C525.73 421.122 531.532 415.32 538.69 415.32C545.848 415.32 551.65 421.122 551.65 428.28Z"   fill="#1C3177" >
</path>
<path d="M656.93 428.28C656.93 435.438 651.128 441.24 643.97 441.24C636.812 441.24 631.01 435.438 631.01 428.28C631.01 421.122 636.812 415.32 643.97 415.32C651.128 415.32 656.93 421.122 656.93 428.28Z"   fill="#1C3177" >
</path>
<path d="M518.4 395.37C517.4 390.67 529.06 384.89 535 380.55C540.94 376.21 549.89 374.55 554.6 382.47C559.31 390.39 543.17 397.84 537.22 399.11C531.27 400.38 519.46 400.52 518.4 395.37Z"   fill="#FF8D76" >
</path>
<path d="M656.92 393.61C657.31 389.28 647.14 384.7 641.83 381.1C636.52 377.5 628.94 376.5 625.72 383.98C622.5 391.46 636.56 397.29 641.61 398.11C646.66 398.93 656.49 398.36 656.92 393.61Z"   fill="#FF8D76" >
</path>
<path d="M601.69 470.84C602.61 465.44 640.69 463.64 643.97 470.84C647.25 478.04 636.97 496.52 626.41 496.52C615.85 496.52 599.29 485 601.69 470.84Z"   fill="#1C3177" >
</path>
<path    stroke="rgba(28, 49, 119, 1.00)" stroke-width="7"  stroke-linecap="round"  d="M627.42 481.16C627.815 491.421 627.346 501.697 626.02 511.88">
</path>
<g style="mix-blend-mode:multiply">
<path    stroke="rgba(254, 194, 114, 1.00)" stroke-width="7"  stroke-linecap="round"  d="M479.87 615.64C479.87 615.64 484.35 603.64 478.87 592.85">
</path>
</g>
<g style="mix-blend-mode:multiply">
<path    stroke="rgba(254, 194, 114, 1.00)" stroke-width="7"  stroke-linecap="round"  d="M515.22 613.24C516.719 606.336 515.764 599.126 512.52 592.85">
</path>
</g>
<g style="mix-blend-mode:multiply">
<path    stroke="rgba(254, 194, 114, 1.00)" stroke-width="7"  stroke-linecap="round"  d="M699.85 615.64C699.85 615.64 704.33 603.64 698.85 592.85">
</path>
</g>
<g style="mix-blend-mode:multiply">
<path    stroke="rgba(254, 194, 114, 1.00)" stroke-width="7"  stroke-linecap="round"  d="M735.2 613.24C736.705 606.338 735.754 599.126 732.51 592.85">
</path>
</g>
<g opacity="0.53">
<path d="M794.8 737.81C806.8 727.59 848.51 728.59 872.93 728.59C897.35 728.59 945.49 729.68 958.74 746.48C971.99 763.28 935.2 781.16 878.25 781.16C821.3 781.16 759.21 768.15 794.8 737.81Z"   fill="#99ADF9" >
</path>
</g>
<defs>
<mask id="mask-IY3vfxB9DRsBXnARlZmpE" style="mask-type:alpha" maskUnits="userSpaceOnUse">
<path d="M877.42 597.68C877.42 676.61 759.99 740.6 541.29 740.6C322.59 740.6 211.29 676.6 211.29 597.68C211.29 518.76 322.65 454.76 541.29 454.76C759.93 454.76 877.42 518.75 877.42 597.68Z"   fill="#F0F6FF" >
</path>
</mask>
<mask id="mask-GXnwCmD0nt5aPWOta5V-M" style="mask-type:alpha" maskUnits="userSpaceOnUse">
<path d="M646.07 550C646.07 550 660.79 566.64 662.71 580.08C664.63 593.52 663.03 610.16 678.71 615.6C694.39 621.04 735.71 624.24 748.47 607.92C761.23 591.6 752.63 565.36 729.59 545.52C698.59 518 663.35 515.76 663.35 515.76L646.07 550Z"   fill="#FEC272" >
</path>
</mask>
<mask id="mask-PawzQh8NV1ZD9JF57SoL-" style="mask-type:alpha" maskUnits="userSpaceOnUse">
<path d="M426.09 550C426.09 550 440.81 566.64 442.73 580.08C444.65 593.52 443.05 610.16 458.73 615.6C474.41 621.04 515.73 624.24 528.49 607.92C541.25 591.6 532.65 565.36 509.61 545.52C478.61 518 443.37 515.76 443.37 515.76L426.09 550Z"   fill="#FEC272" >
</path>
</mask>
</defs>
</svg>
