<svg xmlns="http://www.w3.org/2000/svg" xmlns:xlink="http://www.w3.org/1999/xlink" width="1080" height="1080" viewBox="0 0 1080 1080" fill="none">
<path     fill="#FFFFFF" fill-opacity="0" d="M0 1080L1080 1080L1080 0L0 0L0 1080Z">
</path>
<path d="M289.08 381.9C289.08 381.9 255.08 395.35 250.08 428.02C245.08 460.69 322.34 556.39 322.34 556.39L560.6 428L485.27 295.8L289.08 381.9Z"   fill="#C7DCF9" >
</path>
<path d="M341.76 412.78C341.76 412.78 316.69 438.52 309 467C301.31 495.48 300.32 546.34 301.6 565.39C339 600 486.83 571 486.83 571L629.29 403.42C629.29 403.42 605.14 357.57 592.88 345C580.62 332.43 540.88 316.8 495.03 335.25C468.12 373.44 341.76 412.78 341.76 412.78Z"   fill="#E1ECFF" >
</path>
<path d="M782.53 676.11C762.71 622.11 734.53 543.36 708.69 532.52C682.85 521.68 604.54 516.52 604.54 516.52L555.73 633.88C555.73 633.88 625.66 634.33 645.31 639.35C664.96 644.37 716.97 762.08 738.49 773.35C760.01 784.62 778.29 765.9 802 752C825.71 738.1 847.44 721.28 848.12 714.26C848.8 707.24 838.73 679.19 830.02 673.53C821.31 667.87 796.02 667.47 782.53 676.11Z"   fill="#E1ECFF" >
</path>
<path d="M604.54 516.52L555.73 633.88C555.73 633.88 625.66 634.33 645.31 639.35C664.96 644.37 716.97 762.08 738.49 773.35C760.01 784.62 778.29 765.9 802 752C825.71 738.1 847.44 721.28 848.12 714.26C848.8 707.24 838.73 679.19 830.02 673.53C821.31 667.87 796.02 667.47 782.53 676.11C762.71 622.11 734.53 543.36 708.69 532.52C682.85 521.68 604.54 516.52 604.54 516.52Z"   fill="#E1ECFF" >
</path>
<g mask="url(#mask-P2Fcumst5j59G6QMWRieK)" style="mix-blend-mode:multiply" opacity="0.51">
<path d="M629.29 582.34C629.29 582.34 686.23 588.57 701.96 609.76C717.69 630.95 748.86 760.61 783.75 763.68C784.31 805.68 712.05 820.85 712.05 820.85L538.84 628.39L629.29 582.34Z"   fill="#E1ECFF" >
</path>
</g>
<path d="M719.93 867.71C707.89 861.56 690.93 856.44 690.2 849.27C689.47 842.1 675.85 732.94 670.2 703.27C664.55 673.6 620.67 632.33 564.12 611.54C510.57 566.7 428.32 585.91 428.32 585.91L367.85 623.26C367.85 623.26 410.85 713.45 449.85 738.05C488.85 762.65 559.51 760.66 579 776.77C598.49 792.88 594.37 870.27 613.85 890.77C633.33 911.27 660.74 923.83 686.36 921.52C711.98 919.21 732.48 906.92 732.74 895.39C733 883.86 731.97 873.86 719.93 867.71Z"   fill="#E1ECFF" >
</path>
<g style="mix-blend-mode:multiply">
<path d="M380.36 647.39C380.36 647.39 429.71 649.91 474.03 630.44C465.56 585.34 439.43 572.02 439.43 572.02L367.85 623.26L380.36 647.39Z"   fill="#E1ECFF" >
</path>
</g>
<g style="mix-blend-mode:multiply">
<path d="M343.09 574.58C387.82 553.82 354.36 506.42 398.95 495.64C457.74 504 474 501 474 501C474 501 361.53 599.78 343.09 574.58Z"   fill="#E1ECFF" >
</path>
</g>
<path d="M560.11 636.84L656.45 575.86L685.15 488.74L615.46 279.66L581.63 377.54L494 447.23L380.36 447.8L380.36 447.8L454.8 639.35L560.11 636.84Z" fill-rule="evenodd"  fill="#FF97C9" >
</path>
<g style="mix-blend-mode:multiply" opacity="0.5">
<path d="M494 447.23L560.11 636.84L656.45 575.86L581.63 377.54L494 447.23L494 447.23Z" fill-rule="evenodd"  fill="#FF97C9" >
</path>
</g>
<path d="M453.28 583.79C440.72 604.29 423 629.67 383.11 637.61C343.22 645.55 320.54 625.18 307.47 599.43C303.06 590.74 301.47 578.73 301.61 565.35C301.61 565.35 310.54 577.14 343.09 574.58C367.77 572.58 380.34 556.51 387.82 549.38C391.63 545.74 390.87 542.55 388.95 532.05C387.03 521.55 393.69 510.78 402.79 506.17C407.79 519.62 413.93 522.17 418.67 521.54C423.41 520.91 428.28 492.59 443.78 492.84C459.28 493.09 471.71 513.6 473.78 523.84C475.85 534.08 465.84 563.29 453.28 583.79Z"   fill="#E1ECFF" >
</path>
<path d="M639.46 351.67C639.46 351.67 644.21 367.12 641.01 373.14C637.81 379.16 633.45 384.14 630.25 391.85C627.05 399.56 631.79 428.62 645.88 433.61C659.97 438.6 671.63 425.54 675.35 417.98C679.07 410.42 677.01 390.57 671.5 376.73C665.99 362.89 655.63 350.59 639.46 351.67Z"   fill="#E1ECFF" >
</path>
<path d="M669.37 173.13L664.26 178.13C663.63 178.741 663.341 179.624 663.49 180.49L664.69 187.49C664.863 188.491 664.453 189.504 663.631 190.103C662.81 190.701 661.72 190.782 660.82 190.31L654.49 186.99C653.714 186.579 652.786 186.579 652.01 186.99L645.68 190.31C644.779 190.787 643.685 190.71 642.86 190.111C642.035 189.511 641.624 188.494 641.8 187.49L643.01 180.49C643.159 179.624 642.871 178.741 642.24 178.13L637.13 173.13C636.399 172.421 636.135 171.358 636.449 170.389C636.763 169.42 637.602 168.714 638.61 168.57L645.68 167.57C646.547 167.444 647.296 166.897 647.68 166.11L650.84 159.71C651.289 158.788 652.224 158.202 653.25 158.202C654.276 158.202 655.211 158.788 655.66 159.71L658.82 166.11C659.204 166.897 659.953 167.444 660.82 167.57L667.89 168.57C668.898 168.714 669.737 169.42 670.051 170.389C670.366 171.358 670.101 172.421 669.37 173.13Z"   fill="#FEC272" >
</path>
<path d="M306.636 862.528C305.946 862.024 305.602 861.172 305.75 860.33L306.75 854.43C306.876 853.697 306.633 852.949 306.1 852.43L301.82 848.25C301.21 847.655 300.99 846.765 301.253 845.955C301.517 845.144 302.217 844.553 303.06 844.43L308.98 843.57C309.71 843.468 310.343 843.011 310.67 842.35L313.32 836.98C313.701 836.216 314.483 835.734 315.336 835.739C316.19 835.743 316.967 836.232 317.34 837L319.99 842.37C320.311 843.032 320.941 843.49 321.67 843.59L327.6 844.45C328.443 844.573 329.143 845.164 329.407 845.975C329.67 846.785 329.45 847.675 328.84 848.27L324.55 852.45C324.015 852.967 323.775 853.718 323.91 854.45L324.91 860.35C325.05 861.19 324.704 862.036 324.016 862.538C323.329 863.039 322.417 863.11 321.66 862.72L316.36 859.93C315.708 859.59 314.932 859.59 314.28 859.93L309 862.7C308.244 863.098 307.327 863.032 306.636 862.528Z"   fill="#FEC272" >
</path>
<g style="mix-blend-mode:multiply">
<path d="M330.57 426.09C330.57 426.09 385.88 443.84 448.14 419.79C510.4 395.74 521.68 328 521.68 328L495 335.26L341.76 412.78L330.57 426.09Z"   fill="#E1ECFF" >
</path>
</g>
<path d="M448.65 176.4C410 155.71 329 148.73 279 210.74C229 272.75 253.92 337.06 274.93 367C296.93 398.42 372.55 446.44 453.26 401.34C533.97 356.24 542.43 226.62 448.65 176.4Z"   fill="#E1ECFF" >
</path>
<path d="M442 214.32C476.33 222.52 498.63 270.69 487.1 316.81C475.57 362.93 435.85 393.94 391.27 394.19C346.69 394.44 302.36 364 302.6 307.08C302.84 252.38 367.45 196.52 442 214.32Z"   fill="#1C3177" >
</path>
<g style="mix-blend-mode:" opacity="0.48">
<path d="M453.12 246.235C455.038 254.94 436.643 266.394 412.033 271.818C387.423 277.243 365.918 274.583 363.999 265.878C362.08 257.173 380.475 245.719 405.085 240.295C429.695 234.871 451.201 237.53 453.12 246.235Z"   fill="#FFFFFF" fill-opacity="0">
</path>
</g>
<g style="mix-blend-mode:multiply">
<path d="M468.08 552.56C468.08 552.56 439.77 527.26 434.64 527.26C429.51 527.26 415.85 547.26 418.93 552.56C422.01 557.86 437.83 575.22 455.2 580.56C460.83 569.82 468.08 552.56 468.08 552.56Z"   fill="#E1ECFF" >
</path>
</g>
<g style="mix-blend-mode:multiply">
<path d="M675.87 739.49C665.961 747.699 654.826 754.303 642.87 759.06C631.66 763.38 627.87 772.22 631.26 788.44C634.65 804.66 636.55 829.95 643.55 836.61C650.55 843.27 674.63 839.73 687.11 824.25C683.2 793.75 675.87 739.49 675.87 739.49Z"   fill="#E1ECFF" >
</path>
</g>
<g style="mix-blend-mode:multiply">
<path d="M741.12 574.12C741.12 574.12 727.12 580.22 728.45 589.95C729.78 599.68 744.08 646.71 749.72 650.95C755.36 655.19 772.05 647.67 772.05 647.67C754.91 599.11 741.12 574.12 741.12 574.12Z"   fill="#E1ECFF" >
</path>
</g>
<path d="M150.32 686.66C139.19 663.58 175.46 638.88 206.32 640.66C237.18 642.44 250.15 670.93 261.08 681.56C283.91 703.74 283.19 725.44 267.38 734.77C251.57 744.1 165.05 717.19 150.32 686.66Z"   fill="#99ADF9" >
</path>
<g opacity="0.44">
<path d="M201.38 783.77C195.1 778.77 176.63 774.52 172.69 784.03C168.75 793.54 187.51 802.03 197.69 799.29C207.87 796.55 205.56 787.11 201.38 783.77Z"   fill="#99ADF9" >
</path>
</g>
<g style="mix-blend-mode:multiply" opacity="0.64">
<path d="M255.61 675.23C244.44 677.33 246.24 687.32 249.82 696.37C253.4 705.42 266 708 274.89 699.73C269.12 686 255.61 675.23 255.61 675.23Z"   fill="#99ADF9" >
</path>
</g>
<g style="mix-blend-mode:multiply" opacity="0.64">
<path d="M191.4 660.16C183.4 661.05 176.88 672.63 182.52 682.02C188.16 691.41 198.91 698.25 205.06 695.69C211.21 693.13 212.24 679.29 207.8 670.41C203.36 661.53 199.09 659.3 191.4 660.16Z"   fill="#99ADF9" >
</path>
</g>
<path d="M772.88 329.11C763.88 321.23 773.14 284.19 794.4 275.52C815.66 266.85 842.06 276.33 847.7 291.19C853.34 306.05 791.33 345.25 772.88 329.11Z"   fill="#99ADF9" >
</path>
<path d="M877.06 348.93C872.45 355.5 869.38 374.21 879.11 377.54C888.84 380.87 896.2 361.62 892.78 351.6C889.36 341.58 880.14 344.54 877.06 348.93Z"   fill="#99ADF9" >
</path>
<g opacity="0.44">
<path d="M884.06 197.1C876.8 200.52 864.83 215.22 871.63 222.95C878.43 230.68 894.36 217.62 896.37 207.23C898.38 196.84 888.91 194.82 884.06 197.1Z"   fill="#99ADF9" >
</path>
</g>
<g style="mix-blend-mode:multiply" opacity="0.64">
<path d="M822.74 283.5C818.35 284.9 813.9 289.65 814.29 294.78C814.68 299.91 819.16 304.39 824.02 303.78C828.88 303.17 833.02 295.32 832.02 289.68C831.02 284.04 826.09 282.44 822.74 283.5Z"   fill="#99ADF9" >
</path>
</g>
<g style="mix-blend-mode:multiply" opacity="0.64">
<path d="M776.25 293.5C776.25 293.5 782.25 299.5 781.25 306.31C780.25 313.12 769.91 312.49 769.91 312.49C769.91 312.49 771.45 300.88 776.25 293.5Z"   fill="#99ADF9" >
</path>
</g>
<defs>
<mask id="mask-P2Fcumst5j59G6QMWRieK" style="mask-type:alpha" maskUnits="userSpaceOnUse">
<path d="M604.54 516.52L555.73 633.88C555.73 633.88 625.66 634.33 645.31 639.35C664.96 644.37 716.97 762.08 738.49 773.35C760.01 784.62 778.29 765.9 802 752C825.71 738.1 847.44 721.28 848.12 714.26C848.8 707.24 838.73 679.19 830.02 673.53C821.31 667.87 796.02 667.47 782.53 676.11C762.71 622.11 734.53 543.36 708.69 532.52C682.85 521.68 604.54 516.52 604.54 516.52Z"   fill="#E1ECFF" >
</path>
</mask>
</defs>
</svg>
