<svg xmlns="http://www.w3.org/2000/svg" xmlns:xlink="http://www.w3.org/1999/xlink" width="24.000152587890625" height="24" viewBox="0 0 24.000152587890625 24" fill="none">
<g  mask="url(#mask-HS_ekzLB-bpMF2D8NscQ7)">
<path d="M8 3.99939L4 3.99939C2.939 3.99939 1.922 4.41943 1.172 5.16943C0.42099 5.91943 0 6.93933 0 7.99939L0 11.9994C0 12.5294 0.210999 13.0394 0.585999 13.4094C0.960999 13.7894 1.47 13.9994 2 13.9994L7.91 13.9994C7.673 15.3994 6.94901 16.6594 5.86801 17.5794C4.78699 18.4894 3.41699 18.9994 2 18.9994C1.73499 18.9994 1.48001 19.0994 1.293 19.2894C1.10501 19.4794 1 19.7294 1 19.9994C1 20.2594 1.10501 20.5194 1.293 20.7094C1.48001 20.8894 1.73499 20.9994 2 20.9994C4.121 20.9994 6.15399 20.1494 7.65399 18.6494C9.15399 17.1494 9.99799 15.1194 10 12.9994L10 5.99939C10 5.46936 9.789 4.95935 9.414 4.58936C9.039 4.20935 8.53 3.99939 8 3.99939L8 3.99939L8 3.99939Z"   fill="#374957" >
</path>
</g>
<g  mask="url(#mask-HS_ekzLB-bpMF2D8NscQ7)">
<path d="M22.0002 3.99939L18.0002 3.99939C16.9392 3.99939 15.9222 4.41943 15.1722 5.16943C14.4221 5.91943 14.0002 6.93933 14.0002 7.99939L14.0002 11.9994C14.0002 12.5294 14.2112 13.0394 14.5862 13.4094C14.9612 13.7894 15.4702 13.9994 16.0002 13.9994L21.9102 13.9994C21.6732 15.3994 20.9502 16.6594 19.8682 17.5794C18.7871 18.4894 17.4171 18.9994 16.0002 18.9994C15.7351 18.9994 15.4811 19.0994 15.2932 19.2894C15.1052 19.4794 15.0002 19.7294 15.0002 19.9994C15.0002 20.2594 15.1052 20.5194 15.2932 20.7094C15.4811 20.8894 15.7351 20.9994 16.0002 20.9994C18.1212 20.9994 20.1552 20.1494 21.6541 18.6494C23.1541 17.1494 23.9981 15.1194 24.0002 12.9994L24.0002 5.99939C24.0002 5.46936 23.7892 4.95935 23.4142 4.58936C23.0392 4.20935 22.5312 3.99939 22.0002 3.99939L22.0002 3.99939L22.0002 3.99939Z"   fill="#374957" >
</path>
</g>
<defs>
<mask id="mask-HS_ekzLB-bpMF2D8NscQ7" style="mask-type:alpha" maskUnits="userSpaceOnUse">
<rect x="0" y="0" width="24" height="24"   fill="#000000" >
</rect>
<rect x="0" y="0" width="24" height="24"   fill="#000000" >
</rect>
</mask>
</defs>
</svg>
