<svg xmlns="http://www.w3.org/2000/svg" xmlns:xlink="http://www.w3.org/1999/xlink" width="24" height="24" viewBox="0 0 24 24" fill="none">
<g  mask="url(#mask-9_703)">
<path d="M17 0L8 0L8 16L22 16L22 5C22 3.67401 21.47 2.40201 20.54 1.46399C19.6 0.527008 18.33 0 17 0L17 0L17 0Z"   fill="#DAE2E6" >
</path>
</g>
<g  mask="url(#mask-9_703)">
<path d="M4.40002 16.0611C4.58997 16.0201 4.80005 16.0001 5 16.0001L6 16.0001L6 0.100098C4.87 0.331086 3.85999 0.944092 3.13 1.8371C2.40002 2.7301 2 3.84708 2 5.00009L2 17.0251C2.69995 16.4981 3.53003 16.1651 4.40002 16.0611L4.40002 16.0611L4.40002 16.0611Z"   fill="#DAE2E6" >
</path>
</g>
<g  mask="url(#mask-9_703)">
<path d="M22 18L5 18C4.19995 18 3.43994 18.316 2.88 18.879C2.31995 19.441 2 20.204 2 21C2 21.796 2.31995 22.559 2.88 23.121C3.43994 23.684 4.19995 24 5 24L17 24C17.66 24 18.3101 23.871 18.91 23.619C19.52 23.368 20.0699 23 20.54 22.536C21 22.071 21.37 21.52 21.62 20.913C21.87 20.307 22 19.657 22 19L22 18L22 18Z"   fill="#DAE2E6" >
</path>
</g>
<defs>
<mask id="mask-9_703" style="mask-type:alpha" maskUnits="userSpaceOnUse">
<rect x="0" y="0" width="24" height="24"   fill="#855858" >
</rect>
<rect x="0" y="0" width="24" height="24"   fill="#855858" >
</rect>
</mask>
</defs>
</svg>
