<svg xmlns="http://www.w3.org/2000/svg" xmlns:xlink="http://www.w3.org/1999/xlink" width="19" height="19" viewBox="0 0 19 19" fill="none">
<path d="M2.83423 4.34188C1.43887 5.53907 0.741 6.13776 0.3705 6.93424C0 7.73072 0 8.6317 0 10.4339L0 15.9435C0 16.8929 0 17.3675 0.16074 17.7422C0.37487 18.2413 0.78603 18.6381 1.30321 18.845C1.69119 19 2.1831 19 3.16673 19L3.51861 19C4.17297 19 4.50015 19 4.76862 18.9307C5.49708 18.7422 6.06613 18.1929 6.26145 17.4897C6.33327 17.2305 6.33327 16.9147 6.33327 16.283L6.33327 13.9057C6.33327 12.2176 7.75105 10.849 9.5 10.849C11.249 10.849 12.6667 12.2176 12.6667 13.9057L12.6667 16.283C12.6667 16.9147 12.6667 17.2305 12.7386 17.4897C12.9339 18.1929 13.5029 18.7422 14.2314 18.9307C14.4999 19 14.827 19 15.4816 19L15.8333 19C16.8171 19 17.3088 19 17.6968 18.845C18.214 18.6381 18.6251 18.2413 18.8393 17.7422C19 17.3675 19 16.8929 19 15.9435L19 10.4339C19 8.6317 19 7.73072 18.6295 6.93424C18.2588 6.13776 17.5611 5.53907 16.1658 4.34188L15.1101 3.43615C12.4403 1.14532 11.1053 0 9.5 0C7.89469 0 6.55975 1.14532 3.88987 3.43615L2.83423 4.34188Z"   fill="#DAE2E6" >
</path>
</svg>
