<svg xmlns="http://www.w3.org/2000/svg" xmlns:xlink="http://www.w3.org/1999/xlink" width="16.70166015625" height="20" viewBox="0 0 16.70166015625 20" fill="none">
<path d="M8.35059 0C5.5896 0 3.35059 2.239 3.35059 5C3.35059 7.761 5.5896 10 8.35059 10C11.1116 10 13.3506 7.761 13.3506 5C13.3506 2.239 11.1116 0 8.35059 0L8.35059 0Z" fill-rule="evenodd"  fill="#DAE2E6" >
</path>
<path d="M8.3508 11C4.38779 11 1.83881 12.446 0.4888 14.655C-0.348206 16.026 -0.0281982 17.453 0.828796 18.447C1.64981 19.402 2.97281 20 4.3508 20L12.3508 20C13.7288 20 15.0518 19.402 15.8728 18.447C16.7298 17.453 17.0498 16.026 16.2128 14.655C14.8628 12.446 12.3138 11 8.3508 11L8.3508 11Z" fill-rule="evenodd"  fill="#DAE2E6" >
</path>
</svg>
